<?xml version="1.0" encoding="utf-8"?>
<!-- Generator: Adobe Illustrator 21.1.0, SVG Export Plug-In . SVG Version: 6.00 Build 0)  -->
<svg version="1.1" id="Capa_1" xmlns="http://www.w3.org/2000/svg" xmlns:xlink="http://www.w3.org/1999/xlink" x="0px" y="0px"
	 viewBox="0 0 755 537" style="enable-background:new 0 0 755 537;" xml:space="preserve">
<style type="text/css">
	.st0{fill:none;stroke:#CCCCCC;}
	.st1{enable-background:new    ;}
	.st2{fill:#FD512D;}
	.st3{fill:#FFFFFF;}
	.st4{fill:#FEAE01;}
	.st5{fill:#41DDCD;}
	.st6{fill:#412B5D;}
</style>
<g transform="translate(50,0)">
	<g transform="translate(0,30)">
		<g transform="translate(0,90)">
			<line class="st0" x1="16.5" y1="-11.5" x2="10.5" y2="-11.5"/>
			<g class="st1">
				<path d="M2.3-11.5c0-2.1,0.8-3.3,2.2-3.3s2.2,1.1,2.2,3.3c0,2.1-0.8,3.3-2.2,3.3S2.3-9.4,2.3-11.5z M5.6-11.5
					c0-1.8-0.4-2.4-1.1-2.4c-0.6,0-1.1,0.6-1.1,2.4s0.4,2.4,1.1,2.4C5.1-9.1,5.6-9.7,5.6-11.5z"/>
			</g>
		</g>
		<g transform="translate(0,76.82284040995607)">
			<line class="st0" x1="16.5" y1="-11.5" x2="10.5" y2="-11.5"/>
			<g class="st1">
				<path d="M-2.9-9.2h1.4v-4.2h-1.2v-0.7c0.6-0.1,1.1-0.3,1.5-0.5h0.9v5.4h1.2v0.9h-3.8V-9.2z"/>
				<path d="M1.9-11.5c0-2.1,0.8-3.3,2.2-3.3s2.2,1.1,2.2,3.3c0,2.1-0.8,3.3-2.2,3.3S1.9-9.4,1.9-11.5z M5.1-11.5
					c0-1.8-0.4-2.4-1.1-2.4c-0.6,0-1.1,0.6-1.1,2.4s0.4,2.4,1.1,2.4C4.7-9.1,5.1-9.7,5.1-11.5z"/>
			</g>
		</g>
		<g transform="translate(0,63.64568081991215)">
			<line class="st0" x1="16.5" y1="-11.5" x2="10.5" y2="-11.5"/>
			<g class="st1">
				<path d="M-3.2-9c1.8-1.7,2.9-2.8,2.9-3.8c0-0.7-0.4-1.1-1-1.1c-0.5,0-0.9,0.3-1.2,0.7l-0.6-0.6c0.6-0.6,1.2-1,2-1
					c1.2,0,2,0.8,2,1.9c0,1.1-1,2.3-2.3,3.6c0.3,0,0.7-0.1,1.1-0.1h1.6v1h-4.3V-9z"/>
				<path d="M1.9-11.5c0-2.1,0.8-3.3,2.2-3.3s2.2,1.1,2.2,3.3c0,2.1-0.8,3.3-2.2,3.3S1.9-9.4,1.9-11.5z M5.1-11.5
					c0-1.8-0.4-2.4-1.1-2.4c-0.6,0-1.1,0.6-1.1,2.4s0.4,2.4,1.1,2.4C4.7-9.1,5.1-9.7,5.1-11.5z"/>
			</g>
		</g>
		<g transform="translate(0,50.46852122986823)">
			<line class="st0" x1="16.5" y1="-11.5" x2="10.5" y2="-11.5"/>
			<g class="st1">
				<path d="M-2.8-9.8C-2.5-9.4-2-9.1-1.3-9.1c0.7,0,1.2-0.4,1.2-1c0-0.7-0.4-1.1-1.9-1.1V-12c1.2,0,1.7-0.4,1.7-1
					c0-0.5-0.4-0.8-0.9-0.8c-0.5,0-0.9,0.2-1.3,0.6L-3.2-14c0.5-0.5,1.1-0.8,1.9-0.8c1.2,0,2.1,0.6,2.1,1.7c0,0.7-0.4,1.2-1.1,1.5v0
					C0.4-11.4,1-10.9,1-10c0,1.2-1,1.8-2.2,1.8c-1,0-1.7-0.4-2.2-0.9L-2.8-9.8z"/>
				<path d="M1.9-11.5c0-2.1,0.8-3.3,2.2-3.3s2.2,1.1,2.2,3.3c0,2.1-0.8,3.3-2.2,3.3S1.9-9.4,1.9-11.5z M5.1-11.5
					c0-1.8-0.4-2.4-1.1-2.4c-0.6,0-1.1,0.6-1.1,2.4s0.4,2.4,1.1,2.4C4.7-9.1,5.1-9.7,5.1-11.5z"/>
			</g>
		</g>
		<g transform="translate(0,37.2913616398243)">
			<line class="st0" x1="16.5" y1="-11.5" x2="10.5" y2="-11.5"/>
			<g class="st1">
				<path d="M1.2-9.9H0.4v1.6h-1.1v-1.6h-2.8v-0.8l2.5-3.9h1.4v3.8h0.8V-9.9z M-0.6-10.8v-1.4c0-0.4,0-0.9,0-1.3h0
					c-0.2,0.3-0.3,0.6-0.5,1l-1.2,1.8H-0.6z"/>
				<path d="M1.9-11.5c0-2.1,0.8-3.3,2.2-3.3s2.2,1.1,2.2,3.3c0,2.1-0.8,3.3-2.2,3.3S1.9-9.4,1.9-11.5z M5.1-11.5
					c0-1.8-0.4-2.4-1.1-2.4c-0.6,0-1.1,0.6-1.1,2.4s0.4,2.4,1.1,2.4C4.7-9.1,5.1-9.7,5.1-11.5z"/>
			</g>
		</g>
		<g transform="translate(0,24.114202049780378)">
			<line class="st0" x1="16.5" y1="-11.5" x2="10.5" y2="-11.5"/>
			<g class="st1">
				<path d="M-2.9-9.8C-2.5-9.4-2-9.1-1.4-9.1c0.7,0,1.2-0.5,1.2-1.2c0-0.8-0.5-1.2-1.2-1.2c-0.4,0-0.6,0.1-1,0.4l-0.5-0.3l0.2-3.1
					h3.4v1h-2.4l-0.1,1.5c0.3-0.1,0.5-0.2,0.8-0.2c1.1,0,2,0.6,2,2C1-9,0-8.2-1.2-8.2c-1,0-1.7-0.4-2.2-0.9L-2.9-9.8z"/>
				<path d="M1.9-11.5c0-2.1,0.8-3.3,2.2-3.3s2.2,1.1,2.2,3.3c0,2.1-0.8,3.3-2.2,3.3S1.9-9.4,1.9-11.5z M5.1-11.5
					c0-1.8-0.4-2.4-1.1-2.4c-0.6,0-1.1,0.6-1.1,2.4s0.4,2.4,1.1,2.4C4.7-9.1,5.1-9.7,5.1-11.5z"/>
			</g>
		</g>
		<g transform="translate(0,10.937042459736455)">
			<line class="st0" x1="16.5" y1="-11.5" x2="10.5" y2="-11.5"/>
			<g class="st1">
				<path d="M0.4-13.4c-0.2-0.3-0.6-0.5-1-0.5c-0.8,0-1.4,0.6-1.5,2.3c0.4-0.5,0.9-0.7,1.4-0.7c1.1,0,1.9,0.6,1.9,2
					c0,1.3-0.9,2.1-2,2.1c-1.2,0-2.3-1-2.3-3.1c0-2.5,1.2-3.5,2.5-3.5c0.8,0,1.3,0.3,1.7,0.7L0.4-13.4z M0.1-10.3
					c0-0.8-0.4-1.1-1-1.1c-0.4,0-0.8,0.2-1.1,0.7C-2-9.5-1.5-9.1-0.9-9.1C-0.4-9.1,0.1-9.5,0.1-10.3z"/>
				<path d="M1.9-11.5c0-2.1,0.8-3.3,2.2-3.3s2.2,1.1,2.2,3.3c0,2.1-0.8,3.3-2.2,3.3S1.9-9.4,1.9-11.5z M5.1-11.5
					c0-1.8-0.4-2.4-1.1-2.4c-0.6,0-1.1,0.6-1.1,2.4s0.4,2.4,1.1,2.4C4.7-9.1,5.1-9.7,5.1-11.5z"/>
			</g>
		</g>
		<path class="st0" d="M10.5-11.5h6v90h-6"/>
	</g>
	<rect x="18.5" y="57" class="st2" width="138" height="51.5"/>
	<g class="st1">
		<path class="st3" d="M33.6,79.8h-1.9v-1h4.9v1h-1.9v5.6h-1.2V79.8z"/>
		<path class="st3" d="M38.9,80.3c1.3,0,2,1,2,2.3c0,0.2,0,0.4,0,0.5h-3.1c0.1,0.9,0.7,1.4,1.4,1.4c0.4,0,0.8-0.1,1.1-0.4l0.4,0.7
			c-0.5,0.3-1.1,0.5-1.7,0.5c-1.4,0-2.4-0.9-2.4-2.6C36.6,81.3,37.7,80.3,38.9,80.3z M39.9,82.5c0-0.8-0.3-1.2-1-1.2
			c-0.6,0-1.1,0.4-1.2,1.2H39.9z M39,79.6h-0.8l0.9-1.5h1.1L39,79.6z"/>
		<path class="st3" d="M44.2,80.3c0.6,0,1.1,0.3,1.4,0.6L45,81.6c-0.3-0.2-0.5-0.4-0.8-0.4c-0.8,0-1.3,0.6-1.3,1.6
			c0,1,0.5,1.6,1.3,1.6c0.4,0,0.7-0.2,1-0.4l0.5,0.7c-0.5,0.4-1,0.6-1.6,0.6c-1.3,0-2.4-0.9-2.4-2.6C41.7,81.3,42.8,80.3,44.2,80.3z
			"/>
		<path class="st3" d="M46.6,80.4h0.9l0.1,0.7h0c0.4-0.4,0.9-0.8,1.6-0.8c1,0,1.5,0.7,1.5,1.9v3.1h-1.1v-2.9c0-0.8-0.2-1.1-0.8-1.1
			c-0.4,0-0.7,0.2-1.1,0.6v3.4h-1.1V80.4z"/>
		<path class="st3" d="M52.1,78.9c0-0.4,0.3-0.7,0.7-0.7c0.4,0,0.7,0.3,0.7,0.7c0,0.4-0.3,0.6-0.7,0.6
			C52.4,79.6,52.1,79.3,52.1,78.9z M52.2,80.4h1.1v4.9h-1.1V80.4z"/>
		<path class="st3" d="M57,80.3c0.6,0,1.1,0.3,1.4,0.6l-0.5,0.7c-0.3-0.2-0.5-0.4-0.8-0.4c-0.8,0-1.3,0.6-1.3,1.6
			c0,1,0.5,1.6,1.3,1.6c0.4,0,0.7-0.2,1-0.4l0.5,0.7c-0.5,0.4-1,0.6-1.6,0.6c-1.3,0-2.4-0.9-2.4-2.6C54.5,81.3,55.7,80.3,57,80.3z"
			/>
		<path class="st3" d="M61.2,80.3c1.2,0,2.3,0.9,2.3,2.6c0,1.6-1.1,2.6-2.3,2.6c-1.2,0-2.3-0.9-2.3-2.6C58.9,81.3,60,80.3,61.2,80.3
			z M61.2,84.5c0.7,0,1.2-0.6,1.2-1.6c0-1-0.4-1.6-1.2-1.6c-0.7,0-1.1,0.6-1.1,1.6C60.1,83.9,60.5,84.5,61.2,84.5z"/>
		<path class="st3" d="M68.7,80.3c1.3,0,2,1,2,2.3c0,0.2,0,0.4,0,0.5h-3.1c0.1,0.9,0.7,1.4,1.4,1.4c0.4,0,0.8-0.1,1.1-0.4l0.4,0.7
			c-0.5,0.3-1.1,0.5-1.7,0.5c-1.4,0-2.4-0.9-2.4-2.6C66.5,81.3,67.6,80.3,68.7,80.3z M69.7,82.5c0-0.8-0.3-1.2-1-1.2
			c-0.6,0-1.1,0.4-1.2,1.2H69.7z"/>
		<path class="st3" d="M71.8,80.4h0.9l0.1,0.7h0c0.4-0.4,0.9-0.8,1.6-0.8c1,0,1.5,0.7,1.5,1.9v3.1h-1.1v-2.9c0-0.8-0.2-1.1-0.8-1.1
			c-0.4,0-0.7,0.2-1.1,0.6v3.4h-1.1V80.4z"/>
		<path class="st3" d="M79.6,78.8h1.7c2,0,3.2,1.1,3.2,3.2c0,2.2-1.2,3.3-3.1,3.3h-1.8V78.8z M81.2,84.4c1.3,0,2.1-0.8,2.1-2.4
			c0-1.6-0.8-2.3-2.1-2.3h-0.5v4.7H81.2z"/>
		<path class="st3" d="M85.6,78.9c0-0.4,0.3-0.7,0.7-0.7c0.4,0,0.7,0.3,0.7,0.7c0,0.4-0.3,0.6-0.7,0.6
			C85.9,79.6,85.6,79.3,85.6,78.9z M85.7,80.4h1.1v4.9h-1.1V80.4z"/>
		<path class="st3" d="M88.4,84c0.4,0.3,0.9,0.5,1.4,0.5c0.5,0,0.8-0.2,0.8-0.6c0-0.4-0.5-0.6-1-0.8c-0.6-0.2-1.4-0.6-1.4-1.4
			c0-0.9,0.7-1.5,1.8-1.5c0.7,0,1.2,0.3,1.6,0.6L91,81.6c-0.3-0.3-0.7-0.4-1.1-0.4c-0.5,0-0.7,0.2-0.7,0.5c0,0.4,0.5,0.5,1,0.7
			c0.7,0.3,1.4,0.6,1.4,1.5c0,0.8-0.7,1.5-1.9,1.5c-0.7,0-1.4-0.3-1.9-0.7L88.4,84z"/>
		<path class="st3" d="M94.6,80.3c1.3,0,2,1,2,2.3c0,0.2,0,0.4,0,0.5h-3.1c0.1,0.9,0.7,1.4,1.4,1.4c0.4,0,0.8-0.1,1.1-0.4l0.4,0.7
			c-0.5,0.3-1.1,0.5-1.7,0.5c-1.4,0-2.4-0.9-2.4-2.6C92.3,81.3,93.4,80.3,94.6,80.3z M95.6,82.5c0-0.8-0.3-1.2-1-1.2
			c-0.6,0-1.1,0.4-1.2,1.2H95.6z"/>
		<path class="st3" d="M97.7,80.4h0.9l0.1,0.7h0c0.4-0.4,0.9-0.8,1.6-0.8c1,0,1.5,0.7,1.5,1.9v3.1h-1.1v-2.9c0-0.8-0.2-1.1-0.8-1.1
			c-0.4,0-0.7,0.2-1.1,0.6v3.4h-1.1V80.4z M99.4,78.4c0.5,0,0.8,0.5,1.2,0.5c0.2,0,0.3-0.2,0.4-0.5h0.6c-0.1,0.8-0.4,1.2-0.9,1.2
			c-0.5,0-0.8-0.5-1.2-0.5c-0.2,0-0.3,0.1-0.4,0.5h-0.6C98.5,78.8,98.9,78.4,99.4,78.4z"/>
		<path class="st3" d="M105.3,80.3c1.2,0,2.3,0.9,2.3,2.6c0,1.6-1.1,2.6-2.3,2.6c-1.2,0-2.3-0.9-2.3-2.6
			C103,81.3,104.1,80.3,105.3,80.3z M105.3,84.5c0.7,0,1.2-0.6,1.2-1.6c0-1-0.4-1.6-1.2-1.6c-0.7,0-1.1,0.6-1.1,1.6
			C104.2,83.9,104.6,84.5,105.3,84.5z"/>
		<path class="st3" d="M113.7,78.7c0.9,0,1.5,0.4,1.9,0.8l-0.6,0.7c-0.3-0.3-0.7-0.5-1.3-0.5c-1.2,0-1.9,0.9-1.9,2.4
			c0,1.5,0.7,2.4,2,2.4c0.4,0,0.7-0.1,0.9-0.3v-1.4h-1.2v-0.9h2.3v2.9c-0.4,0.4-1.2,0.8-2.1,0.8c-1.7,0-3.1-1.2-3.1-3.4
			C110.6,80,112,78.7,113.7,78.7z"/>
		<path class="st3" d="M117.1,80.4h0.9l0.1,0.9h0c0.4-0.6,0.9-1,1.4-1c0.2,0,0.4,0,0.6,0.1l-0.2,1c-0.2,0-0.3-0.1-0.5-0.1
			c-0.4,0-0.9,0.3-1.2,1v3h-1.1V80.4z"/>
		<path class="st3" d="M123.2,82.2c0-0.5-0.2-1-0.9-1c-0.5,0-0.9,0.2-1.4,0.5l-0.4-0.8c0.5-0.3,1.2-0.6,2-0.6c1.2,0,1.8,0.8,1.8,2.1
			v2.9h-0.9l-0.1-0.5h0c-0.4,0.4-0.9,0.7-1.5,0.7c-0.9,0-1.5-0.6-1.5-1.4C120.4,83,121.2,82.4,123.2,82.2z M122.2,84.6
			c0.4,0,0.7-0.2,1.1-0.5v-1.1c-1.3,0.2-1.8,0.5-1.8,1C121.5,84.4,121.8,84.6,122.2,84.6z M122.7,79.6h-0.9l0.9-1.5h1.1L122.7,79.6z
			"/>
		<path class="st3" d="M128.3,79.2c-0.2-0.1-0.4-0.1-0.5-0.1c-0.4,0-0.6,0.3-0.6,0.8v0.5h1v0.9h-1v4H126v-4h-0.7v-0.9l0.7,0v-0.5
			c0-1,0.5-1.8,1.6-1.8c0.3,0,0.7,0.1,0.9,0.2L128.3,79.2z"/>
		<path class="st3" d="M128.8,78.9c0-0.4,0.3-0.7,0.7-0.7c0.4,0,0.7,0.3,0.7,0.7c0,0.4-0.3,0.6-0.7,0.6
			C129.1,79.6,128.8,79.3,128.8,78.9z M129,80.4h1.1v4.9H129V80.4z"/>
		<path class="st3" d="M133.7,80.3c0.6,0,1.1,0.3,1.4,0.6l-0.5,0.7c-0.3-0.2-0.5-0.4-0.8-0.4c-0.8,0-1.3,0.6-1.3,1.6
			c0,1,0.5,1.6,1.3,1.6c0.4,0,0.7-0.2,1-0.4l0.5,0.7c-0.5,0.4-1,0.6-1.6,0.6c-1.3,0-2.4-0.9-2.4-2.6
			C131.3,81.3,132.4,80.3,133.7,80.3z"/>
		<path class="st3" d="M138,80.3c1.2,0,2.3,0.9,2.3,2.6c0,1.6-1.1,2.6-2.3,2.6c-1.2,0-2.3-0.9-2.3-2.6
			C135.6,81.3,136.8,80.3,138,80.3z M138,84.5c0.7,0,1.2-0.6,1.2-1.6c0-1-0.4-1.6-1.2-1.6c-0.7,0-1.1,0.6-1.1,1.6
			C136.8,83.9,137.3,84.5,138,84.5z"/>
	</g>
	<g class="st1">
		<path d="M-49.7,4.7c0-1.3,0.6-2.1,1.6-2.1s1.6,0.7,1.6,2.1c0,1.3-0.6,2.1-1.6,2.1S-49.7,6.1-49.7,4.7z M-47.4,4.7
			c0-1-0.3-1.4-0.7-1.4c-0.4,0-0.7,0.4-0.7,1.4s0.3,1.4,0.7,1.4C-47.7,6.2-47.4,5.7-47.4,4.7z M-47.9,9.5l3.6-6.8h0.7l-3.6,6.8
			H-47.9z M-45,7.4c0-1.3,0.6-2.1,1.6-2.1s1.6,0.7,1.6,2.1c0,1.3-0.6,2.1-1.6,2.1S-45,8.7-45,7.4z M-42.7,7.4c0-1-0.3-1.4-0.7-1.4
			s-0.7,0.4-0.7,1.4s0.3,1.4,0.7,1.4S-42.7,8.4-42.7,7.4z"/>
		<path d="M-36.1,6.2c0-0.5-0.2-1-0.9-1c-0.5,0-0.9,0.2-1.4,0.5L-38.8,5c0.5-0.3,1.2-0.6,2-0.6c1.2,0,1.8,0.8,1.8,2.1v2.9h-0.9
			L-36,8.8h0c-0.4,0.4-0.9,0.7-1.5,0.7C-38.4,9.5-39,8.9-39,8C-39,7-38.1,6.4-36.1,6.2z M-37.2,8.6c0.4,0,0.7-0.2,1.1-0.5V6.9
			c-1.3,0.2-1.8,0.5-1.8,1C-37.9,8.4-37.6,8.6-37.2,8.6z"/>
		<path d="M-33.6,2.3h1.1v5.9c0,0.3,0.1,0.4,0.3,0.4c0,0,0.1,0,0.2,0l0.1,0.9c-0.1,0.1-0.3,0.1-0.6,0.1c-0.8,0-1.1-0.5-1.1-1.4V2.3z
			"/>
		<path d="M-27.7,9.7v1.5h-1.1V4.4h0.9l0.1,0.5h0c0.4-0.3,0.9-0.6,1.5-0.6c1.2,0,1.9,1,1.9,2.5c0,1.7-1,2.6-2.1,2.6
			c-0.4,0-0.9-0.2-1.3-0.5L-27.7,9.7z M-26.7,8.5c0.6,0,1.1-0.6,1.1-1.7c0-1-0.3-1.6-1.1-1.6c-0.4,0-0.7,0.2-1.1,0.5v2.3
			C-27.3,8.4-27,8.5-26.7,8.5z"/>
		<path d="M-23.2,4.4h0.9l0.1,0.9h0c0.4-0.6,0.9-1,1.4-1c0.2,0,0.4,0,0.6,0.1l-0.2,1c-0.2,0-0.3-0.1-0.5-0.1c-0.4,0-0.9,0.3-1.2,1v3
			h-1.1V4.4z"/>
		<path d="M-19.6,2.9c0-0.4,0.3-0.7,0.7-0.7c0.4,0,0.7,0.3,0.7,0.7c0,0.4-0.3,0.6-0.7,0.6C-19.3,3.6-19.6,3.3-19.6,2.9z M-19.5,4.4
			h1.1v4.9h-1.1V4.4z"/>
		<path d="M-16.8,4.4h0.9l0.1,0.7h0c0.4-0.4,0.9-0.8,1.5-0.8c0.7,0,1.1,0.3,1.4,0.9c0.5-0.5,1-0.9,1.6-0.9c1,0,1.5,0.7,1.5,1.9v3.1
			H-11V6.4c0-0.8-0.2-1.1-0.7-1.1c-0.3,0-0.6,0.2-1,0.6v3.4h-1.1V6.4c0-0.8-0.2-1.1-0.8-1.1c-0.3,0-0.6,0.2-1,0.6v3.4h-1.1V4.4z"/>
		<path d="M-6.5,4.3c1.3,0,2,1,2,2.3c0,0.2,0,0.4,0,0.5h-3.1c0.1,0.9,0.7,1.4,1.4,1.4c0.4,0,0.8-0.1,1.1-0.4l0.4,0.7
			c-0.5,0.3-1.1,0.5-1.7,0.5c-1.4,0-2.4-0.9-2.4-2.6C-8.7,5.3-7.6,4.3-6.5,4.3z M-5.4,6.5c0-0.8-0.3-1.2-1-1.2
			c-0.6,0-1.1,0.4-1.2,1.2H-5.4z"/>
		<path d="M-3.3,4.4h0.9l0.1,0.9h0c0.4-0.6,0.9-1,1.4-1c0.2,0,0.4,0,0.6,0.1l-0.2,1c-0.2,0-0.3-0.1-0.5-0.1c-0.4,0-0.9,0.3-1.2,1v3
			h-1.1V4.4z"/>
		<path d="M5.1,6.2c0-0.5-0.2-1-0.9-1c-0.5,0-0.9,0.2-1.4,0.5L2.4,5c0.5-0.3,1.2-0.6,2-0.6c1.2,0,1.8,0.8,1.8,2.1v2.9H5.3L5.2,8.8h0
			C4.8,9.2,4.3,9.5,3.7,9.5C2.8,9.5,2.2,8.9,2.2,8C2.2,7,3.1,6.4,5.1,6.2z M4.1,8.6c0.4,0,0.7-0.2,1.1-0.5V6.9
			c-1.3,0.2-1.8,0.5-1.8,1C3.4,8.4,3.6,8.6,4.1,8.6z"/>
		<path d="M7.7,4.4h0.9l0.1,0.7h0c0.4-0.4,0.9-0.8,1.6-0.8c1,0,1.5,0.7,1.5,1.9v3.1h-1.1V6.4c0-0.8-0.2-1.1-0.8-1.1
			c-0.4,0-0.7,0.2-1.1,0.6v3.4H7.7V4.4z M9.3,2.4c0.5,0,0.8,0.5,1.2,0.5c0.2,0,0.3-0.2,0.4-0.5h0.6c-0.1,0.8-0.4,1.2-0.9,1.2
			c-0.5,0-0.8-0.5-1.2-0.5C9.2,3.1,9.1,3.2,9,3.6H8.4C8.5,2.8,8.8,2.4,9.3,2.4z"/>
		<path d="M15.3,4.3c1.2,0,2.3,0.9,2.3,2.6c0,1.6-1.1,2.6-2.3,2.6c-1.2,0-2.3-0.9-2.3-2.6C13,5.3,14.1,4.3,15.3,4.3z M15.3,8.5
			c0.7,0,1.2-0.6,1.2-1.6c0-1-0.4-1.6-1.2-1.6c-0.7,0-1.1,0.6-1.1,1.6C14.1,7.9,14.6,8.5,15.3,8.5z"/>
	</g>
</g>
<g transform="translate(50,120)">
	<g transform="translate(0,30)">
		<g transform="translate(0,90)">
			<line class="st0" x1="16.5" y1="-11.5" x2="10.5" y2="-11.5"/>
			<g class="st1">
				<path d="M2.3-11.5c0-2.1,0.8-3.3,2.2-3.3s2.2,1.1,2.2,3.3c0,2.1-0.8,3.3-2.2,3.3S2.3-9.4,2.3-11.5z M5.6-11.5
					c0-1.8-0.4-2.4-1.1-2.4c-0.6,0-1.1,0.6-1.1,2.4s0.4,2.4,1.1,2.4C5.1-9.1,5.6-9.7,5.6-11.5z"/>
			</g>
		</g>
		<g transform="translate(0,76.82284040995607)">
			<line class="st0" x1="16.5" y1="-11.5" x2="10.5" y2="-11.5"/>
			<g class="st1">
				<path d="M-2.9-9.2h1.4v-4.2h-1.2v-0.7c0.6-0.1,1.1-0.3,1.5-0.5h0.9v5.4h1.2v0.9h-3.8V-9.2z"/>
				<path d="M1.9-11.5c0-2.1,0.8-3.3,2.2-3.3s2.2,1.1,2.2,3.3c0,2.1-0.8,3.3-2.2,3.3S1.9-9.4,1.9-11.5z M5.1-11.5
					c0-1.8-0.4-2.4-1.1-2.4c-0.6,0-1.1,0.6-1.1,2.4s0.4,2.4,1.1,2.4C4.7-9.1,5.1-9.7,5.1-11.5z"/>
			</g>
		</g>
		<g transform="translate(0,63.64568081991215)">
			<line class="st0" x1="16.5" y1="-11.5" x2="10.5" y2="-11.5"/>
			<g class="st1">
				<path d="M-3.2-9c1.8-1.7,2.9-2.8,2.9-3.8c0-0.7-0.4-1.1-1-1.1c-0.5,0-0.9,0.3-1.2,0.7l-0.6-0.6c0.6-0.6,1.2-1,2-1
					c1.2,0,2,0.8,2,1.9c0,1.1-1,2.3-2.3,3.6c0.3,0,0.7-0.1,1.1-0.1h1.6v1h-4.3V-9z"/>
				<path d="M1.9-11.5c0-2.1,0.8-3.3,2.2-3.3s2.2,1.1,2.2,3.3c0,2.1-0.8,3.3-2.2,3.3S1.9-9.4,1.9-11.5z M5.1-11.5
					c0-1.8-0.4-2.4-1.1-2.4c-0.6,0-1.1,0.6-1.1,2.4s0.4,2.4,1.1,2.4C4.7-9.1,5.1-9.7,5.1-11.5z"/>
			</g>
		</g>
		<g transform="translate(0,50.46852122986823)">
			<line class="st0" x1="16.5" y1="-11.5" x2="10.5" y2="-11.5"/>
			<g class="st1">
				<path d="M-2.8-9.8C-2.5-9.4-2-9.1-1.3-9.1c0.7,0,1.2-0.4,1.2-1c0-0.7-0.4-1.1-1.9-1.1V-12c1.2,0,1.7-0.4,1.7-1
					c0-0.5-0.4-0.8-0.9-0.8c-0.5,0-0.9,0.2-1.3,0.6L-3.2-14c0.5-0.5,1.1-0.8,1.9-0.8c1.2,0,2.1,0.6,2.1,1.7c0,0.7-0.4,1.2-1.1,1.5v0
					C0.4-11.4,1-10.9,1-10c0,1.2-1,1.8-2.2,1.8c-1,0-1.7-0.4-2.2-0.9L-2.8-9.8z"/>
				<path d="M1.9-11.5c0-2.1,0.8-3.3,2.2-3.3s2.2,1.1,2.2,3.3c0,2.1-0.8,3.3-2.2,3.3S1.9-9.4,1.9-11.5z M5.1-11.5
					c0-1.8-0.4-2.4-1.1-2.4c-0.6,0-1.1,0.6-1.1,2.4s0.4,2.4,1.1,2.4C4.7-9.1,5.1-9.7,5.1-11.5z"/>
			</g>
		</g>
		<g transform="translate(0,37.2913616398243)">
			<line class="st0" x1="16.5" y1="-11.5" x2="10.5" y2="-11.5"/>
			<g class="st1">
				<path d="M1.2-9.9H0.4v1.6h-1.1v-1.6h-2.8v-0.8l2.5-3.9h1.4v3.8h0.8V-9.9z M-0.6-10.8v-1.4c0-0.4,0-0.9,0-1.3h0
					c-0.2,0.3-0.3,0.6-0.5,1l-1.2,1.8H-0.6z"/>
				<path d="M1.9-11.5c0-2.1,0.8-3.3,2.2-3.3s2.2,1.1,2.2,3.3c0,2.1-0.8,3.3-2.2,3.3S1.9-9.4,1.9-11.5z M5.1-11.5
					c0-1.8-0.4-2.4-1.1-2.4c-0.6,0-1.1,0.6-1.1,2.4s0.4,2.4,1.1,2.4C4.7-9.1,5.1-9.7,5.1-11.5z"/>
			</g>
		</g>
		<g transform="translate(0,24.114202049780378)">
			<line class="st0" x1="16.5" y1="-11.5" x2="10.5" y2="-11.5"/>
			<g class="st1">
				<path d="M-2.9-9.8C-2.5-9.4-2-9.1-1.4-9.1c0.7,0,1.2-0.5,1.2-1.2c0-0.8-0.5-1.2-1.2-1.2c-0.4,0-0.6,0.1-1,0.4l-0.5-0.3l0.2-3.1
					h3.4v1h-2.4l-0.1,1.5c0.3-0.1,0.5-0.2,0.8-0.2c1.1,0,2,0.6,2,2C1-9,0-8.2-1.2-8.2c-1,0-1.7-0.4-2.2-0.9L-2.9-9.8z"/>
				<path d="M1.9-11.5c0-2.1,0.8-3.3,2.2-3.3s2.2,1.1,2.2,3.3c0,2.1-0.8,3.3-2.2,3.3S1.9-9.4,1.9-11.5z M5.1-11.5
					c0-1.8-0.4-2.4-1.1-2.4c-0.6,0-1.1,0.6-1.1,2.4s0.4,2.4,1.1,2.4C4.7-9.1,5.1-9.7,5.1-11.5z"/>
			</g>
		</g>
		<g transform="translate(0,10.937042459736455)">
			<line class="st0" x1="16.5" y1="-11.5" x2="10.5" y2="-11.5"/>
			<g class="st1">
				<path d="M0.4-13.4c-0.2-0.3-0.6-0.5-1-0.5c-0.8,0-1.4,0.6-1.5,2.3c0.4-0.5,0.9-0.7,1.4-0.7c1.1,0,1.9,0.6,1.9,2
					c0,1.3-0.9,2.1-2,2.1c-1.2,0-2.3-1-2.3-3.1c0-2.5,1.2-3.5,2.5-3.5c0.8,0,1.3,0.3,1.7,0.7L0.4-13.4z M0.1-10.3
					c0-0.8-0.4-1.1-1-1.1c-0.4,0-0.8,0.2-1.1,0.7C-2-9.5-1.5-9.1-0.9-9.1C-0.4-9.1,0.1-9.5,0.1-10.3z"/>
				<path d="M1.9-11.5c0-2.1,0.8-3.3,2.2-3.3s2.2,1.1,2.2,3.3c0,2.1-0.8,3.3-2.2,3.3S1.9-9.4,1.9-11.5z M5.1-11.5
					c0-1.8-0.4-2.4-1.1-2.4c-0.6,0-1.1,0.6-1.1,2.4s0.4,2.4,1.1,2.4C4.7-9.1,5.1-9.7,5.1-11.5z"/>
			</g>
		</g>
		<path class="st0" d="M10.5-11.5h6v90h-6"/>
	</g>
	<rect x="171.5" y="34.3" class="st4" width="138" height="74.2"/>
	<g class="st1">
		<path class="st3" d="M199.3,69.6h1.7c2,0,3.2,1.1,3.2,3.2c0,2.2-1.2,3.3-3.1,3.3h-1.8V69.6z M201,75.2c1.3,0,2.1-0.8,2.1-2.4
			c0-1.6-0.8-2.3-2.1-2.3h-0.5v4.7H201z"/>
		<path class="st3" d="M205.3,69.8c0-0.4,0.3-0.7,0.7-0.7c0.4,0,0.7,0.3,0.7,0.7c0,0.4-0.3,0.6-0.7,0.6
			C205.6,70.4,205.3,70.1,205.3,69.8z M205.5,71.3h1.1v4.9h-1.1V71.3z"/>
		<path class="st3" d="M208.1,74.9c0.4,0.3,0.9,0.5,1.4,0.5c0.5,0,0.8-0.2,0.8-0.6c0-0.4-0.5-0.6-1-0.8c-0.6-0.2-1.4-0.6-1.4-1.4
			c0-0.9,0.7-1.5,1.8-1.5c0.7,0,1.2,0.3,1.6,0.6l-0.5,0.7c-0.3-0.3-0.7-0.4-1.1-0.4c-0.5,0-0.7,0.2-0.7,0.5c0,0.4,0.5,0.5,1,0.7
			c0.7,0.3,1.4,0.6,1.4,1.5c0,0.8-0.7,1.5-1.9,1.5c-0.7,0-1.4-0.3-1.9-0.7L208.1,74.9z"/>
		<path class="st3" d="M214.3,71.1c1.3,0,2,1,2,2.3c0,0.2,0,0.4,0,0.5h-3.1c0.1,0.9,0.7,1.4,1.4,1.4c0.4,0,0.8-0.1,1.1-0.4l0.4,0.7
			c-0.5,0.3-1.1,0.5-1.7,0.5c-1.4,0-2.4-0.9-2.4-2.6C212.1,72.1,213.2,71.1,214.3,71.1z M215.4,73.3c0-0.8-0.3-1.2-1-1.2
			c-0.6,0-1.1,0.4-1.2,1.2H215.4z"/>
		<path class="st3" d="M217.5,71.3h0.9l0.1,0.7h0c0.4-0.4,0.9-0.8,1.6-0.8c1,0,1.5,0.7,1.5,1.9v3.1h-1.1v-2.9c0-0.8-0.2-1.1-0.8-1.1
			c-0.4,0-0.7,0.2-1.1,0.6v3.4h-1.1V71.3z M219.1,69.2c0.5,0,0.8,0.5,1.2,0.5c0.2,0,0.3-0.2,0.4-0.5h0.6c-0.1,0.8-0.4,1.2-0.9,1.2
			c-0.5,0-0.8-0.5-1.2-0.5c-0.2,0-0.3,0.1-0.4,0.5h-0.6C218.3,69.6,218.6,69.2,219.1,69.2z"/>
		<path class="st3" d="M225.1,71.1c1.2,0,2.3,0.9,2.3,2.6c0,1.6-1.1,2.6-2.3,2.6c-1.2,0-2.3-0.9-2.3-2.6
			C222.7,72.1,223.8,71.1,225.1,71.1z M225.1,75.3c0.7,0,1.2-0.6,1.2-1.6c0-1-0.4-1.6-1.2-1.6c-0.7,0-1.1,0.6-1.1,1.6
			C223.9,74.7,224.3,75.3,225.1,75.3z"/>
		<path class="st3" d="M232.4,71.1c0.6,0,0.9,0.2,1.3,0.5l0-0.8v-1.8h1.1v7.1h-0.9l-0.1-0.5h0c-0.4,0.4-0.9,0.6-1.4,0.6
			c-1.2,0-2-0.9-2-2.6C230.3,72.1,231.3,71.1,232.4,71.1z M232.6,75.3c0.4,0,0.7-0.2,1-0.5v-2.3c-0.3-0.3-0.7-0.4-1-0.4
			c-0.6,0-1.1,0.6-1.1,1.6C231.5,74.8,231.9,75.3,232.6,75.3z"/>
		<path class="st3" d="M238.2,71.1c1.3,0,2,1,2,2.3c0,0.2,0,0.4,0,0.5H237c0.1,0.9,0.7,1.4,1.4,1.4c0.4,0,0.8-0.1,1.1-0.4l0.4,0.7
			c-0.5,0.3-1.1,0.5-1.7,0.5c-1.4,0-2.4-0.9-2.4-2.6C235.9,72.1,237,71.1,238.2,71.1z M239.2,73.3c0-0.8-0.3-1.2-1-1.2
			c-0.6,0-1.1,0.4-1.2,1.2H239.2z"/>
		<path class="st3" d="M242.6,69.6h1.2l0.9,3.3c0.2,0.7,0.4,1.4,0.6,2.1h0c0.2-0.8,0.4-1.4,0.6-2.1l0.9-3.3h1.2l-2,6.5h-1.4
			L242.6,69.6z"/>
		<path class="st3" d="M250.5,71.1c1.3,0,2,1,2,2.3c0,0.2,0,0.4,0,0.5h-3.1c0.1,0.9,0.7,1.4,1.4,1.4c0.4,0,0.8-0.1,1.1-0.4l0.4,0.7
			c-0.5,0.3-1.1,0.5-1.7,0.5c-1.4,0-2.4-0.9-2.4-2.6C248.2,72.1,249.3,71.1,250.5,71.1z M251.5,73.3c0-0.8-0.3-1.2-1-1.2
			c-0.6,0-1.1,0.4-1.2,1.2H251.5z"/>
		<path class="st3" d="M253.6,74.9c0.4,0.3,0.9,0.5,1.4,0.5c0.5,0,0.8-0.2,0.8-0.6c0-0.4-0.5-0.6-1-0.8c-0.6-0.2-1.4-0.6-1.4-1.4
			c0-0.9,0.7-1.5,1.8-1.5c0.7,0,1.2,0.3,1.6,0.6l-0.5,0.7c-0.3-0.3-0.7-0.4-1.1-0.4c-0.5,0-0.7,0.2-0.7,0.5c0,0.4,0.5,0.5,1,0.7
			c0.7,0.3,1.4,0.6,1.4,1.5c0,0.8-0.7,1.5-1.9,1.5c-0.7,0-1.4-0.3-1.9-0.7L253.6,74.9z"/>
		<path class="st3" d="M258.1,72.2h-0.7v-0.9l0.8,0l0.1-1.3h1v1.3h1.2v0.9h-1.2v2.3c0,0.6,0.2,0.9,0.7,0.9c0.2,0,0.4,0,0.5-0.1
			l0.2,0.8c-0.3,0.1-0.6,0.2-1,0.2c-1.1,0-1.6-0.7-1.6-1.8V72.2z"/>
		<path class="st3" d="M261.4,71.3h1.1v2.9c0,0.8,0.2,1.1,0.8,1.1c0.4,0,0.7-0.2,1.1-0.7v-3.4h1.1v4.9h-0.9l-0.1-0.7h0
			c-0.4,0.5-0.9,0.8-1.6,0.8c-1,0-1.5-0.7-1.5-1.9V71.3z"/>
		<path class="st3" d="M269.7,73c0-0.5-0.2-1-0.9-1c-0.5,0-0.9,0.2-1.4,0.5l-0.4-0.8c0.5-0.3,1.2-0.6,2-0.6c1.2,0,1.8,0.8,1.8,2.1
			v2.9h-0.9l-0.1-0.5h0c-0.4,0.4-0.9,0.7-1.5,0.7c-0.9,0-1.5-0.6-1.5-1.4C266.8,73.8,267.7,73.3,269.7,73z M268.6,75.4
			c0.4,0,0.7-0.2,1.1-0.5v-1.1c-1.3,0.2-1.8,0.5-1.8,1C267.9,75.2,268.2,75.4,268.6,75.4z"/>
		<path class="st3" d="M272.3,71.3h0.9l0.1,0.9h0c0.4-0.6,0.9-1,1.4-1c0.2,0,0.4,0,0.6,0.1l-0.2,1c-0.2,0-0.3-0.1-0.5-0.1
			c-0.4,0-0.9,0.3-1.2,1v3h-1.1V71.3z"/>
		<path class="st3" d="M275.9,69.8c0-0.4,0.3-0.7,0.7-0.7c0.4,0,0.7,0.3,0.7,0.7c0,0.4-0.3,0.6-0.7,0.6
			C276.2,70.4,275.9,70.1,275.9,69.8z M276,71.3h1.1v4.9H276V71.3z"/>
		<path class="st3" d="M280.6,71.1c1.2,0,2.3,0.9,2.3,2.6c0,1.6-1.1,2.6-2.3,2.6c-1.2,0-2.3-0.9-2.3-2.6
			C278.3,72.1,279.4,71.1,280.6,71.1z M280.6,75.3c0.7,0,1.2-0.6,1.2-1.6c0-1-0.4-1.6-1.2-1.6c-0.7,0-1.1,0.6-1.1,1.6
			C279.5,74.7,279.9,75.3,280.6,75.3z"/>
	</g>
</g>
<g transform="translate(50,240)">
	<g transform="translate(0,30)">
		<g transform="translate(0,90)">
			<line class="st0" x1="16.5" y1="-11.5" x2="10.5" y2="-11.5"/>
			<g class="st1">
				<path d="M2.3-11.5c0-2.1,0.8-3.3,2.2-3.3s2.2,1.1,2.2,3.3c0,2.1-0.8,3.3-2.2,3.3S2.3-9.4,2.3-11.5z M5.6-11.5
					c0-1.8-0.4-2.4-1.1-2.4c-0.6,0-1.1,0.6-1.1,2.4s0.4,2.4,1.1,2.4C5.1-9.1,5.6-9.7,5.6-11.5z"/>
			</g>
		</g>
		<g transform="translate(0,76.82284040995607)">
			<line class="st0" x1="16.5" y1="-11.5" x2="10.5" y2="-11.5"/>
			<g class="st1">
				<path d="M-2.9-9.2h1.4v-4.2h-1.2v-0.7c0.6-0.1,1.1-0.3,1.5-0.5h0.9v5.4h1.2v0.9h-3.8V-9.2z"/>
				<path d="M1.9-11.5c0-2.1,0.8-3.3,2.2-3.3s2.2,1.1,2.2,3.3c0,2.1-0.8,3.3-2.2,3.3S1.9-9.4,1.9-11.5z M5.1-11.5
					c0-1.8-0.4-2.4-1.1-2.4c-0.6,0-1.1,0.6-1.1,2.4s0.4,2.4,1.1,2.4C4.7-9.1,5.1-9.7,5.1-11.5z"/>
			</g>
		</g>
		<g transform="translate(0,63.64568081991215)">
			<line class="st0" x1="16.5" y1="-11.5" x2="10.5" y2="-11.5"/>
			<g class="st1">
				<path d="M-3.2-9c1.8-1.7,2.9-2.8,2.9-3.8c0-0.7-0.4-1.1-1-1.1c-0.5,0-0.9,0.3-1.2,0.7l-0.6-0.6c0.6-0.6,1.2-1,2-1
					c1.2,0,2,0.8,2,1.9c0,1.1-1,2.3-2.3,3.6c0.3,0,0.7-0.1,1.1-0.1h1.6v1h-4.3V-9z"/>
				<path d="M1.9-11.5c0-2.1,0.8-3.3,2.2-3.3s2.2,1.1,2.2,3.3c0,2.1-0.8,3.3-2.2,3.3S1.9-9.4,1.9-11.5z M5.1-11.5
					c0-1.8-0.4-2.4-1.1-2.4c-0.6,0-1.1,0.6-1.1,2.4s0.4,2.4,1.1,2.4C4.7-9.1,5.1-9.7,5.1-11.5z"/>
			</g>
		</g>
		<g transform="translate(0,50.46852122986823)">
			<line class="st0" x1="16.5" y1="-11.5" x2="10.5" y2="-11.5"/>
			<g class="st1">
				<path d="M-2.8-9.8C-2.5-9.4-2-9.1-1.3-9.1c0.7,0,1.2-0.4,1.2-1c0-0.7-0.4-1.1-1.9-1.1V-12c1.2,0,1.7-0.4,1.7-1
					c0-0.5-0.4-0.8-0.9-0.8c-0.5,0-0.9,0.2-1.3,0.6L-3.2-14c0.5-0.5,1.1-0.8,1.9-0.8c1.2,0,2.1,0.6,2.1,1.7c0,0.7-0.4,1.2-1.1,1.5v0
					C0.4-11.4,1-10.9,1-10c0,1.2-1,1.8-2.2,1.8c-1,0-1.7-0.4-2.2-0.9L-2.8-9.8z"/>
				<path d="M1.9-11.5c0-2.1,0.8-3.3,2.2-3.3s2.2,1.1,2.2,3.3c0,2.1-0.8,3.3-2.2,3.3S1.9-9.4,1.9-11.5z M5.1-11.5
					c0-1.8-0.4-2.4-1.1-2.4c-0.6,0-1.1,0.6-1.1,2.4s0.4,2.4,1.1,2.4C4.7-9.1,5.1-9.7,5.1-11.5z"/>
			</g>
		</g>
		<g transform="translate(0,37.2913616398243)">
			<line class="st0" x1="16.5" y1="-11.5" x2="10.5" y2="-11.5"/>
			<g class="st1">
				<path d="M1.2-9.9H0.4v1.6h-1.1v-1.6h-2.8v-0.8l2.5-3.9h1.4v3.8h0.8V-9.9z M-0.6-10.8v-1.4c0-0.4,0-0.9,0-1.3h0
					c-0.2,0.3-0.3,0.6-0.5,1l-1.2,1.8H-0.6z"/>
				<path d="M1.9-11.5c0-2.1,0.8-3.3,2.2-3.3s2.2,1.1,2.2,3.3c0,2.1-0.8,3.3-2.2,3.3S1.9-9.4,1.9-11.5z M5.1-11.5
					c0-1.8-0.4-2.4-1.1-2.4c-0.6,0-1.1,0.6-1.1,2.4s0.4,2.4,1.1,2.4C4.7-9.1,5.1-9.7,5.1-11.5z"/>
			</g>
		</g>
		<g transform="translate(0,24.114202049780378)">
			<line class="st0" x1="16.5" y1="-11.5" x2="10.5" y2="-11.5"/>
			<g class="st1">
				<path d="M-2.9-9.8C-2.5-9.4-2-9.1-1.4-9.1c0.7,0,1.2-0.5,1.2-1.2c0-0.8-0.5-1.2-1.2-1.2c-0.4,0-0.6,0.1-1,0.4l-0.5-0.3l0.2-3.1
					h3.4v1h-2.4l-0.1,1.5c0.3-0.1,0.5-0.2,0.8-0.2c1.1,0,2,0.6,2,2C1-9,0-8.2-1.2-8.2c-1,0-1.7-0.4-2.2-0.9L-2.9-9.8z"/>
				<path d="M1.9-11.5c0-2.1,0.8-3.3,2.2-3.3s2.2,1.1,2.2,3.3c0,2.1-0.8,3.3-2.2,3.3S1.9-9.4,1.9-11.5z M5.1-11.5
					c0-1.8-0.4-2.4-1.1-2.4c-0.6,0-1.1,0.6-1.1,2.4s0.4,2.4,1.1,2.4C4.7-9.1,5.1-9.7,5.1-11.5z"/>
			</g>
		</g>
		<g transform="translate(0,10.937042459736455)">
			<line class="st0" x1="16.5" y1="-11.5" x2="10.5" y2="-11.5"/>
			<g class="st1">
				<path d="M0.4-13.4c-0.2-0.3-0.6-0.5-1-0.5c-0.8,0-1.4,0.6-1.5,2.3c0.4-0.5,0.9-0.7,1.4-0.7c1.1,0,1.9,0.6,1.9,2
					c0,1.3-0.9,2.1-2,2.1c-1.2,0-2.3-1-2.3-3.1c0-2.5,1.2-3.5,2.5-3.5c0.8,0,1.3,0.3,1.7,0.7L0.4-13.4z M0.1-10.3
					c0-0.8-0.4-1.1-1-1.1c-0.4,0-0.8,0.2-1.1,0.7C-2-9.5-1.5-9.1-0.9-9.1C-0.4-9.1,0.1-9.5,0.1-10.3z"/>
				<path d="M1.9-11.5c0-2.1,0.8-3.3,2.2-3.3s2.2,1.1,2.2,3.3c0,2.1-0.8,3.3-2.2,3.3S1.9-9.4,1.9-11.5z M5.1-11.5
					c0-1.8-0.4-2.4-1.1-2.4c-0.6,0-1.1,0.6-1.1,2.4s0.4,2.4,1.1,2.4C4.7-9.1,5.1-9.7,5.1-11.5z"/>
			</g>
		</g>
		<path class="st0" d="M10.5-11.5h6v90h-6"/>
	</g>
	<rect x="324.5" y="28.6" class="st5" width="138" height="79.9"/>
	<g class="st1">
		<path class="st3" d="M364.3,65.6h1.7c2,0,3.2,1.1,3.2,3.2c0,2.2-1.2,3.3-3.1,3.3h-1.8V65.6z M366,71.2c1.3,0,2.1-0.8,2.1-2.4
			c0-1.6-0.8-2.3-2.1-2.3h-0.5v4.7H366z"/>
		<path class="st3" d="M370.3,65.8c0-0.4,0.3-0.7,0.7-0.7s0.7,0.3,0.7,0.7c0,0.4-0.3,0.6-0.7,0.6S370.3,66.1,370.3,65.8z
			 M370.5,67.3h1.2v4.9h-1.2V67.3z"/>
		<path class="st3" d="M373.1,70.9c0.4,0.3,0.9,0.5,1.4,0.5c0.5,0,0.8-0.2,0.8-0.6c0-0.4-0.5-0.6-1-0.8c-0.7-0.2-1.4-0.6-1.4-1.4
			c0-0.9,0.7-1.5,1.8-1.5c0.7,0,1.2,0.3,1.6,0.6l-0.5,0.7c-0.3-0.3-0.7-0.4-1.1-0.4c-0.5,0-0.7,0.2-0.7,0.5c0,0.4,0.5,0.5,1,0.7
			c0.7,0.3,1.4,0.6,1.4,1.5c0,0.8-0.7,1.5-1.9,1.5c-0.7,0-1.4-0.3-1.9-0.7L373.1,70.9z"/>
		<path class="st3" d="M379.3,67.1c1.3,0,2,1,2,2.3c0,0.2,0,0.4-0.1,0.5h-3.1c0.1,0.9,0.7,1.4,1.4,1.4c0.4,0,0.8-0.1,1.1-0.4
			l0.4,0.7c-0.5,0.3-1.1,0.5-1.7,0.5c-1.4,0-2.4-0.9-2.4-2.6C377.1,68.1,378.2,67.1,379.3,67.1z M380.4,69.3c0-0.8-0.3-1.2-1-1.2
			c-0.6,0-1.1,0.4-1.2,1.2H380.4z"/>
		<path class="st3" d="M382.5,67.3h0.9l0.1,0.7h0c0.4-0.4,0.9-0.8,1.6-0.8c1,0,1.5,0.7,1.5,1.9v3.1h-1.1v-2.9c0-0.8-0.2-1.1-0.8-1.1
			c-0.4,0-0.7,0.2-1.1,0.6v3.4h-1.1V67.3z M384.1,65.2c0.5,0,0.8,0.5,1.2,0.5c0.2,0,0.3-0.2,0.4-0.5h0.6c-0.1,0.8-0.4,1.2-0.9,1.2
			c-0.5,0-0.8-0.5-1.2-0.5c-0.2,0-0.3,0.1-0.4,0.5h-0.6C383.3,65.6,383.6,65.2,384.1,65.2z"/>
		<path class="st3" d="M390.1,67.1c1.2,0,2.3,0.9,2.3,2.6c0,1.6-1.1,2.6-2.3,2.6c-1.2,0-2.3-0.9-2.3-2.6
			C387.7,68.1,388.8,67.1,390.1,67.1z M390.1,71.3c0.7,0,1.2-0.6,1.2-1.6c0-1-0.4-1.6-1.2-1.6c-0.7,0-1.1,0.6-1.1,1.6
			C388.9,70.7,389.3,71.3,390.1,71.3z"/>
		<path class="st3" d="M398.5,65.5c0.9,0,1.5,0.4,1.9,0.8l-0.6,0.7c-0.3-0.3-0.7-0.5-1.3-0.5c-1.2,0-1.9,0.9-1.9,2.4
			c0,1.5,0.7,2.4,2,2.4c0.4,0,0.7-0.1,0.9-0.3v-1.4h-1.2v-0.9h2.3v2.9c-0.4,0.4-1.2,0.8-2.1,0.8c-1.7,0-3.1-1.2-3.1-3.4
			C395.3,66.8,396.7,65.5,398.5,65.5z"/>
		<path class="st3" d="M401.8,67.3h1l0.1,0.9h0c0.3-0.6,0.9-1,1.4-1c0.2,0,0.4,0,0.6,0.1l-0.2,1c-0.2,0-0.3-0.1-0.5-0.1
			c-0.4,0-0.9,0.3-1.2,1v3h-1.1V67.3z"/>
		<path class="st3" d="M408,69c0-0.5-0.2-1-0.9-1c-0.5,0-0.9,0.2-1.4,0.5l-0.4-0.8c0.5-0.3,1.2-0.6,2-0.6c1.2,0,1.8,0.8,1.8,2.1v2.9
			h-0.9l-0.1-0.5h0c-0.4,0.4-0.9,0.7-1.5,0.7c-0.9,0-1.5-0.6-1.5-1.4C405.1,69.8,406,69.3,408,69z M406.9,71.4
			c0.4,0,0.7-0.2,1.1-0.5v-1.1c-1.3,0.2-1.8,0.5-1.8,1C406.2,71.2,406.5,71.4,406.9,71.4z M407.4,66.4h-0.9l0.9-1.5h1.1L407.4,66.4z
			"/>
		<path class="st3" d="M413,66c-0.2-0.1-0.4-0.1-0.5-0.1c-0.4,0-0.6,0.3-0.6,0.8v0.5h1v0.9h-1v4h-1.1v-4h-0.7v-0.9l0.7,0v-0.5
			c0-1,0.5-1.8,1.6-1.8c0.3,0,0.7,0.1,0.9,0.2L413,66z"/>
		<path class="st3" d="M413.6,65.8c0-0.4,0.3-0.7,0.7-0.7c0.4,0,0.7,0.3,0.7,0.7c0,0.4-0.3,0.6-0.7,0.6
			C413.9,66.4,413.6,66.1,413.6,65.8z M413.7,67.3h1.1v4.9h-1.1V67.3z"/>
		<path class="st3" d="M418.5,67.1c0.6,0,1.1,0.3,1.4,0.6l-0.5,0.7c-0.3-0.2-0.5-0.4-0.8-0.4c-0.8,0-1.3,0.6-1.3,1.6
			c0,1,0.5,1.6,1.3,1.6c0.4,0,0.7-0.2,1-0.4l0.5,0.7c-0.5,0.4-1,0.6-1.6,0.6c-1.3,0-2.4-0.9-2.4-2.6C416,68.1,417.1,67.1,418.5,67.1
			z"/>
		<path class="st3" d="M422.7,67.1c1.2,0,2.3,0.9,2.3,2.6c0,1.6-1.1,2.6-2.3,2.6c-1.2,0-2.3-0.9-2.3-2.6
			C420.4,68.1,421.5,67.1,422.7,67.1z M422.7,71.3c0.7,0,1.2-0.6,1.2-1.6c0-1-0.4-1.6-1.2-1.6c-0.7,0-1.1,0.6-1.1,1.6
			C421.6,70.7,422,71.3,422.7,71.3z"/>
	</g>
</g>
<g transform="translate(50,360)">
	<g transform="translate(0,30)">
		<g transform="translate(0,90)">
			<line class="st0" x1="16.5" y1="-11.5" x2="10.5" y2="-11.5"/>
			<g class="st1">
				<path d="M2.3-11.5c0-2.1,0.8-3.3,2.2-3.3s2.2,1.1,2.2,3.3c0,2.1-0.8,3.3-2.2,3.3S2.3-9.4,2.3-11.5z M5.6-11.5
					c0-1.8-0.4-2.4-1.1-2.4c-0.6,0-1.1,0.6-1.1,2.4s0.4,2.4,1.1,2.4C5.1-9.1,5.6-9.7,5.6-11.5z"/>
			</g>
		</g>
		<g transform="translate(0,76.82284040995607)">
			<line class="st0" x1="16.5" y1="-11.5" x2="10.5" y2="-11.5"/>
			<g class="st1">
				<path d="M-2.9-9.2h1.4v-4.2h-1.2v-0.7c0.6-0.1,1.1-0.3,1.5-0.5h0.9v5.4h1.2v0.9h-3.8V-9.2z"/>
				<path d="M1.9-11.5c0-2.1,0.8-3.3,2.2-3.3s2.2,1.1,2.2,3.3c0,2.1-0.8,3.3-2.2,3.3S1.9-9.4,1.9-11.5z M5.1-11.5
					c0-1.8-0.4-2.4-1.1-2.4c-0.6,0-1.1,0.6-1.1,2.4s0.4,2.4,1.1,2.4C4.7-9.1,5.1-9.7,5.1-11.5z"/>
			</g>
		</g>
		<g transform="translate(0,63.64568081991215)">
			<line class="st0" x1="16.5" y1="-11.5" x2="10.5" y2="-11.5"/>
			<g class="st1">
				<path d="M-3.2-9c1.8-1.7,2.9-2.8,2.9-3.8c0-0.7-0.4-1.1-1-1.1c-0.5,0-0.9,0.3-1.2,0.7l-0.6-0.6c0.6-0.6,1.2-1,2-1
					c1.2,0,2,0.8,2,1.9c0,1.1-1,2.3-2.3,3.6c0.3,0,0.7-0.1,1.1-0.1h1.6v1h-4.3V-9z"/>
				<path d="M1.9-11.5c0-2.1,0.8-3.3,2.2-3.3s2.2,1.1,2.2,3.3c0,2.1-0.8,3.3-2.2,3.3S1.9-9.4,1.9-11.5z M5.1-11.5
					c0-1.8-0.4-2.4-1.1-2.4c-0.6,0-1.1,0.6-1.1,2.4s0.4,2.4,1.1,2.4C4.7-9.1,5.1-9.7,5.1-11.5z"/>
			</g>
		</g>
		<g transform="translate(0,50.46852122986823)">
			<line class="st0" x1="16.5" y1="-11.5" x2="10.5" y2="-11.5"/>
			<g class="st1">
				<path d="M-2.8-9.8C-2.5-9.4-2-9.1-1.3-9.1c0.7,0,1.2-0.4,1.2-1c0-0.7-0.4-1.1-1.9-1.1V-12c1.2,0,1.7-0.4,1.7-1
					c0-0.5-0.4-0.8-0.9-0.8c-0.5,0-0.9,0.2-1.3,0.6L-3.2-14c0.5-0.5,1.1-0.8,1.9-0.8c1.2,0,2.1,0.6,2.1,1.7c0,0.7-0.4,1.2-1.1,1.5v0
					C0.4-11.4,1-10.9,1-10c0,1.2-1,1.8-2.2,1.8c-1,0-1.7-0.4-2.2-0.9L-2.8-9.8z"/>
				<path d="M1.9-11.5c0-2.1,0.8-3.3,2.2-3.3s2.2,1.1,2.2,3.3c0,2.1-0.8,3.3-2.2,3.3S1.9-9.4,1.9-11.5z M5.1-11.5
					c0-1.8-0.4-2.4-1.1-2.4c-0.6,0-1.1,0.6-1.1,2.4s0.4,2.4,1.1,2.4C4.7-9.1,5.1-9.7,5.1-11.5z"/>
			</g>
		</g>
		<g transform="translate(0,37.2913616398243)">
			<line class="st0" x1="16.5" y1="-11.5" x2="10.5" y2="-11.5"/>
			<g class="st1">
				<path d="M1.2-9.9H0.4v1.6h-1.1v-1.6h-2.8v-0.8l2.5-3.9h1.4v3.8h0.8V-9.9z M-0.6-10.8v-1.4c0-0.4,0-0.9,0-1.3h0
					c-0.2,0.3-0.3,0.6-0.5,1l-1.2,1.8H-0.6z"/>
				<path d="M1.9-11.5c0-2.1,0.8-3.3,2.2-3.3s2.2,1.1,2.2,3.3c0,2.1-0.8,3.3-2.2,3.3S1.9-9.4,1.9-11.5z M5.1-11.5
					c0-1.8-0.4-2.4-1.1-2.4c-0.6,0-1.1,0.6-1.1,2.4s0.4,2.4,1.1,2.4C4.7-9.1,5.1-9.7,5.1-11.5z"/>
			</g>
		</g>
		<g transform="translate(0,24.114202049780378)">
			<line class="st0" x1="16.5" y1="-11.5" x2="10.5" y2="-11.5"/>
			<g class="st1">
				<path d="M-2.9-9.8C-2.5-9.4-2-9.1-1.4-9.1c0.7,0,1.2-0.5,1.2-1.2c0-0.8-0.5-1.2-1.2-1.2c-0.4,0-0.6,0.1-1,0.4l-0.5-0.3l0.2-3.1
					h3.4v1h-2.4l-0.1,1.5c0.3-0.1,0.5-0.2,0.8-0.2c1.1,0,2,0.6,2,2C1-9,0-8.2-1.2-8.2c-1,0-1.7-0.4-2.2-0.9L-2.9-9.8z"/>
				<path d="M1.9-11.5c0-2.1,0.8-3.3,2.2-3.3s2.2,1.1,2.2,3.3c0,2.1-0.8,3.3-2.2,3.3S1.9-9.4,1.9-11.5z M5.1-11.5
					c0-1.8-0.4-2.4-1.1-2.4c-0.6,0-1.1,0.6-1.1,2.4s0.4,2.4,1.1,2.4C4.7-9.1,5.1-9.7,5.1-11.5z"/>
			</g>
		</g>
		<g transform="translate(0,10.937042459736455)">
			<line class="st0" x1="16.5" y1="-11.5" x2="10.5" y2="-11.5"/>
			<g class="st1">
				<path d="M0.4-13.4c-0.2-0.3-0.6-0.5-1-0.5c-0.8,0-1.4,0.6-1.5,2.3c0.4-0.5,0.9-0.7,1.4-0.7c1.1,0,1.9,0.6,1.9,2
					c0,1.3-0.9,2.1-2,2.1c-1.2,0-2.3-1-2.3-3.1c0-2.5,1.2-3.5,2.5-3.5c0.8,0,1.3,0.3,1.7,0.7L0.4-13.4z M0.1-10.3
					c0-0.8-0.4-1.1-1-1.1c-0.4,0-0.8,0.2-1.1,0.7C-2-9.5-1.5-9.1-0.9-9.1C-0.4-9.1,0.1-9.5,0.1-10.3z"/>
				<path d="M1.9-11.5c0-2.1,0.8-3.3,2.2-3.3s2.2,1.1,2.2,3.3c0,2.1-0.8,3.3-2.2,3.3S1.9-9.4,1.9-11.5z M5.1-11.5
					c0-1.8-0.4-2.4-1.1-2.4c-0.6,0-1.1,0.6-1.1,2.4s0.4,2.4,1.1,2.4C4.7-9.1,5.1-9.7,5.1-11.5z"/>
			</g>
		</g>
		<path class="st0" d="M10.5-11.5h6v90h-6"/>
	</g>
	<rect x="477.5" y="18.5" class="st6" width="138" height="90"/>
	<g class="st1">
		<path class="st3" d="M533.3,62.4h1.7c2,0,3.2,1.1,3.2,3.2c0,2.2-1.2,3.3-3.1,3.3h-1.8V62.4z M535,68c1.3,0,2.1-0.8,2.1-2.4
			c0-1.6-0.8-2.3-2.1-2.3h-0.5V68H535z"/>
		<path class="st3" d="M539.3,62.6c0-0.4,0.3-0.7,0.7-0.7s0.7,0.3,0.7,0.7c0,0.4-0.3,0.6-0.7,0.6S539.3,62.9,539.3,62.6z
			 M539.5,64.1h1.2V69h-1.2V64.1z"/>
		<path class="st3" d="M542.1,67.7c0.4,0.3,0.9,0.5,1.4,0.5c0.5,0,0.8-0.2,0.8-0.6c0-0.4-0.5-0.6-1-0.8c-0.7-0.2-1.4-0.6-1.4-1.4
			c0-0.9,0.7-1.5,1.8-1.5c0.7,0,1.2,0.3,1.6,0.6l-0.5,0.7c-0.3-0.3-0.7-0.4-1.1-0.4c-0.5,0-0.7,0.2-0.7,0.5c0,0.4,0.5,0.5,1,0.7
			c0.7,0.3,1.4,0.6,1.4,1.5c0,0.8-0.7,1.5-1.9,1.5c-0.7,0-1.4-0.3-1.9-0.7L542.1,67.7z"/>
		<path class="st3" d="M548.3,63.9c1.3,0,2,1,2,2.3c0,0.2,0,0.4-0.1,0.5h-3.1c0.1,0.9,0.7,1.4,1.4,1.4c0.4,0,0.8-0.1,1.1-0.4
			l0.4,0.7c-0.5,0.3-1.1,0.5-1.7,0.5c-1.4,0-2.4-0.9-2.4-2.6C546.1,64.9,547.2,63.9,548.3,63.9z M549.4,66.1c0-0.8-0.3-1.2-1-1.2
			c-0.6,0-1.1,0.4-1.2,1.2H549.4z"/>
		<path class="st3" d="M551.5,64.1h0.9l0.1,0.7h0c0.4-0.4,0.9-0.8,1.6-0.8c1,0,1.5,0.7,1.5,1.9V69h-1.1V66c0-0.8-0.2-1.1-0.8-1.1
			c-0.4,0-0.7,0.2-1.1,0.6V69h-1.1V64.1z M553.1,62c0.5,0,0.8,0.5,1.2,0.5c0.2,0,0.3-0.2,0.4-0.5h0.6c-0.1,0.8-0.4,1.2-0.9,1.2
			c-0.5,0-0.8-0.5-1.2-0.5c-0.2,0-0.3,0.1-0.4,0.5h-0.6C552.3,62.4,552.6,62,553.1,62z"/>
		<path class="st3" d="M559.1,63.9c1.2,0,2.3,0.9,2.3,2.6c0,1.6-1.1,2.6-2.3,2.6c-1.2,0-2.3-0.9-2.3-2.6
			C556.7,64.9,557.8,63.9,559.1,63.9z M559.1,68.1c0.7,0,1.2-0.6,1.2-1.6c0-1-0.4-1.6-1.2-1.6c-0.7,0-1.1,0.6-1.1,1.6
			C557.9,67.5,558.3,68.1,559.1,68.1z"/>
	</g>
</g>
<g transform="translate(50,480)">
	<g transform="translate(71,0)">
		<line class="st0" x1="16.5" y1="-11.5" x2="16.5" y2="-5.5"/>
		<g class="st1">
			<path d="M11.6,3h-0.8v1.6H9.8V3H6.9V2.2l2.5-3.9h1.4v3.8h0.8V3z M9.8,2.1V0.6c0-0.4,0-0.9,0-1.3h0C9.6-0.4,9.4,0,9.2,0.3L8.1,2.1
				H9.8z"/>
			<path d="M13.5,1.3L13.5,1.3C13,1,12.6,0.5,12.6-0.2c0-1,0.8-1.7,1.9-1.7c1.1,0,1.9,0.7,1.9,1.7c0,0.6-0.4,1.2-0.8,1.5v0
				c0.6,0.3,1.1,0.8,1.1,1.6c0,1-0.9,1.7-2.1,1.7c-1.2,0-2.2-0.7-2.2-1.7C12.3,2.2,12.9,1.7,13.5,1.3z M14.5,3.9c0.6,0,1-0.4,1-1
				c0-0.7-0.7-0.9-1.5-1.3c-0.4,0.3-0.7,0.7-0.7,1.2C13.3,3.5,13.8,3.9,14.5,3.9z M15.4-0.1c0-0.6-0.3-1-0.9-1
				c-0.5,0-0.9,0.3-0.9,0.9c0,0.6,0.6,0.9,1.3,1.2C15.2,0.7,15.4,0.3,15.4-0.1z"/>
			<path d="M18.4,3.2c0.4,0,0.7,0.3,0.7,0.8c0,0.4-0.3,0.8-0.7,0.8c-0.4,0-0.7-0.3-0.7-0.8C17.7,3.5,18,3.2,18.4,3.2z"/>
			<path d="M20.9,3.3c0.2,0.3,0.6,0.5,1,0.5c0.8,0,1.4-0.6,1.5-2.3C23,1.9,22.5,2.2,22,2.2c-1.1,0-1.8-0.6-1.8-2
				c0-1.3,0.9-2.1,2-2.1c1.2,0,2.3,1,2.3,3.1c0,2.5-1.2,3.5-2.5,3.5c-0.8,0-1.3-0.3-1.7-0.7L20.9,3.3z M23.4,0.6
				C23.2-0.5,22.8-1,22.2-1c-0.5,0-0.9,0.4-0.9,1.2c0,0.7,0.4,1.1,1,1.1C22.6,1.3,23,1.1,23.4,0.6z"/>
		</g>
	</g>
	<g transform="translate(224,0)">
		<line class="st0" x1="16.5" y1="-11.5" x2="16.5" y2="-5.5"/>
		<g class="st1">
			<path d="M10.2-0.8h-3v-1h4.3v0.7C10,0.8,9.7,2.1,9.6,4.6H8.4C8.6,2.3,9,0.9,10.2-0.8z"/>
			<path d="M12.6,3.7h1.4v-4.2h-1.2v-0.7c0.6-0.1,1.1-0.3,1.5-0.5h0.9v5.4h1.2v0.9h-3.8V3.7z"/>
			<path d="M18.4,3.2c0.4,0,0.7,0.3,0.7,0.8c0,0.4-0.3,0.8-0.7,0.8c-0.4,0-0.7-0.3-0.7-0.8C17.7,3.5,18,3.2,18.4,3.2z"/>
			<path d="M23.8-0.5c-0.2-0.3-0.6-0.5-1-0.5c-0.8,0-1.4,0.6-1.5,2.3c0.4-0.5,0.9-0.7,1.4-0.7c1.1,0,1.9,0.6,1.9,2
				c0,1.3-0.9,2.1-2,2.1c-1.2,0-2.3-1-2.3-3.1c0-2.5,1.2-3.5,2.5-3.5c0.8,0,1.3,0.3,1.7,0.7L23.8-0.5z M23.5,2.6
				c0-0.8-0.4-1.1-1-1.1c-0.4,0-0.8,0.2-1.1,0.7c0.1,1.1,0.6,1.6,1.2,1.6C23,3.8,23.5,3.4,23.5,2.6z"/>
		</g>
	</g>
	<g transform="translate(377,0)">
		<line class="st0" x1="16.5" y1="-11.5" x2="16.5" y2="-5.5"/>
		<g class="st1">
			<path d="M10.8-0.5c-0.2-0.3-0.6-0.5-1-0.5C9-0.9,8.3-0.3,8.3,1.4c0.4-0.5,0.9-0.7,1.4-0.7c1.1,0,1.9,0.6,1.9,2
				c0,1.3-0.9,2.1-2,2.1c-1.3,0-2.3-1-2.3-3.1c0-2.5,1.2-3.5,2.5-3.5c0.8,0,1.3,0.3,1.7,0.7L10.8-0.5z M10.4,2.6
				c0-0.8-0.4-1.1-1-1.1c-0.4,0-0.8,0.2-1.1,0.7c0.1,1.1,0.6,1.6,1.2,1.6C10,3.8,10.4,3.4,10.4,2.6z"/>
			<path d="M13,3.3c0.2,0.3,0.6,0.5,1,0.5c0.8,0,1.4-0.6,1.5-2.3c-0.4,0.5-0.9,0.7-1.4,0.7c-1.1,0-1.8-0.6-1.8-2
				c0-1.3,0.9-2.1,2-2.1c1.2,0,2.3,1,2.3,3.1c0,2.5-1.2,3.5-2.5,3.5c-0.8,0-1.3-0.3-1.7-0.7L13,3.3z M15.5,0.6
				C15.4-0.5,14.9-1,14.3-1c-0.5,0-0.9,0.4-0.9,1.2c0,0.7,0.4,1.1,1,1.1C14.7,1.3,15.1,1.1,15.5,0.6z"/>
			<path d="M18.4,3.2c0.4,0,0.7,0.3,0.7,0.8c0,0.4-0.3,0.8-0.7,0.8c-0.4,0-0.8-0.3-0.8-0.8C17.7,3.5,18,3.2,18.4,3.2z"/>
			<path d="M20.5,3.7h1.4v-4.2h-1.2v-0.7c0.6-0.1,1.1-0.3,1.5-0.5h0.9v5.4h1.2v0.9h-3.8V3.7z"/>
		</g>
	</g>
	<g transform="translate(530,0)">
		<line class="st0" x1="16.5" y1="-11.5" x2="16.5" y2="-5.5"/>
		<g class="st1">
			<path d="M10.2-0.8h-3v-1h4.3v0.7C10,0.8,9.7,2.1,9.6,4.6H8.4C8.6,2.3,9,0.9,10.2-0.8z"/>
			<path d="M12.7,3.1c0.4,0.4,0.8,0.7,1.5,0.7c0.7,0,1.2-0.5,1.2-1.2c0-0.8-0.5-1.2-1.2-1.2c-0.4,0-0.6,0.1-1,0.4l-0.5-0.3l0.2-3.1
				h3.4v1h-2.4l-0.1,1.5c0.3-0.1,0.5-0.2,0.8-0.2c1.1,0,2,0.6,2,2c0,1.4-1.1,2.2-2.2,2.2c-1,0-1.7-0.4-2.2-0.9L12.7,3.1z"/>
			<path d="M18.4,3.2c0.4,0,0.7,0.3,0.7,0.8c0,0.4-0.3,0.8-0.7,0.8c-0.4,0-0.8-0.3-0.8-0.8C17.7,3.5,18,3.2,18.4,3.2z"/>
			<path d="M20.5,3.1c0.4,0.4,0.8,0.7,1.5,0.7c0.7,0,1.2-0.5,1.2-1.2c0-0.8-0.5-1.2-1.2-1.2c-0.4,0-0.6,0.1-1,0.4l-0.6-0.3l0.2-3.1
				h3.4v1h-2.4l-0.1,1.5c0.3-0.1,0.5-0.2,0.8-0.2c1.1,0,2,0.6,2,2c0,1.4-1.1,2.2-2.2,2.2c-1,0-1.7-0.4-2.2-0.9L20.5,3.1z"/>
		</g>
	</g>
	<path class="st0" d="M16.5-5.5v-6h600v6"/>
</g>
<g>
	<defs>
		<rect id="SVGID_1_" x="905" y="138.5" width="668" height="432.7"/>
	</defs>
	<clipPath id="SVGID_2_">
		<use xlink:href="#SVGID_1_"  style="overflow:visible;"/>
	</clipPath>
	<g style="clip-path:url(#SVGID_2_);">
		
			<image style="overflow:visible;" width="1366" height="768" xlink:href="D1927AB.jpg"  transform="matrix(1 0 0 0.9876 904.9976 -187.3112)">
		</image>
	</g>
</g>
<g class="st1">
	<path d="M679.8,469.9c0-1.3,0.6-2.1,1.6-2.1c0.9,0,1.6,0.7,1.6,2.1c0,1.3-0.6,2.1-1.6,2.1C680.4,472,679.8,471.2,679.8,469.9z
		 M682.1,469.9c0-1-0.3-1.4-0.7-1.4s-0.7,0.4-0.7,1.4s0.3,1.4,0.7,1.4S682.1,470.9,682.1,469.9z M681.6,474.6l3.6-6.8h0.7l-3.6,6.8
		H681.6z M684.5,472.5c0-1.3,0.6-2.1,1.6-2.1c0.9,0,1.6,0.7,1.6,2.1c0,1.3-0.6,2.1-1.6,2.1C685.1,474.6,684.5,473.9,684.5,472.5z
		 M686.8,472.5c0-1-0.3-1.4-0.7-1.4s-0.7,0.4-0.7,1.4s0.3,1.4,0.7,1.4S686.8,473.5,686.8,472.5z"/>
	<path d="M693.4,471.4c0-0.5-0.2-1-0.9-1c-0.5,0-0.9,0.2-1.4,0.5l-0.4-0.8c0.5-0.3,1.2-0.6,2-0.6c1.2,0,1.8,0.8,1.8,2.1v2.9h-0.9
		l-0.1-0.5h0c-0.4,0.4-0.9,0.7-1.5,0.7c-0.9,0-1.5-0.6-1.5-1.4C690.5,472.1,691.4,471.6,693.4,471.4z M692.3,473.7
		c0.4,0,0.7-0.2,1.1-0.5v-1.1c-1.3,0.2-1.8,0.5-1.8,1C691.6,473.5,691.9,473.7,692.3,473.7z"/>
	<path d="M695.9,467.4h1.1v5.9c0,0.3,0.1,0.4,0.3,0.4c0,0,0.1,0,0.2,0l0.2,0.9c-0.1,0.1-0.3,0.1-0.6,0.1c-0.8,0-1.1-0.5-1.1-1.4
		V467.4z"/>
	<path d="M700.7,473.2c0.4,0.3,0.9,0.5,1.4,0.5c0.5,0,0.8-0.2,0.8-0.6c0-0.4-0.5-0.6-1-0.8c-0.7-0.2-1.4-0.6-1.4-1.4
		c0-0.9,0.7-1.5,1.8-1.5c0.7,0,1.2,0.3,1.6,0.6l-0.5,0.7c-0.3-0.3-0.7-0.4-1.1-0.4c-0.5,0-0.7,0.2-0.7,0.5c0,0.4,0.5,0.5,1,0.7
		c0.7,0.3,1.4,0.6,1.4,1.5c0,0.8-0.7,1.5-1.9,1.5c-0.7,0-1.4-0.3-1.9-0.7L700.7,473.2z"/>
	<path d="M706.9,469.5c1.3,0,2,1,2,2.3c0,0.2,0,0.4,0,0.5h-3.1c0.1,0.9,0.7,1.4,1.4,1.4c0.4,0,0.8-0.1,1.1-0.4l0.4,0.7
		c-0.5,0.3-1.1,0.5-1.7,0.5c-1.4,0-2.4-0.9-2.4-2.6C704.7,470.5,705.8,469.5,706.9,469.5z M708,471.6c0-0.8-0.3-1.2-1-1.2
		c-0.6,0-1.1,0.4-1.2,1.2H708z"/>
	<path d="M710.3,474.3L710.3,474.3c-0.3-0.2-0.4-0.5-0.4-0.9c0-0.4,0.3-0.7,0.5-0.9v0c-0.3-0.3-0.6-0.7-0.6-1.3
		c0-1.1,0.9-1.8,1.9-1.8c0.3,0,0.5,0,0.7,0.1h1.8v0.8h-0.9c0.2,0.2,0.3,0.5,0.3,0.8c0,1.1-0.8,1.7-1.9,1.7c-0.2,0-0.5,0-0.7-0.1
		c-0.1,0.1-0.2,0.3-0.2,0.5c0,0.3,0.2,0.5,0.8,0.5h0.9c1.2,0,1.8,0.4,1.8,1.2c0,1-1,1.7-2.6,1.7c-1.2,0-2-0.4-2-1.3
		C709.6,475,709.9,474.6,710.3,474.3z M711.8,475.9c0.8,0,1.3-0.4,1.3-0.8c0-0.4-0.3-0.5-0.9-0.5h-0.7c-0.3,0-0.5,0-0.7-0.1
		c-0.3,0.2-0.4,0.4-0.4,0.6C710.6,475.7,711.1,475.9,711.8,475.9z M712.6,471.2c0-0.6-0.4-1-0.8-1s-0.9,0.3-0.9,1c0,0.6,0.4,1,0.9,1
		C712.2,472.2,712.6,471.9,712.6,471.2z"/>
	<path d="M715.1,469.6h1.1v2.9c0,0.8,0.2,1.1,0.8,1.1c0.4,0,0.7-0.2,1.1-0.7v-3.4h1.1v4.9h-0.9l-0.1-0.7h0c-0.4,0.5-0.9,0.8-1.6,0.8
		c-1,0-1.5-0.7-1.5-1.9V469.6z"/>
	<path d="M720.7,469.6h1l0.1,0.7h0c0.4-0.4,0.9-0.8,1.6-0.8c1,0,1.5,0.7,1.5,1.9v3.1h-1.1v-2.9c0-0.8-0.2-1.1-0.8-1.1
		c-0.4,0-0.7,0.2-1.1,0.6v3.4h-1.1V469.6z"/>
	<path d="M728.1,469.5c0.6,0,0.9,0.2,1.3,0.5l0-0.8v-1.8h1.1v7.1h-0.9l-0.1-0.5h0c-0.4,0.4-0.9,0.6-1.4,0.6c-1.2,0-2-0.9-2-2.6
		C726,470.5,727,469.5,728.1,469.5z M728.3,473.7c0.4,0,0.7-0.2,1-0.5v-2.3c-0.3-0.3-0.7-0.4-1-0.4c-0.6,0-1.1,0.6-1.1,1.6
		C727.2,473.1,727.6,473.7,728.3,473.7z"/>
	<path d="M734,469.5c1.2,0,2.3,0.9,2.3,2.6c0,1.6-1.1,2.6-2.3,2.6c-1.2,0-2.3-0.9-2.3-2.6C731.6,470.4,732.7,469.5,734,469.5z
		 M734,473.7c0.7,0,1.2-0.6,1.2-1.6c0-1-0.4-1.6-1.2-1.6c-0.7,0-1.1,0.6-1.1,1.6C732.8,473,733.2,473.7,734,473.7z"/>
	<path d="M742.2,471.4c0-0.5-0.2-1-0.9-1c-0.5,0-0.9,0.2-1.4,0.5l-0.4-0.8c0.5-0.3,1.2-0.6,2-0.6c1.2,0,1.8,0.8,1.8,2.1v2.9h-0.9
		l-0.1-0.5h0c-0.4,0.4-0.9,0.7-1.5,0.7c-0.9,0-1.5-0.6-1.5-1.4C739.3,472.1,740.2,471.6,742.2,471.4z M741.1,473.7
		c0.4,0,0.7-0.2,1.1-0.5v-1.1c-1.3,0.2-1.8,0.5-1.8,1C740.4,473.5,740.7,473.7,741.1,473.7z"/>
	<path d="M744.7,469.6h1l0.1,0.7h0c0.4-0.4,0.9-0.8,1.6-0.8c1,0,1.5,0.7,1.5,1.9v3.1h-1.1v-2.9c0-0.8-0.2-1.1-0.8-1.1
		c-0.4,0-0.7,0.2-1.1,0.6v3.4h-1.1V469.6z M746.4,467.5c0.5,0,0.8,0.5,1.2,0.5c0.2,0,0.3-0.2,0.4-0.5h0.6c-0.1,0.8-0.4,1.2-0.9,1.2
		c-0.5,0-0.8-0.5-1.2-0.5c-0.2,0-0.3,0.1-0.4,0.5h-0.6C745.5,468,745.9,467.5,746.4,467.5z"/>
	<path d="M752.3,469.5c1.2,0,2.3,0.9,2.3,2.6c0,1.6-1.1,2.6-2.3,2.6c-1.2,0-2.3-0.9-2.3-2.6C750,470.4,751.1,469.5,752.3,469.5z
		 M752.3,473.7c0.7,0,1.2-0.6,1.2-1.6c0-1-0.4-1.6-1.2-1.6s-1.1,0.6-1.1,1.6C751.2,473,751.6,473.7,752.3,473.7z"/>
</g>
</svg>
