<?xml version="1.0" encoding="utf-8"?>
<!-- Generator: Adobe Illustrator 21.1.0, SVG Export Plug-In . SVG Version: 6.00 Build 0)  -->
<svg version="1.1" id="Capa_1" xmlns="http://www.w3.org/2000/svg" xmlns:xlink="http://www.w3.org/1999/xlink" x="0px" y="0px"
	 viewBox="0 0 800 600" style="enable-background:new 0 0 800 600;" xml:space="preserve">
<style type="text/css">
	.st0{enable-background:new    ;}
	.st1{fill:none;stroke:#CCCCCC;}
	.st2{fill:#41DDCD;}
	.st3{fill:#FEAE01;}
	.st4{fill:#FD512D;}
	.st5{fill:#3767B0;}
	.st6{fill:#432C5F;}
</style>
<g transform="translate(50,0)">
	<g class="st0">
		<path d="M-7.9,67h0.9l0.1,0.7h0c0.4-0.4,0.9-0.8,1.5-0.8c0.7,0,1.1,0.3,1.4,0.9c0.5-0.5,1-0.9,1.6-0.9c1,0,1.5,0.7,1.5,1.9v3.1H-2
			V69c0-0.8-0.2-1.1-0.7-1.1c-0.3,0-0.6,0.2-1,0.6v3.4h-1.1V69c0-0.8-0.2-1.1-0.8-1.1c-0.3,0-0.6,0.2-1,0.6v3.4h-1.1V67z"/>
		<path d="M0.4,65.5c0-0.4,0.3-0.7,0.7-0.7c0.4,0,0.7,0.3,0.7,0.7c0,0.4-0.3,0.6-0.7,0.6C0.7,66.1,0.4,65.9,0.4,65.5z M0.6,67h1.1
			v4.9H0.6V67z"/>
		<path d="M3.2,64.9h1.1v5.9c0,0.3,0.1,0.4,0.3,0.4c0,0,0.1,0,0.2,0l0.1,0.9C4.8,72,4.6,72,4.3,72c-0.8,0-1.1-0.5-1.1-1.4V64.9z"/>
		<path d="M7.8,66.9c1.3,0,2,1,2,2.3c0,0.2,0,0.4,0,0.5H6.7c0.1,0.9,0.7,1.4,1.4,1.4c0.4,0,0.8-0.1,1.1-0.4l0.4,0.7
			C9.2,71.8,8.6,72,8,72c-1.4,0-2.4-0.9-2.4-2.6C5.6,67.9,6.7,66.9,7.8,66.9z M8.9,69c0-0.8-0.3-1.2-1-1.2c-0.6,0-1.1,0.4-1.2,1.2
			H8.9z"/>
		<path d="M11,70.6c0.4,0.3,0.9,0.5,1.4,0.5c0.5,0,0.8-0.2,0.8-0.6c0-0.4-0.5-0.6-1-0.8c-0.6-0.2-1.4-0.6-1.4-1.4
			c0-0.9,0.7-1.5,1.8-1.5c0.7,0,1.2,0.3,1.6,0.6l-0.5,0.7c-0.3-0.3-0.7-0.4-1.1-0.4c-0.5,0-0.7,0.2-0.7,0.5c0,0.4,0.5,0.5,1,0.7
			c0.7,0.3,1.4,0.6,1.4,1.5c0,0.8-0.7,1.5-1.9,1.5c-0.7,0-1.4-0.3-1.9-0.7L11,70.6z"/>
		<path d="M19.1,66.9c0.6,0,0.9,0.2,1.3,0.5l0-0.8v-1.8h1.1v7.1h-0.9l-0.1-0.5h0c-0.4,0.4-0.9,0.6-1.4,0.6c-1.2,0-2-0.9-2-2.6
			C17,67.9,18,66.9,19.1,66.9z M19.3,71.1c0.4,0,0.7-0.2,1-0.5v-2.3c-0.3-0.3-0.7-0.4-1-0.4c-0.6,0-1.1,0.6-1.1,1.6
			C18.2,70.5,18.6,71.1,19.3,71.1z"/>
		<path d="M24.9,66.9c1.3,0,2,1,2,2.3c0,0.2,0,0.4,0,0.5h-3.1c0.1,0.9,0.7,1.4,1.4,1.4c0.4,0,0.8-0.1,1.1-0.4l0.4,0.7
			c-0.5,0.3-1.1,0.5-1.7,0.5c-1.4,0-2.4-0.9-2.4-2.6C22.7,67.9,23.8,66.9,24.9,66.9z M25.9,69c0-0.8-0.3-1.2-1-1.2
			c-0.6,0-1.1,0.4-1.2,1.2H25.9z"/>
		<path d="M31.2,72.3v1.5h-1.1V67H31l0.1,0.5h0c0.4-0.3,0.9-0.6,1.5-0.6c1.2,0,1.9,1,1.9,2.5c0,1.7-1,2.6-2.1,2.6
			c-0.4,0-0.9-0.2-1.3-0.5L31.2,72.3z M32.2,71.1c0.6,0,1.1-0.6,1.1-1.7c0-1-0.3-1.6-1.1-1.6c-0.4,0-0.7,0.2-1.1,0.5v2.3
			C31.6,71,31.9,71.1,32.2,71.1z"/>
		<path d="M37.7,66.9c1.3,0,2,1,2,2.3c0,0.2,0,0.4,0,0.5h-3.1c0.1,0.9,0.7,1.4,1.4,1.4c0.4,0,0.8-0.1,1.1-0.4l0.4,0.7
			C39,71.8,38.5,72,37.8,72c-1.4,0-2.4-0.9-2.4-2.6C35.4,67.9,36.5,66.9,37.7,66.9z M38.7,69c0-0.8-0.3-1.2-1-1.2
			c-0.6,0-1.1,0.4-1.2,1.2H38.7z"/>
		<path d="M40.9,70.6c0.4,0.3,0.9,0.5,1.4,0.5c0.5,0,0.8-0.2,0.8-0.6c0-0.4-0.5-0.6-1-0.8c-0.7-0.2-1.4-0.6-1.4-1.4
			c0-0.9,0.7-1.5,1.8-1.5c0.7,0,1.2,0.3,1.6,0.6l-0.5,0.7c-0.3-0.3-0.7-0.4-1.1-0.4c-0.5,0-0.7,0.2-0.7,0.5c0,0.4,0.5,0.5,1,0.7
			c0.7,0.3,1.4,0.6,1.4,1.5c0,0.8-0.7,1.5-1.9,1.5c-0.7,0-1.4-0.3-1.9-0.7L40.9,70.6z"/>
		<path d="M47.1,66.9c1.2,0,2.3,0.9,2.3,2.6c0,1.6-1.1,2.6-2.3,2.6c-1.2,0-2.3-0.9-2.3-2.6C44.8,67.8,45.9,66.9,47.1,66.9z
			 M47.1,71.1c0.7,0,1.2-0.6,1.2-1.6c0-1-0.4-1.6-1.2-1.6c-0.7,0-1.1,0.6-1.1,1.6C46,70.4,46.4,71.1,47.1,71.1z"/>
		<path d="M50.6,70.6c0.4,0.3,0.9,0.5,1.4,0.5c0.5,0,0.8-0.2,0.8-0.6c0-0.4-0.5-0.6-1-0.8c-0.7-0.2-1.4-0.6-1.4-1.4
			c0-0.9,0.7-1.5,1.8-1.5c0.7,0,1.2,0.3,1.6,0.6l-0.5,0.7c-0.3-0.3-0.7-0.4-1.1-0.4c-0.5,0-0.7,0.2-0.7,0.5c0,0.4,0.5,0.5,1,0.7
			c0.7,0.3,1.4,0.6,1.4,1.5c0,0.8-0.7,1.5-1.9,1.5c-0.7,0-1.4-0.3-1.9-0.7L50.6,70.6z"/>
	</g>
	<g class="st0">
		<path d="M694.6,526.6h-2.2l-0.5,1.8h-1.2l2.1-6.5h1.4l2.1,6.5h-1.2L694.6,526.6z M694.3,525.7l-0.2-0.8c-0.2-0.7-0.4-1.4-0.6-2.2
			h0c-0.2,0.7-0.4,1.5-0.6,2.2l-0.2,0.8H694.3z"/>
		<path d="M697,523.4h0.9l0.1,0.7h0c0.4-0.4,0.9-0.8,1.6-0.8c1,0,1.5,0.7,1.5,1.9v3.1h-1.1v-2.9c0-0.8-0.2-1.1-0.8-1.1
			c-0.4,0-0.7,0.2-1.1,0.6v3.4H697V523.4z M698.7,521.4c0.5,0,0.8,0.5,1.2,0.5c0.2,0,0.3-0.2,0.4-0.5h0.6c-0.1,0.8-0.4,1.2-0.9,1.2
			c-0.5,0-0.8-0.5-1.2-0.5c-0.2,0-0.3,0.1-0.4,0.5h-0.6C697.8,521.8,698.2,521.4,698.7,521.4z"/>
		<path d="M704.6,523.3c1.2,0,2.3,0.9,2.3,2.6c0,1.6-1.1,2.6-2.3,2.6c-1.2,0-2.3-0.9-2.3-2.6C702.3,524.3,703.4,523.3,704.6,523.3z
			 M704.6,527.5c0.7,0,1.2-0.6,1.2-1.6c0-1-0.4-1.6-1.2-1.6c-0.7,0-1.1,0.6-1.1,1.6C703.5,526.9,703.9,527.5,704.6,527.5z"/>
	</g>
	<g transform="translate(0,0)">
		<g transform="translate(0,450)">
			<line class="st1" x1="55.8" y1="81.6" x2="49.8" y2="81.6"/>
			<g class="st0">
				<path d="M41.6,81.6c0-2.1,0.8-3.3,2.2-3.3s2.2,1.1,2.2,3.3c0,2.1-0.8,3.3-2.2,3.3S41.6,83.7,41.6,81.6z M44.8,81.6
					c0-1.8-0.4-2.4-1.1-2.4c-0.6,0-1.1,0.6-1.1,2.4s0.4,2.4,1.1,2.4C44.4,84,44.8,83.4,44.8,81.6z"/>
			</g>
		</g>
		<g transform="translate(0,425.82410261755126)">
			<line class="st1" x1="55.8" y1="81.6" x2="49.8" y2="81.6"/>
			<g class="st0">
				<path d="M36.4,83.3c0.4,0.4,0.8,0.7,1.5,0.7c0.7,0,1.2-0.5,1.2-1.2c0-0.8-0.5-1.2-1.2-1.2c-0.4,0-0.6,0.1-1,0.4l-0.5-0.3
					l0.2-3.1H40v1h-2.4l-0.1,1.5c0.3-0.1,0.5-0.2,0.8-0.2c1.1,0,2,0.6,2,2c0,1.4-1.1,2.2-2.2,2.2c-1,0-1.7-0.4-2.2-0.9L36.4,83.3z"
					/>
				<path d="M41.2,81.6c0-2.1,0.8-3.3,2.2-3.3s2.2,1.1,2.2,3.3c0,2.1-0.8,3.3-2.2,3.3S41.2,83.7,41.2,81.6z M44.4,81.6
					c0-1.8-0.4-2.4-1.1-2.4c-0.6,0-1.1,0.6-1.1,2.4s0.4,2.4,1.1,2.4C43.9,84,44.4,83.4,44.4,81.6z"/>
			</g>
		</g>
		<g transform="translate(0,401.6482052351025)">
			<line class="st1" x1="55.8" y1="81.6" x2="49.8" y2="81.6"/>
			<g class="st0">
				<path d="M30.8,83.8h1.4v-4.2h-1.2v-0.7c0.6-0.1,1.1-0.3,1.5-0.5h0.9v5.4h1.2v0.9h-3.8V83.8z"/>
				<path d="M35.6,81.6c0-2.1,0.8-3.3,2.2-3.3s2.2,1.1,2.2,3.3c0,2.1-0.8,3.3-2.2,3.3S35.6,83.7,35.6,81.6z M38.8,81.6
					c0-1.8-0.4-2.4-1.1-2.4c-0.6,0-1.1,0.6-1.1,2.4s0.4,2.4,1.1,2.4C38.4,84,38.8,83.4,38.8,81.6z"/>
				<path d="M40.7,81.6c0-2.1,0.8-3.3,2.2-3.3s2.2,1.1,2.2,3.3c0,2.1-0.8,3.3-2.2,3.3S40.7,83.7,40.7,81.6z M43.9,81.6
					c0-1.8-0.4-2.4-1.1-2.4c-0.6,0-1.1,0.6-1.1,2.4s0.4,2.4,1.1,2.4C43.5,84,43.9,83.4,43.9,81.6z"/>
			</g>
		</g>
		<g transform="translate(0,377.47230785265384)">
			<line class="st1" x1="55.8" y1="81.6" x2="49.8" y2="81.6"/>
			<g class="st0">
				<path d="M30.8,83.8h1.4v-4.2h-1.2v-0.7c0.6-0.1,1.1-0.3,1.5-0.5h0.9v5.4h1.2v0.9h-3.8V83.8z"/>
				<path d="M36,83.3c0.4,0.4,0.8,0.7,1.5,0.7c0.7,0,1.2-0.5,1.2-1.2c0-0.8-0.5-1.2-1.2-1.2c-0.4,0-0.6,0.1-1,0.4l-0.5-0.3l0.2-3.1
					h3.4v1h-2.4L37,80.9c0.3-0.1,0.5-0.2,0.8-0.2c1.1,0,2,0.6,2,2c0,1.4-1.1,2.2-2.2,2.2c-1,0-1.7-0.4-2.2-0.9L36,83.3z"/>
				<path d="M40.7,81.6c0-2.1,0.8-3.3,2.2-3.3s2.2,1.1,2.2,3.3c0,2.1-0.8,3.3-2.2,3.3S40.7,83.7,40.7,81.6z M43.9,81.6
					c0-1.8-0.4-2.4-1.1-2.4c-0.6,0-1.1,0.6-1.1,2.4s0.4,2.4,1.1,2.4C43.5,84,43.9,83.4,43.9,81.6z"/>
			</g>
		</g>
		<g transform="translate(0,353.2964104702051)">
			<line class="st1" x1="55.8" y1="81.6" x2="49.8" y2="81.6"/>
			<g class="st0">
				<path d="M30.4,84.1c1.8-1.7,2.9-2.8,2.9-3.8c0-0.7-0.4-1.1-1-1.1c-0.5,0-0.9,0.3-1.2,0.7l-0.6-0.6c0.6-0.6,1.2-1,2-1
					c1.2,0,2,0.8,2,1.9c0,1.1-1,2.3-2.3,3.6c0.3,0,0.7-0.1,1.1-0.1h1.6v1h-4.3V84.1z"/>
				<path d="M35.6,81.6c0-2.1,0.8-3.3,2.2-3.3s2.2,1.1,2.2,3.3c0,2.1-0.8,3.3-2.2,3.3S35.6,83.7,35.6,81.6z M38.8,81.6
					c0-1.8-0.4-2.4-1.1-2.4c-0.6,0-1.1,0.6-1.1,2.4s0.4,2.4,1.1,2.4C38.4,84,38.8,83.4,38.8,81.6z"/>
				<path d="M40.7,81.6c0-2.1,0.8-3.3,2.2-3.3s2.2,1.1,2.2,3.3c0,2.1-0.8,3.3-2.2,3.3S40.7,83.7,40.7,81.6z M43.9,81.6
					c0-1.8-0.4-2.4-1.1-2.4c-0.6,0-1.1,0.6-1.1,2.4s0.4,2.4,1.1,2.4C43.5,84,43.9,83.4,43.9,81.6z"/>
			</g>
		</g>
		<g transform="translate(0,329.12051308775636)">
			<line class="st1" x1="55.8" y1="81.6" x2="49.8" y2="81.6"/>
			<g class="st0">
				<path d="M30.4,84.1c1.8-1.7,2.9-2.8,2.9-3.8c0-0.7-0.4-1.1-1-1.1c-0.5,0-0.9,0.3-1.2,0.7l-0.6-0.6c0.6-0.6,1.2-1,2-1
					c1.2,0,2,0.8,2,1.9c0,1.1-1,2.3-2.3,3.6c0.3,0,0.7-0.1,1.1-0.1h1.6v1h-4.3V84.1z"/>
				<path d="M36,83.3c0.4,0.4,0.8,0.7,1.5,0.7c0.7,0,1.2-0.5,1.2-1.2c0-0.8-0.5-1.2-1.2-1.2c-0.4,0-0.6,0.1-1,0.4l-0.5-0.3l0.2-3.1
					h3.4v1h-2.4L37,80.9c0.3-0.1,0.5-0.2,0.8-0.2c1.1,0,2,0.6,2,2c0,1.4-1.1,2.2-2.2,2.2c-1,0-1.7-0.4-2.2-0.9L36,83.3z"/>
				<path d="M40.7,81.6c0-2.1,0.8-3.3,2.2-3.3s2.2,1.1,2.2,3.3c0,2.1-0.8,3.3-2.2,3.3S40.7,83.7,40.7,81.6z M43.9,81.6
					c0-1.8-0.4-2.4-1.1-2.4c-0.6,0-1.1,0.6-1.1,2.4s0.4,2.4,1.1,2.4C43.5,84,43.9,83.4,43.9,81.6z"/>
			</g>
		</g>
		<g transform="translate(0,304.9446157053076)">
			<line class="st1" x1="55.8" y1="81.6" x2="49.8" y2="81.6"/>
			<g class="st0">
				<path d="M30.9,83.3c0.4,0.4,0.9,0.7,1.5,0.7c0.7,0,1.2-0.4,1.2-1c0-0.7-0.4-1.1-1.9-1.1v-0.8c1.2,0,1.7-0.4,1.7-1
					c0-0.5-0.4-0.8-0.9-0.8c-0.5,0-0.9,0.2-1.3,0.6l-0.6-0.7c0.5-0.5,1.1-0.8,1.9-0.8c1.2,0,2.1,0.6,2.1,1.7c0,0.7-0.4,1.2-1.1,1.5
					v0c0.7,0.2,1.3,0.7,1.3,1.6c0,1.2-1,1.8-2.2,1.8c-1,0-1.7-0.4-2.2-0.9L30.9,83.3z"/>
				<path d="M35.6,81.6c0-2.1,0.8-3.3,2.2-3.3s2.2,1.1,2.2,3.3c0,2.1-0.8,3.3-2.2,3.3S35.6,83.7,35.6,81.6z M38.8,81.6
					c0-1.8-0.4-2.4-1.1-2.4c-0.6,0-1.1,0.6-1.1,2.4s0.4,2.4,1.1,2.4C38.4,84,38.8,83.4,38.8,81.6z"/>
				<path d="M40.7,81.6c0-2.1,0.8-3.3,2.2-3.3s2.2,1.1,2.2,3.3c0,2.1-0.8,3.3-2.2,3.3S40.7,83.7,40.7,81.6z M43.9,81.6
					c0-1.8-0.4-2.4-1.1-2.4c-0.6,0-1.1,0.6-1.1,2.4s0.4,2.4,1.1,2.4C43.5,84,43.9,83.4,43.9,81.6z"/>
			</g>
		</g>
		<g transform="translate(0,280.76871832285894)">
			<line class="st1" x1="55.8" y1="81.6" x2="49.8" y2="81.6"/>
			<g class="st0">
				<path d="M30.9,83.3c0.4,0.4,0.9,0.7,1.5,0.7c0.7,0,1.2-0.4,1.2-1c0-0.7-0.4-1.1-1.9-1.1v-0.8c1.2,0,1.7-0.4,1.7-1
					c0-0.5-0.4-0.8-0.9-0.8c-0.5,0-0.9,0.2-1.3,0.6l-0.6-0.7c0.5-0.5,1.1-0.8,1.9-0.8c1.2,0,2.1,0.6,2.1,1.7c0,0.7-0.4,1.2-1.1,1.5
					v0c0.7,0.2,1.3,0.7,1.3,1.6c0,1.2-1,1.8-2.2,1.8c-1,0-1.7-0.4-2.2-0.9L30.9,83.3z"/>
				<path d="M36,83.3c0.4,0.4,0.8,0.7,1.5,0.7c0.7,0,1.2-0.5,1.2-1.2c0-0.8-0.5-1.2-1.2-1.2c-0.4,0-0.6,0.1-1,0.4l-0.5-0.3l0.2-3.1
					h3.4v1h-2.4L37,80.9c0.3-0.1,0.5-0.2,0.8-0.2c1.1,0,2,0.6,2,2c0,1.4-1.1,2.2-2.2,2.2c-1,0-1.7-0.4-2.2-0.9L36,83.3z"/>
				<path d="M40.7,81.6c0-2.1,0.8-3.3,2.2-3.3s2.2,1.1,2.2,3.3c0,2.1-0.8,3.3-2.2,3.3S40.7,83.7,40.7,81.6z M43.9,81.6
					c0-1.8-0.4-2.4-1.1-2.4c-0.6,0-1.1,0.6-1.1,2.4s0.4,2.4,1.1,2.4C43.5,84,43.9,83.4,43.9,81.6z"/>
			</g>
		</g>
		<g transform="translate(0,256.5928209404102)">
			<line class="st1" x1="55.8" y1="81.6" x2="49.8" y2="81.6"/>
			<g class="st0">
				<path d="M34.9,83.1h-0.8v1.6h-1.1v-1.6h-2.8v-0.8l2.5-3.9h1.4v3.8h0.8V83.1z M33.1,82.2v-1.4c0-0.4,0-0.9,0-1.3h0
					c-0.2,0.3-0.3,0.6-0.5,1l-1.2,1.8H33.1z"/>
				<path d="M35.6,81.6c0-2.1,0.8-3.3,2.2-3.3s2.2,1.1,2.2,3.3c0,2.1-0.8,3.3-2.2,3.3S35.6,83.7,35.6,81.6z M38.8,81.6
					c0-1.8-0.4-2.4-1.1-2.4c-0.6,0-1.1,0.6-1.1,2.4s0.4,2.4,1.1,2.4C38.4,84,38.8,83.4,38.8,81.6z"/>
				<path d="M40.7,81.6c0-2.1,0.8-3.3,2.2-3.3s2.2,1.1,2.2,3.3c0,2.1-0.8,3.3-2.2,3.3S40.7,83.7,40.7,81.6z M43.9,81.6
					c0-1.8-0.4-2.4-1.1-2.4c-0.6,0-1.1,0.6-1.1,2.4s0.4,2.4,1.1,2.4C43.5,84,43.9,83.4,43.9,81.6z"/>
			</g>
		</g>
		<g transform="translate(0,232.41692355796144)">
			<line class="st1" x1="55.8" y1="81.6" x2="49.8" y2="81.6"/>
			<g class="st0">
				<path d="M34.9,83.1h-0.8v1.6h-1.1v-1.6h-2.8v-0.8l2.5-3.9h1.4v3.8h0.8V83.1z M33.1,82.2v-1.4c0-0.4,0-0.9,0-1.3h0
					c-0.2,0.3-0.3,0.6-0.5,1l-1.2,1.8H33.1z"/>
				<path d="M36,83.3c0.4,0.4,0.8,0.7,1.5,0.7c0.7,0,1.2-0.5,1.2-1.2c0-0.8-0.5-1.2-1.2-1.2c-0.4,0-0.6,0.1-1,0.4l-0.5-0.3l0.2-3.1
					h3.4v1h-2.4L37,80.9c0.3-0.1,0.5-0.2,0.8-0.2c1.1,0,2,0.6,2,2c0,1.4-1.1,2.2-2.2,2.2c-1,0-1.7-0.4-2.2-0.9L36,83.3z"/>
				<path d="M40.7,81.6c0-2.1,0.8-3.3,2.2-3.3s2.2,1.1,2.2,3.3c0,2.1-0.8,3.3-2.2,3.3S40.7,83.7,40.7,81.6z M43.9,81.6
					c0-1.8-0.4-2.4-1.1-2.4c-0.6,0-1.1,0.6-1.1,2.4s0.4,2.4,1.1,2.4C43.5,84,43.9,83.4,43.9,81.6z"/>
			</g>
		</g>
		<g transform="translate(0,208.24102617551273)">
			<line class="st1" x1="55.8" y1="81.6" x2="49.8" y2="81.6"/>
			<g class="st0">
				<path d="M30.8,83.3c0.4,0.4,0.8,0.7,1.5,0.7c0.7,0,1.2-0.5,1.2-1.2c0-0.8-0.5-1.2-1.2-1.2c-0.4,0-0.6,0.1-1,0.4l-0.5-0.3
					l0.2-3.1h3.4v1H32l-0.1,1.5c0.3-0.1,0.5-0.2,0.8-0.2c1.1,0,2,0.6,2,2c0,1.4-1.1,2.2-2.2,2.2c-1,0-1.7-0.4-2.2-0.9L30.8,83.3z"/>
				<path d="M35.6,81.6c0-2.1,0.8-3.3,2.2-3.3s2.2,1.1,2.2,3.3c0,2.1-0.8,3.3-2.2,3.3S35.6,83.7,35.6,81.6z M38.8,81.6
					c0-1.8-0.4-2.4-1.1-2.4c-0.6,0-1.1,0.6-1.1,2.4s0.4,2.4,1.1,2.4C38.4,84,38.8,83.4,38.8,81.6z"/>
				<path d="M40.7,81.6c0-2.1,0.8-3.3,2.2-3.3s2.2,1.1,2.2,3.3c0,2.1-0.8,3.3-2.2,3.3S40.7,83.7,40.7,81.6z M43.9,81.6
					c0-1.8-0.4-2.4-1.1-2.4c-0.6,0-1.1,0.6-1.1,2.4s0.4,2.4,1.1,2.4C43.5,84,43.9,83.4,43.9,81.6z"/>
			</g>
		</g>
		<g transform="translate(0,184.06512879306396)">
			<line class="st1" x1="55.8" y1="81.6" x2="49.8" y2="81.6"/>
			<g class="st0">
				<path d="M30.8,83.3c0.4,0.4,0.8,0.7,1.5,0.7c0.7,0,1.2-0.5,1.2-1.2c0-0.8-0.5-1.2-1.2-1.2c-0.4,0-0.6,0.1-1,0.4l-0.5-0.3
					l0.2-3.1h3.4v1H32l-0.1,1.5c0.3-0.1,0.5-0.2,0.8-0.2c1.1,0,2,0.6,2,2c0,1.4-1.1,2.2-2.2,2.2c-1,0-1.7-0.4-2.2-0.9L30.8,83.3z"/>
				<path d="M36,83.3c0.4,0.4,0.8,0.7,1.5,0.7c0.7,0,1.2-0.5,1.2-1.2c0-0.8-0.5-1.2-1.2-1.2c-0.4,0-0.6,0.1-1,0.4l-0.5-0.3l0.2-3.1
					h3.4v1h-2.4L37,80.9c0.3-0.1,0.5-0.2,0.8-0.2c1.1,0,2,0.6,2,2c0,1.4-1.1,2.2-2.2,2.2c-1,0-1.7-0.4-2.2-0.9L36,83.3z"/>
				<path d="M40.7,81.6c0-2.1,0.8-3.3,2.2-3.3s2.2,1.1,2.2,3.3c0,2.1-0.8,3.3-2.2,3.3S40.7,83.7,40.7,81.6z M43.9,81.6
					c0-1.8-0.4-2.4-1.1-2.4c-0.6,0-1.1,0.6-1.1,2.4s0.4,2.4,1.1,2.4C43.5,84,43.9,83.4,43.9,81.6z"/>
			</g>
		</g>
		<g transform="translate(0,159.88923141061528)">
			<line class="st1" x1="55.8" y1="81.6" x2="49.8" y2="81.6"/>
			<g class="st0">
				<path d="M34.1,79.7c-0.2-0.3-0.6-0.5-1-0.5c-0.8,0-1.4,0.6-1.5,2.3c0.4-0.5,0.9-0.7,1.4-0.7c1.1,0,1.9,0.6,1.9,2
					c0,1.3-0.9,2.1-2,2.1c-1.2,0-2.3-1-2.3-3.1c0-2.5,1.2-3.5,2.5-3.5c0.8,0,1.3,0.3,1.7,0.7L34.1,79.7z M33.7,82.8
					c0-0.8-0.4-1.1-1-1.1c-0.4,0-0.8,0.2-1.1,0.7c0.1,1.1,0.6,1.6,1.2,1.6C33.3,84,33.7,83.6,33.7,82.8z"/>
				<path d="M35.6,81.6c0-2.1,0.8-3.3,2.2-3.3s2.2,1.1,2.2,3.3c0,2.1-0.8,3.3-2.2,3.3S35.6,83.7,35.6,81.6z M38.8,81.6
					c0-1.8-0.4-2.4-1.1-2.4c-0.6,0-1.1,0.6-1.1,2.4s0.4,2.4,1.1,2.4C38.4,84,38.8,83.4,38.8,81.6z"/>
				<path d="M40.7,81.6c0-2.1,0.8-3.3,2.2-3.3s2.2,1.1,2.2,3.3c0,2.1-0.8,3.3-2.2,3.3S40.7,83.7,40.7,81.6z M43.9,81.6
					c0-1.8-0.4-2.4-1.1-2.4c-0.6,0-1.1,0.6-1.1,2.4s0.4,2.4,1.1,2.4C43.5,84,43.9,83.4,43.9,81.6z"/>
			</g>
		</g>
		<g transform="translate(0,135.7133340281665)">
			<line class="st1" x1="55.8" y1="81.6" x2="49.8" y2="81.6"/>
			<g class="st0">
				<path d="M34.1,79.7c-0.2-0.3-0.6-0.5-1-0.5c-0.8,0-1.4,0.6-1.5,2.3c0.4-0.5,0.9-0.7,1.4-0.7c1.1,0,1.9,0.6,1.9,2
					c0,1.3-0.9,2.1-2,2.1c-1.2,0-2.3-1-2.3-3.1c0-2.5,1.2-3.5,2.5-3.5c0.8,0,1.3,0.3,1.7,0.7L34.1,79.7z M33.7,82.8
					c0-0.8-0.4-1.1-1-1.1c-0.4,0-0.8,0.2-1.1,0.7c0.1,1.1,0.6,1.6,1.2,1.6C33.3,84,33.7,83.6,33.7,82.8z"/>
				<path d="M36,83.3c0.4,0.4,0.8,0.7,1.5,0.7c0.7,0,1.2-0.5,1.2-1.2c0-0.8-0.5-1.2-1.2-1.2c-0.4,0-0.6,0.1-1,0.4l-0.5-0.3l0.2-3.1
					h3.4v1h-2.4L37,80.9c0.3-0.1,0.5-0.2,0.8-0.2c1.1,0,2,0.6,2,2c0,1.4-1.1,2.2-2.2,2.2c-1,0-1.7-0.4-2.2-0.9L36,83.3z"/>
				<path d="M40.7,81.6c0-2.1,0.8-3.3,2.2-3.3s2.2,1.1,2.2,3.3c0,2.1-0.8,3.3-2.2,3.3S40.7,83.7,40.7,81.6z M43.9,81.6
					c0-1.8-0.4-2.4-1.1-2.4c-0.6,0-1.1,0.6-1.1,2.4s0.4,2.4,1.1,2.4C43.5,84,43.9,83.4,43.9,81.6z"/>
			</g>
		</g>
		<g transform="translate(0,111.53743664571782)">
			<line class="st1" x1="55.8" y1="81.6" x2="49.8" y2="81.6"/>
			<g class="st0">
				<path d="M33.5,79.4h-3v-1h4.3v0.7c-1.5,1.8-1.7,3.2-1.9,5.7h-1.2C31.9,82.5,32.3,81.1,33.5,79.4z"/>
				<path d="M35.6,81.6c0-2.1,0.8-3.3,2.2-3.3s2.2,1.1,2.2,3.3c0,2.1-0.8,3.3-2.2,3.3S35.6,83.7,35.6,81.6z M38.8,81.6
					c0-1.8-0.4-2.4-1.1-2.4c-0.6,0-1.1,0.6-1.1,2.4s0.4,2.4,1.1,2.4C38.4,84,38.8,83.4,38.8,81.6z"/>
				<path d="M40.7,81.6c0-2.1,0.8-3.3,2.2-3.3s2.2,1.1,2.2,3.3c0,2.1-0.8,3.3-2.2,3.3S40.7,83.7,40.7,81.6z M43.9,81.6
					c0-1.8-0.4-2.4-1.1-2.4c-0.6,0-1.1,0.6-1.1,2.4s0.4,2.4,1.1,2.4C43.5,84,43.9,83.4,43.9,81.6z"/>
			</g>
		</g>
		<g transform="translate(0,87.36153926326907)">
			<line class="st1" x1="55.8" y1="81.6" x2="49.8" y2="81.6"/>
			<g class="st0">
				<path d="M33.5,79.4h-3v-1h4.3v0.7c-1.5,1.8-1.7,3.2-1.9,5.7h-1.2C31.9,82.5,32.3,81.1,33.5,79.4z"/>
				<path d="M36,83.3c0.4,0.4,0.8,0.7,1.5,0.7c0.7,0,1.2-0.5,1.2-1.2c0-0.8-0.5-1.2-1.2-1.2c-0.4,0-0.6,0.1-1,0.4l-0.5-0.3l0.2-3.1
					h3.4v1h-2.4L37,80.9c0.3-0.1,0.5-0.2,0.8-0.2c1.1,0,2,0.6,2,2c0,1.4-1.1,2.2-2.2,2.2c-1,0-1.7-0.4-2.2-0.9L36,83.3z"/>
				<path d="M40.7,81.6c0-2.1,0.8-3.3,2.2-3.3s2.2,1.1,2.2,3.3c0,2.1-0.8,3.3-2.2,3.3S40.7,83.7,40.7,81.6z M43.9,81.6
					c0-1.8-0.4-2.4-1.1-2.4c-0.6,0-1.1,0.6-1.1,2.4s0.4,2.4,1.1,2.4C43.5,84,43.9,83.4,43.9,81.6z"/>
			</g>
		</g>
		<g transform="translate(0,63.18564188082031)">
			<line class="st1" x1="55.8" y1="81.6" x2="49.8" y2="81.6"/>
			<g class="st0">
				<path d="M31.6,81.5L31.6,81.5c-0.5-0.4-0.9-0.9-0.9-1.5c0-1,0.8-1.7,1.9-1.7c1.1,0,1.9,0.7,1.9,1.7c0,0.6-0.4,1.2-0.8,1.5v0
					c0.6,0.3,1.1,0.8,1.1,1.6c0,1-0.9,1.7-2.1,1.7c-1.2,0-2.2-0.7-2.2-1.7C30.5,82.4,31,81.8,31.6,81.5z M32.7,84.1c0.6,0,1-0.4,1-1
					c0-0.7-0.7-0.9-1.5-1.3c-0.4,0.3-0.7,0.7-0.7,1.2C31.5,83.7,32,84.1,32.7,84.1z M33.6,80.1c0-0.6-0.3-1-0.9-1
					c-0.5,0-0.9,0.3-0.9,0.9c0,0.6,0.6,0.9,1.3,1.2C33.4,80.8,33.6,80.5,33.6,80.1z"/>
				<path d="M35.6,81.6c0-2.1,0.8-3.3,2.2-3.3s2.2,1.1,2.2,3.3c0,2.1-0.8,3.3-2.2,3.3S35.6,83.7,35.6,81.6z M38.8,81.6
					c0-1.8-0.4-2.4-1.1-2.4c-0.6,0-1.1,0.6-1.1,2.4s0.4,2.4,1.1,2.4C38.4,84,38.8,83.4,38.8,81.6z"/>
				<path d="M40.7,81.6c0-2.1,0.8-3.3,2.2-3.3s2.2,1.1,2.2,3.3c0,2.1-0.8,3.3-2.2,3.3S40.7,83.7,40.7,81.6z M43.9,81.6
					c0-1.8-0.4-2.4-1.1-2.4c-0.6,0-1.1,0.6-1.1,2.4s0.4,2.4,1.1,2.4C43.5,84,43.9,83.4,43.9,81.6z"/>
			</g>
		</g>
		<g transform="translate(0,39.00974449837161)">
			<line class="st1" x1="55.8" y1="81.6" x2="49.8" y2="81.6"/>
			<g class="st0">
				<path d="M31.6,81.5L31.6,81.5c-0.5-0.4-0.9-0.9-0.9-1.5c0-1,0.8-1.7,1.9-1.7c1.1,0,1.9,0.7,1.9,1.7c0,0.6-0.4,1.2-0.8,1.5v0
					c0.6,0.3,1.1,0.8,1.1,1.6c0,1-0.9,1.7-2.1,1.7c-1.2,0-2.2-0.7-2.2-1.7C30.5,82.4,31,81.8,31.6,81.5z M32.7,84.1c0.6,0,1-0.4,1-1
					c0-0.7-0.7-0.9-1.5-1.3c-0.4,0.3-0.7,0.7-0.7,1.2C31.5,83.7,32,84.1,32.7,84.1z M33.6,80.1c0-0.6-0.3-1-0.9-1
					c-0.5,0-0.9,0.3-0.9,0.9c0,0.6,0.6,0.9,1.3,1.2C33.4,80.8,33.6,80.5,33.6,80.1z"/>
				<path d="M36,83.3c0.4,0.4,0.8,0.7,1.5,0.7c0.7,0,1.2-0.5,1.2-1.2c0-0.8-0.5-1.2-1.2-1.2c-0.4,0-0.6,0.1-1,0.4l-0.5-0.3l0.2-3.1
					h3.4v1h-2.4L37,80.9c0.3-0.1,0.5-0.2,0.8-0.2c1.1,0,2,0.6,2,2c0,1.4-1.1,2.2-2.2,2.2c-1,0-1.7-0.4-2.2-0.9L36,83.3z"/>
				<path d="M40.7,81.6c0-2.1,0.8-3.3,2.2-3.3s2.2,1.1,2.2,3.3c0,2.1-0.8,3.3-2.2,3.3S40.7,83.7,40.7,81.6z M43.9,81.6
					c0-1.8-0.4-2.4-1.1-2.4c-0.6,0-1.1,0.6-1.1,2.4s0.4,2.4,1.1,2.4C43.5,84,43.9,83.4,43.9,81.6z"/>
			</g>
		</g>
		<g transform="translate(0,14.833847115922861)">
			<line class="st1" x1="55.8" y1="81.6" x2="49.8" y2="81.6"/>
			<g class="st0">
				<path d="M31.2,83.5c0.2,0.3,0.6,0.5,1,0.5c0.8,0,1.4-0.6,1.5-2.3c-0.4,0.5-0.9,0.7-1.4,0.7c-1.1,0-1.8-0.6-1.8-2
					c0-1.3,0.9-2.1,2-2.1c1.2,0,2.3,1,2.3,3.1c0,2.5-1.2,3.5-2.5,3.5c-0.8,0-1.3-0.3-1.7-0.7L31.2,83.5z M33.6,80.8
					c-0.1-1.1-0.6-1.6-1.2-1.6c-0.5,0-0.9,0.4-0.9,1.2c0,0.7,0.4,1.1,1,1.1C32.9,81.5,33.3,81.3,33.6,80.8z"/>
				<path d="M35.6,81.6c0-2.1,0.8-3.3,2.2-3.3s2.2,1.1,2.2,3.3c0,2.1-0.8,3.3-2.2,3.3S35.6,83.7,35.6,81.6z M38.8,81.6
					c0-1.8-0.4-2.4-1.1-2.4c-0.6,0-1.1,0.6-1.1,2.4s0.4,2.4,1.1,2.4C38.4,84,38.8,83.4,38.8,81.6z"/>
				<path d="M40.7,81.6c0-2.1,0.8-3.3,2.2-3.3s2.2,1.1,2.2,3.3c0,2.1-0.8,3.3-2.2,3.3S40.7,83.7,40.7,81.6z M43.9,81.6
					c0-1.8-0.4-2.4-1.1-2.4c-0.6,0-1.1,0.6-1.1,2.4s0.4,2.4,1.1,2.4C43.5,84,43.9,83.4,43.9,81.6z"/>
			</g>
		</g>
		<path class="st1" d="M49.8,81.6h6v450h-6"/>
	</g>
	<rect x="56.8" y="223.2" class="st2" width="110" height="308.4"/>
	<rect x="178.8" y="187.9" class="st3" width="110" height="343.6"/>
	<rect x="300.8" y="138.7" class="st4" width="110" height="392.8"/>
	<rect x="422.8" y="119.7" class="st5" width="110" height="411.9"/>
	<rect x="544.8" y="81.6" class="st6" width="110" height="450"/>
</g>
<g transform="translate(50,450)">
	<g transform="translate(56,0)">
		<line class="st1" x1="55.8" y1="81.6" x2="55.8" y2="87.6"/>
		<g class="st0">
			<path d="M49.3,96.7h1.4v-4.2h-1.2v-0.7c0.6-0.1,1.1-0.3,1.5-0.5h0.9v5.4h1.2v0.9h-3.8V96.7z"/>
			<path d="M56.3,92.6c1.3,0,2,1,2,2.3c0,0.2,0,0.4,0,0.5h-3.1c0.1,0.9,0.7,1.4,1.4,1.4c0.4,0,0.8-0.1,1.1-0.4l0.4,0.7
				c-0.5,0.3-1.1,0.5-1.7,0.5c-1.4,0-2.4-0.9-2.4-2.6C54.1,93.6,55.2,92.6,56.3,92.6z M57.4,94.8c0-0.8-0.3-1.2-1-1.2
				c-0.6,0-1.1,0.4-1.2,1.2H57.4z"/>
			<path d="M59.5,92.8h0.9l0.1,0.9h0c0.4-0.6,0.9-1,1.4-1c0.2,0,0.4,0,0.6,0.1l-0.2,1c-0.2,0-0.3-0.1-0.5-0.1c-0.4,0-0.9,0.3-1.2,1
				v3h-1.1V92.8z"/>
		</g>
	</g>
	<g transform="translate(178,0)">
		<line class="st1" x1="55.8" y1="81.6" x2="55.8" y2="87.6"/>
		<g class="st0">
			<path d="M47.8,97c1.8-1.7,2.9-2.8,2.9-3.8c0-0.7-0.4-1.1-1-1.1c-0.5,0-0.9,0.3-1.2,0.7l-0.6-0.6c0.6-0.6,1.2-1,2-1
				c1.2,0,2,0.8,2,1.9c0,1.1-1,2.3-2.3,3.6c0.3,0,0.7-0.1,1.1-0.1h1.6v1h-4.3V97z"/>
			<path d="M55,92.6c0.6,0,0.9,0.2,1.3,0.5l0-0.8v-1.8h1.1v7.1h-0.9l-0.1-0.5h0c-0.4,0.4-0.9,0.6-1.4,0.6c-1.2,0-2-0.9-2-2.6
				C53,93.6,54,92.6,55,92.6z M55.3,96.8c0.4,0,0.7-0.2,1-0.5V94c-0.3-0.3-0.7-0.4-1-0.4c-0.6,0-1.1,0.6-1.1,1.6
				C54.2,96.3,54.6,96.8,55.3,96.8z"/>
			<path d="M60.9,92.6c1.2,0,2.3,0.9,2.3,2.6c0,1.6-1.1,2.6-2.3,2.6c-1.2,0-2.3-0.9-2.3-2.6C58.6,93.6,59.7,92.6,60.9,92.6z
				 M60.9,96.9c0.7,0,1.2-0.6,1.2-1.6c0-1-0.4-1.6-1.2-1.6c-0.7,0-1.1,0.6-1.1,1.6C59.8,96.2,60.2,96.9,60.9,96.9z"/>
		</g>
	</g>
	<g transform="translate(300,0)">
		<line class="st1" x1="55.8" y1="81.6" x2="55.8" y2="87.6"/>
		<g class="st0">
			<path d="M49.3,96.2c0.4,0.4,0.9,0.7,1.5,0.7c0.7,0,1.2-0.4,1.2-1c0-0.7-0.4-1.1-1.9-1.1V94c1.2,0,1.7-0.4,1.7-1
				c0-0.5-0.4-0.8-0.9-0.8c-0.5,0-0.9,0.2-1.3,0.6L49,92c0.5-0.5,1.1-0.8,1.9-0.8c1.2,0,2.1,0.6,2.1,1.7c0,0.7-0.4,1.2-1.1,1.5v0
				c0.7,0.2,1.3,0.7,1.3,1.6c0,1.2-1,1.8-2.2,1.8c-1,0-1.7-0.4-2.2-0.9L49.3,96.2z"/>
			<path d="M56.3,92.6c1.3,0,2,1,2,2.3c0,0.2,0,0.4,0,0.5h-3.1c0.1,0.9,0.7,1.4,1.4,1.4c0.4,0,0.8-0.1,1.1-0.4l0.4,0.7
				c-0.5,0.3-1.1,0.5-1.7,0.5c-1.4,0-2.4-0.9-2.4-2.6C54.1,93.6,55.2,92.6,56.3,92.6z M57.4,94.8c0-0.8-0.3-1.2-1-1.2
				c-0.6,0-1.1,0.4-1.2,1.2H57.4z"/>
			<path d="M59.5,92.8h0.9l0.1,0.9h0c0.3-0.6,0.9-1,1.4-1c0.2,0,0.4,0,0.6,0.1l-0.2,1c-0.2,0-0.3-0.1-0.5-0.1c-0.4,0-0.9,0.3-1.2,1
				v3h-1.1V92.8z"/>
		</g>
	</g>
	<g transform="translate(422,0)">
		<line class="st1" x1="55.8" y1="81.6" x2="55.8" y2="87.6"/>
		<g class="st0">
			<path d="M53.7,96h-0.8v1.6h-1.1V96H49v-0.8l2.5-3.9h1.4v3.8h0.8V96z M51.8,95.1v-1.4c0-0.4,0-0.9,0-1.3h0c-0.2,0.3-0.3,0.6-0.5,1
				l-1.2,1.8H51.8z"/>
			<path d="M54.8,93.7h-0.7v-0.9l0.8,0l0.1-1.3h1v1.3h1.2v0.9H56V96c0,0.6,0.2,0.9,0.7,0.9c0.2,0,0.4,0,0.5-0.1l0.2,0.8
				c-0.3,0.1-0.6,0.2-1,0.2c-1.1,0-1.6-0.7-1.6-1.8V93.7z"/>
			<path d="M60.2,92.6c1.2,0,2.3,0.9,2.3,2.6c0,1.6-1.1,2.6-2.3,2.6c-1.2,0-2.3-0.9-2.3-2.6C57.8,93.6,59,92.6,60.2,92.6z
				 M60.2,96.9c0.7,0,1.2-0.6,1.2-1.6c0-1-0.4-1.6-1.2-1.6S59,94.2,59,95.2C59,96.2,59.5,96.9,60.2,96.9z"/>
		</g>
	</g>
	<g transform="translate(544,0)">
		<line class="st1" x1="55.8" y1="81.6" x2="55.8" y2="87.6"/>
		<g class="st0">
			<path d="M49.6,96.2c0.4,0.4,0.8,0.7,1.5,0.7c0.7,0,1.2-0.5,1.2-1.2c0-0.8-0.5-1.2-1.2-1.2c-0.4,0-0.6,0.1-1,0.4l-0.5-0.3l0.2-3.1
				h3.4v1h-2.4l-0.1,1.5c0.3-0.1,0.5-0.2,0.8-0.2c1.1,0,2,0.6,2,2c0,1.4-1.1,2.2-2.2,2.2c-1,0-1.7-0.4-2.2-0.9L49.6,96.2z"/>
			<path d="M54.8,93.7h-0.7v-0.9l0.8,0l0.1-1.3h1v1.3h1.2v0.9H56V96c0,0.6,0.2,0.9,0.7,0.9c0.2,0,0.4,0,0.5-0.1l0.2,0.8
				c-0.3,0.1-0.6,0.2-1,0.2c-1.1,0-1.6-0.7-1.6-1.8V93.7z"/>
			<path d="M60.2,92.6c1.2,0,2.3,0.9,2.3,2.6c0,1.6-1.1,2.6-2.3,2.6c-1.2,0-2.3-0.9-2.3-2.6C57.8,93.6,59,92.6,60.2,92.6z
				 M60.2,96.9c0.7,0,1.2-0.6,1.2-1.6c0-1-0.4-1.6-1.2-1.6S59,94.2,59,95.2C59,96.2,59.5,96.9,60.2,96.9z"/>
		</g>
	</g>
	<path class="st1" d="M55.8,87.6v-6h600v6"/>
	<line class="st1" x1="655.8" y1="81.6" x2="708.6" y2="81.6"/>
</g>
</svg>
