<?xml version="1.0" encoding="utf-8"?>
<!-- Generator: Adobe Illustrator 21.1.0, SVG Export Plug-In . SVG Version: 6.00 Build 0)  -->
<svg version="1.1" id="Capa_1" xmlns="http://www.w3.org/2000/svg" xmlns:xlink="http://www.w3.org/1999/xlink" x="0px" y="0px"
	 viewBox="0 0 788 734" style="enable-background:new 0 0 788 734;" xml:space="preserve">
<style type="text/css">
	.st0{fill:none;stroke:#B2B2B2;stroke-miterlimit:10;}
	.st1{display:none;}
	.st2{display:inline;fill:#BF6969;stroke:#FFFFFF;}
	.st3{fill:#41DDCD;}
	.st4{fill:#FEAE01;}
	.st5{fill:#442D60;}
	.st6{fill:#FFFFFF;}
</style>
<polyline class="st0" points="198.6,212.9 198.6,176.2 114.1,176.2 "/>
<g transform="translate(250,250)">
	<g class="st1">
		<path class="st2" d="M144,293.8c-97.6,0-176.8-79.1-176.8-176.8S46.4-59.8,144-59.8S320.8,19.4,320.8,117S241.6,293.8,144,293.8z"
			/>
		<title>undefined: none</title>
	</g>
	<g>
		<g>
			<path class="st3" d="M144-133c63,0,123.8,23.8,170,66.7l-49.8,53.7C231.5-42.9,188.6-59.8,144-59.8V-133z"/>
		</g>
	</g>
	<g>
		<g>
			<path class="st4" d="M314-66.3C415.2,27.6,421.2,185.7,327.3,287S75.3,394.2-26,300.3c-18.8-17.5-34.9-37.8-47.6-60.1l63.7-36.1
				c48.1,85,156,114.8,240.9,66.7s114.8-156,66.7-240.9c-9-15.8-20.3-30.2-33.6-42.5L314-66.3z"/>
		</g>
	</g>
	<g>
		<path class="st5" d="M-73.5,240.2c-68-120.1-25.8-272.7,94.4-340.7c37.6-21.3,80-32.5,123.2-32.5v73.2
			C46.4-59.8-32.8,19.4-32.8,117c0,30.5,7.9,60.5,22.9,87.1L-73.5,240.2z"/>
		<title>Particular Subvencionado:</title>
	</g>
</g>
<image style="overflow:visible;" width="1366" height="768" xlink:href="CE4E1D68.jpg"  transform="matrix(1 0 0 1 1357.0001 106.1818)">
</image>
<g>
	<path class="st6" d="M516.4,518.9c0.9,0.8,2,1.5,3.3,1.5c1.6,0,2.6-0.8,2.6-2.4c0-1.5-1-2.4-2.4-2.4c-0.9,0-1.3,0.2-2.3,0.8l-1.6-1
		l0.4-7.7h8.6v3h-5.6l-0.3,2.9c0.6-0.3,1.1-0.4,1.7-0.4c2.6,0,4.8,1.5,4.8,4.7c0,3.4-2.6,5.3-5.6,5.3c-2.5,0-4.2-0.9-5.4-2.1
		L516.4,518.9z"/>
	<path class="st6" d="M539,519.4h-1.8v3.6H534v-3.6h-6.6v-2.4l5.6-9.2h4.3v8.9h1.8V519.4z M534,516.7v-2.5c0-1,0.1-2.4,0.1-3.4H534
		c-0.4,0.8-0.8,1.7-1.2,2.6l-2,3.3H534z"/>
	<path class="st6" d="M540.7,525.8c1.8-0.6,2.7-1.7,2.7-2.9c-0.1,0-0.1,0-0.2,0c-1.1,0-2.1-0.7-2.1-2c0-1.2,1-2,2.2-2
		c1.6,0,2.4,1.2,2.4,3.3c0,2.6-1.5,4.6-4.3,5.5L540.7,525.8z"/>
	<path class="st6" d="M549.7,519.4c0.5,0.6,1.5,1.1,2.4,1.1c1.7,0,3-1.2,3.1-4.8c-0.8,1-2.1,1.6-3,1.6c-2.6,0-4.5-1.5-4.5-4.7
		c0-3.2,2.3-5.1,5.1-5.1c3,0,5.8,2.2,5.8,7.6c0,5.7-3,8.3-6.2,8.3c-2,0-3.5-0.9-4.5-1.8L549.7,519.4z M555.1,513.3
		c-0.3-2.4-1.3-3.2-2.4-3.2c-1,0-1.9,0.7-1.9,2.5c0,1.6,0.9,2.2,2,2.2C553.6,514.8,554.5,514.4,555.1,513.3z"/>
	<path class="st6" d="M560.1,512c0-3.1,1.6-4.9,3.9-4.9s3.9,1.8,3.9,4.9c0,3.1-1.7,5-3.9,5S560.1,515.2,560.1,512z M565.4,512
		c0-2.2-0.6-3-1.4-3s-1.4,0.8-1.4,3c0,2.2,0.6,3,1.4,3S565.4,514.2,565.4,512z M564.5,523.3l8.4-16.2h2l-8.4,16.2H564.5z
		 M571.6,518.3c0-3.1,1.7-4.9,3.9-4.9s3.9,1.8,3.9,4.9c0,3.1-1.7,5-3.9,5S571.6,521.4,571.6,518.3z M577,518.3c0-2.2-0.6-3-1.4-3
		s-1.4,0.7-1.4,3c0,2.2,0.6,3,1.4,3S577,520.5,577,518.3z"/>
</g>
<g>
	<path class="st6" d="M438.2,173.7h3.3v-8.8h-2.9v-2.2c1.7-0.3,2.7-0.7,3.8-1.4h2.6v12.4h2.9v2.9h-9.7V173.7z"/>
	<path class="st6" d="M450.8,173.7h3.3v-8.8h-2.9v-2.2c1.7-0.3,2.7-0.7,3.8-1.4h2.6v12.4h2.9v2.9h-9.7V173.7z"/>
	<path class="st6" d="M462.9,179.3c1.8-0.6,2.7-1.7,2.7-2.9c-0.1,0-0.1,0-0.2,0c-1.1,0-2.1-0.7-2.1-2c0-1.2,1-2,2.2-2
		c1.6,0,2.4,1.2,2.4,3.3c0,2.6-1.5,4.6-4.3,5.5L462.9,179.3z"/>
	<path class="st6" d="M471.9,172.9c0.5,0.6,1.5,1.1,2.4,1.1c1.7,0,3-1.2,3.1-4.8c-0.8,1-2.1,1.6-3,1.6c-2.6,0-4.5-1.5-4.5-4.7
		c0-3.2,2.3-5.1,5.1-5.1c3,0,5.8,2.2,5.8,7.6c0,5.7-3,8.3-6.2,8.3c-2,0-3.5-0.9-4.5-1.8L471.9,172.9z M477.4,166.8
		c-0.3-2.4-1.3-3.2-2.4-3.2c-1,0-1.9,0.7-1.9,2.5c0,1.6,0.9,2.2,2,2.2C475.9,168.4,476.7,167.9,477.4,166.8z"/>
	<path class="st6" d="M482.3,165.6c0-3.1,1.6-4.9,3.9-4.9c2.3,0,3.9,1.8,3.9,4.9c0,3.1-1.7,5-3.9,5
		C484,170.6,482.3,168.7,482.3,165.6z M487.7,165.6c0-2.2-0.6-3-1.4-3c-0.8,0-1.4,0.8-1.4,3c0,2.2,0.6,3,1.4,3
		C487,168.6,487.7,167.8,487.7,165.6z M486.8,176.8l8.4-16.2h2l-8.4,16.2H486.8z M493.9,171.9c0-3.1,1.7-4.9,3.9-4.9
		c2.3,0,3.9,1.8,3.9,4.9c0,3.1-1.7,5-3.9,5C495.5,176.8,493.9,175,493.9,171.9z M499.2,171.9c0-2.2-0.6-3-1.4-3
		c-0.8,0-1.4,0.7-1.4,3c0,2.2,0.6,3,1.4,3C498.6,174.9,499.2,174.1,499.2,171.9z"/>
</g>
<g>
	<path class="st6" d="M181.2,261.1c0.9,0.9,2,1.5,3.3,1.5c1.5,0,2.5-0.6,2.5-1.8c0-1.3-0.8-2.2-4.1-2.2v-2.5c2.7,0,3.6-0.8,3.6-2
		c0-1.1-0.7-1.7-1.9-1.7c-1.1,0-1.9,0.5-2.9,1.3l-1.8-2.2c1.4-1.2,2.9-1.9,4.8-1.9c3.1,0,5.3,1.5,5.3,4.2c0,1.6-0.9,2.7-2.5,3.4v0.1
		c1.8,0.5,3,1.8,3,3.7c0,2.8-2.6,4.4-5.7,4.4c-2.5,0-4.2-0.9-5.3-2.2L181.2,261.1z"/>
	<path class="st6" d="M193.8,261.1c0.9,0.9,2,1.5,3.3,1.5c1.5,0,2.5-0.6,2.5-1.8c0-1.3-0.8-2.2-4.1-2.2v-2.5c2.7,0,3.6-0.8,3.6-2
		c0-1.1-0.7-1.7-1.9-1.7c-1.1,0-1.9,0.5-2.9,1.3l-1.8-2.2c1.4-1.2,2.9-1.9,4.8-1.9c3.1,0,5.3,1.5,5.3,4.2c0,1.6-0.9,2.7-2.5,3.4v0.1
		c1.8,0.5,3,1.8,3,3.7c0,2.8-2.6,4.4-5.7,4.4c-2.5,0-4.2-0.9-5.3-2.2L193.8,261.1z"/>
	<path class="st6" d="M205.5,268c1.8-0.6,2.7-1.7,2.7-2.9c-0.1,0-0.1,0-0.2,0c-1.1,0-2.1-0.7-2.1-2c0-1.2,1-2,2.2-2
		c1.6,0,2.4,1.2,2.4,3.3c0,2.6-1.5,4.6-4.3,5.5L205.5,268z"/>
	<path class="st6" d="M212.4,263.2c3.9-3.7,6.6-6.3,6.6-8.4c0-1.5-0.8-2.3-2.2-2.3c-1.1,0-1.9,0.7-2.7,1.6l-1.9-1.9
		c1.5-1.6,2.9-2.4,5.1-2.4c3,0,5,1.9,5,4.8c0,2.6-2.4,5.3-4.9,7.9c0.8-0.1,1.8-0.2,2.5-0.2h3.1v3h-10.7V263.2z"/>
	<path class="st6" d="M224.8,254.2c0-3.1,1.6-4.9,3.9-4.9c2.3,0,3.9,1.8,3.9,4.9c0,3.1-1.7,5-3.9,5
		C226.5,259.2,224.8,257.4,224.8,254.2z M230.2,254.2c0-2.2-0.6-3-1.4-3c-0.8,0-1.4,0.8-1.4,3c0,2.2,0.6,3,1.4,3
		C229.5,257.2,230.2,256.4,230.2,254.2z M229.3,265.5l8.4-16.2h2l-8.4,16.2H229.3z M236.4,260.5c0-3.1,1.7-4.9,3.9-4.9
		c2.3,0,3.9,1.8,3.9,4.9c0,3.1-1.7,5-3.9,5C238,265.5,236.4,263.6,236.4,260.5z M241.7,260.5c0-2.2-0.6-3-1.4-3
		c-0.8,0-1.4,0.7-1.4,3c0,2.2,0.6,3,1.4,3C241.1,263.5,241.7,262.7,241.7,260.5z"/>
</g>
<polyline class="st0" points="504.7,142.9 504.7,106.2 589.2,106.2 "/>
<g>
	<path d="M594.8,100.3h2.3l2.1,5.8l0.8,2.2h0.1l0.8-2.2l2.1-5.8h2.3V112h-2v-5.4c0-1.1,0.2-2.7,0.3-3.7h-0.1l-1,2.7l-2,5.3h-1
		l-2-5.3l-0.9-2.7h-0.1c0.1,1.1,0.3,2.6,0.3,3.7v5.4h-1.9V100.3z"/>
	<path d="M607.9,103.2h2.1v5.3c0,1.5,0.4,2,1.4,2c0.8,0,1.3-0.4,2-1.2v-6h2.1v8.8h-1.7l-0.2-1.3h-0.1c-0.8,0.9-1.6,1.5-2.8,1.5
		c-1.9,0-2.7-1.3-2.7-3.5V103.2z"/>
	<path d="M618,103.2h1.7l0.1,1.2h0.1c0.8-0.8,1.7-1.4,2.9-1.4c1.9,0,2.7,1.3,2.7,3.5v5.5h-2.1v-5.3c0-1.5-0.4-2-1.4-2
		c-0.8,0-1.3,0.4-2,1.1v6.2H618V103.2z"/>
	<path d="M627.9,100.5c0-0.7,0.5-1.2,1.3-1.2s1.3,0.5,1.3,1.2c0,0.7-0.5,1.2-1.3,1.2S627.9,101.2,627.9,100.5z M628.1,103.2h2.1v8.8
		h-2.1V103.2z"/>
	<path d="M636.7,103c1.1,0,2,0.5,2.6,1l-1,1.3c-0.5-0.4-0.9-0.6-1.5-0.6c-1.4,0-2.4,1.2-2.4,3c0,1.8,1,2.9,2.4,2.9
		c0.7,0,1.3-0.4,1.8-0.8l0.9,1.3c-0.8,0.7-1.9,1.1-2.9,1.1c-2.4,0-4.3-1.7-4.3-4.6C632.2,104.7,634.3,103,636.7,103z"/>
	<path d="M640.9,100.5c0-0.7,0.5-1.2,1.3-1.2s1.3,0.5,1.3,1.2c0,0.7-0.5,1.2-1.3,1.2S640.9,101.2,640.9,100.5z M641.1,103.2h2.1v8.8
		h-2.1V103.2z"/>
	<path d="M647.9,112.8v2.8h-2.1v-12.3h1.7l0.1,0.9h0.1c0.7-0.6,1.7-1.2,2.7-1.2c2.2,0,3.5,1.8,3.5,4.5c0,3-1.8,4.8-3.8,4.8
		c-0.8,0-1.5-0.4-2.3-1L647.9,112.8z M649.7,110.5c1.2,0,2.1-1,2.1-3c0-1.8-0.6-2.8-1.9-2.8c-0.6,0-1.3,0.3-1.9,1v4.1
		C648.6,110.3,649.2,110.5,649.7,110.5z"/>
	<path d="M660.6,106.4c0-0.9-0.4-1.7-1.6-1.7c-0.9,0-1.7,0.4-2.5,0.9l-0.8-1.4c1-0.6,2.2-1.2,3.6-1.2c2.2,0,3.3,1.4,3.3,3.8v5.2H661
		l-0.2-1h-0.1c-0.8,0.7-1.7,1.2-2.7,1.2c-1.5,0-2.6-1-2.6-2.6C655.4,107.8,657,106.8,660.6,106.4z M658.7,110.6c0.7,0,1.3-0.4,1.9-1
		v-2c-2.4,0.3-3.2,0.9-3.2,1.8C657.4,110.3,657.9,110.6,658.7,110.6z"/>
	<path d="M665.2,99.3h2.1v10.6c0,0.5,0.2,0.7,0.5,0.7c0.1,0,0.2,0,0.3,0l0.3,1.5c-0.3,0.1-0.6,0.2-1.1,0.2c-1.5,0-2-1-2-2.5V99.3z"
		/>
</g>
<polyline class="st0" points="429.7,614 429.7,650.7 514.3,650.7 "/>
<g>
	<path d="M524.8,636.9h4c2.6,0,4.5,0.9,4.5,3.6c0,2.6-1.9,3.8-4.5,3.8h-1.9v4.3h-2.1V636.9z M528.6,642.7c1.8,0,2.6-0.7,2.6-2.1
		c0-1.5-0.9-2-2.6-2h-1.7v4.1H528.6z"/>
	<path d="M539.4,643.1c0-0.9-0.4-1.7-1.6-1.7c-0.9,0-1.7,0.4-2.5,0.9l-0.8-1.4c1-0.6,2.2-1.2,3.6-1.2c2.2,0,3.3,1.4,3.3,3.8v5.2
		h-1.7l-0.2-1h-0.1c-0.8,0.7-1.7,1.2-2.7,1.2c-1.5,0-2.6-1-2.6-2.6C534.1,644.4,535.7,643.5,539.4,643.1z M537.4,647.3
		c0.7,0,1.3-0.4,1.9-1v-2c-2.4,0.3-3.2,0.9-3.2,1.8C536.2,647,536.7,647.3,537.4,647.3z"/>
	<path d="M543.9,639.9h1.7l0.1,1.6h0.1c0.6-1.2,1.6-1.8,2.5-1.8c0.5,0,0.7,0.1,1,0.2l-0.4,1.8c-0.3-0.1-0.5-0.1-0.9-0.1
		c-0.7,0-1.5,0.5-2.1,1.8v5.4h-2.1V639.9z"/>
	<path d="M551,641.5h-1.3V640l1.4-0.1l0.3-2.4h1.7v2.4h2.3v1.6H553v4.2c0,1,0.4,1.5,1.2,1.5c0.3,0,0.7-0.1,0.9-0.2l0.4,1.5
		c-0.5,0.2-1.1,0.3-1.8,0.3c-2.1,0-2.8-1.3-2.8-3.2V641.5z"/>
	<path d="M556.9,637.1c0-0.7,0.5-1.2,1.3-1.2s1.3,0.5,1.3,1.2c0,0.7-0.5,1.2-1.3,1.2S556.9,637.8,556.9,637.1z M557.2,639.9h2.1v8.8
		h-2.1V639.9z"/>
	<path d="M565.7,639.7c1.1,0,2,0.5,2.6,1l-1,1.3c-0.5-0.4-0.9-0.6-1.5-0.6c-1.4,0-2.4,1.2-2.4,3c0,1.8,1,2.9,2.4,2.9
		c0.7,0,1.3-0.4,1.8-0.8l0.9,1.3c-0.8,0.7-1.9,1.1-2.9,1.1c-2.4,0-4.3-1.7-4.3-4.6C561.3,641.3,563.4,639.7,565.7,639.7z"/>
	<path d="M570.1,639.9h2.1v5.3c0,1.5,0.4,2,1.4,2c0.8,0,1.3-0.4,2-1.2v-6h2.1v8.8h-1.7l-0.2-1.3h-0.1c-0.8,0.9-1.6,1.5-2.8,1.5
		c-1.9,0-2.7-1.3-2.7-3.5V639.9z"/>
	<path d="M580.2,636h2.1v10.6c0,0.5,0.2,0.7,0.5,0.7c0.1,0,0.2,0,0.3,0l0.3,1.5c-0.3,0.1-0.6,0.2-1.1,0.2c-1.5,0-2-1-2-2.5V636z"/>
	<path d="M589.9,643.1c0-0.9-0.4-1.7-1.6-1.7c-0.9,0-1.7,0.4-2.5,0.9l-0.8-1.4c1-0.6,2.2-1.2,3.6-1.2c2.2,0,3.3,1.4,3.3,3.8v5.2
		h-1.7l-0.2-1h-0.1c-0.8,0.7-1.7,1.2-2.7,1.2c-1.5,0-2.6-1-2.6-2.6C584.7,644.4,586.3,643.5,589.9,643.1z M588,647.3
		c0.7,0,1.3-0.4,1.9-1v-2c-2.4,0.3-3.2,0.9-3.2,1.8C586.7,647,587.2,647.3,588,647.3z"/>
	<path d="M594.5,639.9h1.7l0.1,1.6h0.1c0.6-1.2,1.6-1.8,2.5-1.8c0.5,0,0.7,0.1,1,0.2l-0.4,1.8c-0.3-0.1-0.5-0.1-0.9-0.1
		c-0.7,0-1.5,0.5-2.1,1.8v5.4h-2.1V639.9z"/>
	<path d="M524.8,655.9h4c2.6,0,4.5,0.9,4.5,3.6c0,2.6-1.9,3.8-4.5,3.8h-1.9v4.3h-2.1V655.9z M528.6,661.7c1.8,0,2.6-0.7,2.6-2.1
		c0-1.5-0.9-2-2.6-2h-1.7v4.1H528.6z"/>
	<path d="M539.4,662.1c0-0.9-0.4-1.7-1.6-1.7c-0.9,0-1.7,0.4-2.5,0.9l-0.8-1.4c1-0.6,2.2-1.2,3.6-1.2c2.2,0,3.3,1.4,3.3,3.8v5.2
		h-1.7l-0.2-1h-0.1c-0.8,0.7-1.7,1.2-2.7,1.2c-1.5,0-2.6-1-2.6-2.6C534.1,663.4,535.7,662.5,539.4,662.1z M537.4,666.3
		c0.7,0,1.3-0.4,1.9-1v-2c-2.4,0.3-3.2,0.9-3.2,1.8C536.2,666,536.7,666.3,537.4,666.3z"/>
	<path d="M544.6,667.4L544.6,667.4c-0.5-0.4-0.8-0.8-0.8-1.5c0-0.7,0.5-1.3,1-1.6v-0.1c-0.6-0.5-1.2-1.3-1.2-2.3
		c0-2,1.6-3.2,3.5-3.2c0.5,0,0.9,0.1,1.3,0.2h3.2v1.5H550c0.3,0.3,0.5,0.9,0.5,1.5c0,2-1.5,3-3.3,3c-0.4,0-0.8-0.1-1.2-0.2
		c-0.3,0.2-0.4,0.5-0.4,0.8c0,0.5,0.4,0.8,1.4,0.8h1.6c2.1,0,3.2,0.6,3.2,2.2c0,1.7-1.8,3.1-4.7,3.1c-2.1,0-3.7-0.8-3.7-2.3
		C543.3,668.6,543.8,667.9,544.6,667.4z M547.3,670.3c1.4,0,2.4-0.7,2.4-1.4c0-0.7-0.6-0.9-1.6-0.9H547c-0.5,0-0.9,0-1.2-0.1
		c-0.5,0.4-0.7,0.8-0.7,1.2C545.1,669.8,545.9,670.3,547.3,670.3z M548.7,661.8c0-1.1-0.7-1.7-1.5-1.7s-1.5,0.6-1.5,1.7
		c0,1.1,0.7,1.8,1.5,1.8C548,663.6,548.7,663,548.7,661.8z"/>
	<path d="M557.8,662.1c0-0.9-0.4-1.7-1.6-1.7c-0.9,0-1.7,0.4-2.5,0.9l-0.8-1.4c1-0.6,2.2-1.2,3.6-1.2c2.2,0,3.3,1.4,3.3,3.8v5.2
		h-1.7l-0.2-1H558c-0.8,0.7-1.7,1.2-2.7,1.2c-1.5,0-2.6-1-2.6-2.6C552.6,663.4,554.2,662.5,557.8,662.1z M555.9,666.3
		c0.7,0,1.3-0.4,1.9-1v-2c-2.4,0.3-3.2,0.9-3.2,1.8C554.6,666,555.1,666.3,555.9,666.3z"/>
	<path d="M565.6,658.7c1,0,1.6,0.4,2.3,1l-0.1-1.4V655h2.1v12.7h-1.7l-0.1-1H568c-0.6,0.6-1.5,1.2-2.5,1.2c-2.2,0-3.6-1.7-3.6-4.6
		C561.8,660.4,563.7,658.7,565.6,658.7z M566,666.2c0.7,0,1.3-0.3,1.9-1v-4.1c-0.6-0.5-1.2-0.7-1.8-0.7c-1.1,0-2.1,1.1-2.1,2.9
		C564,665.2,564.7,666.2,566,666.2z"/>
	<path d="M576.2,658.7c2.2,0,4.2,1.7,4.2,4.6c0,2.9-2,4.6-4.2,4.6c-2.2,0-4.2-1.7-4.2-4.6C572,660.3,574,658.7,576.2,658.7z
		 M576.2,666.2c1.3,0,2.1-1.2,2.1-2.9c0-1.8-0.8-3-2.1-3c-1.3,0-2.1,1.2-2.1,3C574.1,665.1,574.9,666.2,576.2,666.2z"/>
</g>
<g>
	<path d="M33.2,168.5h4c2.6,0,4.5,0.9,4.5,3.6c0,2.6-1.9,3.8-4.5,3.8h-1.9v4.3h-2.1V168.5z M37,174.2c1.8,0,2.6-0.7,2.6-2.1
		c0-1.5-0.9-2-2.6-2h-1.7v4.1H37z"/>
	<path d="M47.8,174.6c0-0.9-0.4-1.7-1.6-1.7c-0.9,0-1.7,0.4-2.5,0.9l-0.8-1.4c1-0.6,2.2-1.2,3.6-1.2c2.2,0,3.3,1.4,3.3,3.8v5.2h-1.7
		l-0.2-1h-0.1c-0.8,0.7-1.7,1.2-2.7,1.2c-1.5,0-2.6-1-2.6-2.6C42.6,176,44.2,175,47.8,174.6z M45.9,178.8c0.7,0,1.3-0.4,1.9-1v-2
		c-2.4,0.3-3.2,0.9-3.2,1.8C44.6,178.5,45.1,178.8,45.9,178.8z"/>
	<path d="M52.4,171.4h1.7l0.1,1.6h0.1c0.6-1.2,1.6-1.8,2.5-1.8c0.5,0,0.7,0.1,1,0.2l-0.4,1.8c-0.3-0.1-0.5-0.1-0.9-0.1
		c-0.7,0-1.5,0.5-2.1,1.8v5.4h-2.1V171.4z"/>
	<path d="M59.4,173h-1.3v-1.5l1.4-0.1l0.3-2.4h1.7v2.4h2.3v1.6h-2.3v4.2c0,1,0.4,1.5,1.2,1.5c0.3,0,0.7-0.1,0.9-0.2l0.4,1.5
		c-0.5,0.2-1.1,0.3-1.8,0.3c-2.1,0-2.8-1.3-2.8-3.2V173z"/>
	<path d="M65.4,168.7c0-0.7,0.5-1.2,1.3-1.2s1.3,0.5,1.3,1.2c0,0.7-0.5,1.2-1.3,1.2S65.4,169.4,65.4,168.7z M65.6,171.4h2.1v8.8
		h-2.1V171.4z"/>
	<path d="M74.2,171.2c1.1,0,2,0.5,2.6,1l-1,1.3c-0.5-0.4-0.9-0.6-1.5-0.6c-1.4,0-2.4,1.2-2.4,3c0,1.8,1,2.9,2.4,2.9
		c0.7,0,1.3-0.4,1.8-0.8l0.9,1.3c-0.8,0.7-1.9,1.1-2.9,1.1c-2.4,0-4.3-1.7-4.3-4.6C69.7,172.9,71.8,171.2,74.2,171.2z"/>
	<path d="M78.5,171.4h2.1v5.3c0,1.5,0.4,2,1.4,2c0.8,0,1.3-0.4,2-1.2v-6H86v8.8h-1.7l-0.2-1.3h-0.1c-0.8,0.9-1.6,1.5-2.8,1.5
		c-1.9,0-2.7-1.3-2.7-3.5V171.4z"/>
	<path d="M88.6,167.5h2.1v10.6c0,0.5,0.2,0.7,0.5,0.7c0.1,0,0.2,0,0.3,0l0.3,1.5c-0.3,0.1-0.6,0.2-1.1,0.2c-1.5,0-2-1-2-2.5V167.5z"
		/>
	<path d="M98.3,174.6c0-0.9-0.4-1.7-1.6-1.7c-0.9,0-1.7,0.4-2.5,0.9l-0.8-1.4c1-0.6,2.2-1.2,3.6-1.2c2.2,0,3.3,1.4,3.3,3.8v5.2h-1.7
		l-0.2-1h-0.1c-0.8,0.7-1.7,1.2-2.7,1.2c-1.5,0-2.6-1-2.6-2.6C93.1,176,94.7,175,98.3,174.6z M96.4,178.8c0.7,0,1.3-0.4,1.9-1v-2
		c-2.4,0.3-3.2,0.9-3.2,1.8C95.1,178.5,95.7,178.8,96.4,178.8z"/>
	<path d="M102.9,171.4h1.7l0.1,1.6h0.1c0.6-1.2,1.6-1.8,2.5-1.8c0.5,0,0.7,0.1,1,0.2l-0.4,1.8c-0.3-0.1-0.5-0.1-0.9-0.1
		c-0.7,0-1.5,0.5-2.1,1.8v5.4h-2.1V171.4z"/>
	<path d="M33.6,196.3c0.8,0.8,2,1.3,3.1,1.3c1.3,0,2.1-0.6,2.1-1.5c0-1-0.8-1.3-1.8-1.7l-1.6-0.7c-1.2-0.5-2.4-1.4-2.4-3.1
		c0-1.9,1.7-3.3,3.9-3.3c1.4,0,2.7,0.6,3.6,1.5l-1.1,1.3c-0.7-0.6-1.5-1-2.6-1c-1.1,0-1.8,0.5-1.8,1.4c0,0.9,0.9,1.3,1.9,1.7
		l1.6,0.7c1.4,0.6,2.4,1.5,2.4,3.2c0,1.9-1.6,3.5-4.2,3.5c-1.6,0-3.1-0.6-4.2-1.7L33.6,196.3z"/>
	<path d="M42.7,190.4h2.1v5.3c0,1.5,0.4,2,1.4,2c0.8,0,1.3-0.4,2-1.2v-6h2.1v8.8h-1.7l-0.2-1.3h-0.1c-0.8,0.9-1.6,1.5-2.8,1.5
		c-1.9,0-2.7-1.3-2.7-3.5V190.4z"/>
	<path d="M52.8,186.5h2.1v3.3l-0.1,1.5c0.7-0.6,1.7-1.1,2.6-1.1c2.2,0,3.5,1.8,3.5,4.5c0,3-1.8,4.8-3.8,4.8c-0.8,0-1.7-0.4-2.4-1.1
		h-0.1l-0.2,0.9h-1.6V186.5z M56.7,197.7c1.2,0,2.1-1,2.1-3c0-1.8-0.6-2.8-1.9-2.8c-0.6,0-1.3,0.3-1.9,1v4.1
		C55.5,197.5,56.2,197.7,56.7,197.7z"/>
	<path d="M61.8,190.4h2.1l1.4,4.6c0.2,0.9,0.5,1.8,0.7,2.7h0.1c0.3-0.9,0.5-1.8,0.8-2.7l1.4-4.6h2l-3,8.8h-2.4L61.8,190.4z"/>
	<path d="M75.2,190.2c2.4,0,3.7,1.7,3.7,4.2c0,0.4,0,0.8-0.1,1h-5.6c0.2,1.6,1.2,2.5,2.6,2.5c0.8,0,1.4-0.2,2.1-0.6l0.7,1.3
		c-0.8,0.6-1.9,1-3,1c-2.4,0-4.4-1.7-4.4-4.6C71.1,191.9,73.1,190.2,75.2,190.2z M77,194c0-1.4-0.6-2.3-1.8-2.3
		c-1,0-1.9,0.8-2.1,2.3H77z"/>
	<path d="M80.8,190.4h1.7l0.1,1.2h0.1c0.8-0.8,1.7-1.4,2.9-1.4c1.9,0,2.7,1.3,2.7,3.5v5.5h-2.1V194c0-1.5-0.4-2-1.4-2
		c-0.8,0-1.3,0.4-2,1.1v6.2h-2.1V190.4z"/>
	<path d="M94.7,190.2c1.1,0,2,0.5,2.6,1l-1,1.3c-0.5-0.4-0.9-0.6-1.5-0.6c-1.4,0-2.4,1.2-2.4,3c0,1.8,1,2.9,2.4,2.9
		c0.7,0,1.3-0.4,1.8-0.8l0.9,1.3c-0.8,0.7-1.9,1.1-2.9,1.1c-2.4,0-4.3-1.7-4.3-4.6C90.3,191.9,92.4,190.2,94.7,190.2z"/>
	<path d="M99,187.7c0-0.7,0.5-1.2,1.3-1.2s1.3,0.5,1.3,1.2c0,0.7-0.5,1.2-1.3,1.2S99,188.4,99,187.7z M99.2,190.4h2.1v8.8h-2.1
		V190.4z"/>
	<path d="M107.5,190.2c2.2,0,4.2,1.7,4.2,4.6c0,2.9-2,4.6-4.2,4.6c-2.2,0-4.2-1.7-4.2-4.6C103.3,191.9,105.3,190.2,107.5,190.2z
		 M107.5,197.8c1.3,0,2.1-1.2,2.1-2.9c0-1.8-0.8-3-2.1-3c-1.3,0-2.1,1.2-2.1,3C105.5,196.6,106.2,197.8,107.5,197.8z"/>
	<path d="M113.8,190.4h1.7l0.1,1.2h0.1c0.8-0.8,1.7-1.4,2.9-1.4c1.9,0,2.7,1.3,2.7,3.5v5.5h-2.1V194c0-1.5-0.4-2-1.4-2
		c-0.8,0-1.3,0.4-2,1.1v6.2h-2.1V190.4z"/>
	<path d="M128.7,193.6c0-0.9-0.4-1.7-1.6-1.7c-0.9,0-1.7,0.4-2.5,0.9l-0.8-1.4c1-0.6,2.2-1.2,3.6-1.2c2.2,0,3.3,1.4,3.3,3.8v5.2
		h-1.7l-0.2-1h-0.1c-0.8,0.7-1.7,1.2-2.7,1.2c-1.5,0-2.6-1-2.6-2.6C123.5,195,125.1,194,128.7,193.6z M126.8,197.8
		c0.7,0,1.3-0.4,1.9-1v-2c-2.4,0.3-3.2,0.9-3.2,1.8C125.5,197.5,126,197.8,126.8,197.8z"/>
	<path d="M136.5,190.2c1,0,1.6,0.4,2.3,1l-0.1-1.4v-3.2h2.1v12.7h-1.7l-0.1-1h-0.1c-0.6,0.6-1.5,1.2-2.5,1.2c-2.2,0-3.6-1.7-3.6-4.6
		C132.7,191.9,134.6,190.2,136.5,190.2z M136.9,197.7c0.7,0,1.3-0.3,1.9-1v-4.1c-0.6-0.5-1.2-0.7-1.8-0.7c-1.1,0-2.1,1.1-2.1,2.9
		C134.9,196.7,135.6,197.7,136.9,197.7z"/>
	<path d="M147.1,190.2c2.2,0,4.2,1.7,4.2,4.6c0,2.9-2,4.6-4.2,4.6c-2.2,0-4.2-1.7-4.2-4.6C142.9,191.9,144.9,190.2,147.1,190.2z
		 M147.1,197.8c1.3,0,2.1-1.2,2.1-2.9c0-1.8-0.8-3-2.1-3c-1.3,0-2.1,1.2-2.1,3C145,196.6,145.8,197.8,147.1,197.8z"/>
</g>
</svg>
