<?xml version="1.0" encoding="utf-8"?>
<!-- Generator: Adobe Illustrator 21.1.0, SVG Export Plug-In . SVG Version: 6.00 Build 0)  -->
<svg version="1.1" id="Capa_1" xmlns="http://www.w3.org/2000/svg" xmlns:xlink="http://www.w3.org/1999/xlink" x="0px" y="0px"
	 viewBox="0 0 381 481" style="enable-background:new 0 0 381 481;" xml:space="preserve">
<style type="text/css">
	.st0{fill:#FD512D;}
	.st1{fill:#3366CC;}
	.st2{fill:#402A5B;}
	.st3{fill:#FEAE01;}
	.st4{fill:#41DDCD;}
	.st5{enable-background:new    ;}
	.st6{fill:#FFFFFF;}
</style>
<circle class="st0" cx="226.2" cy="196.3" r="34.9"/>
<circle class="st1" cx="300.5" cy="225.7" r="34.9"/>
<circle class="st2" cx="268.7" cy="89.7" r="69.9"/>
<circle class="st3" cx="114" cy="137.2" r="81.9"/>
<circle class="st4" cx="156.8" cy="341.9" r="115.9"/>
<g class="st5">
	<path class="st6" d="M202.6,199.2h1.7v-5h-1.4v-0.9c0.8-0.1,1.3-0.3,1.8-0.6h1v6.5h1.5v1.1h-4.6V199.2z"/>
	<path class="st6" d="M208.5,201.8c0.8-0.3,1.2-0.8,1.2-1.5c0,0-0.1,0-0.1,0c-0.5,0-0.9-0.3-0.9-0.9c0-0.5,0.4-0.9,0.9-0.9
		c0.6,0,1,0.5,1,1.4c0,1.2-0.7,2.1-1.9,2.5L208.5,201.8z"/>
	<path class="st6" d="M211.7,196.5c0-2.6,1-3.9,2.6-3.9s2.6,1.4,2.6,3.9c0,2.6-1,4-2.6,4S211.7,199.1,211.7,196.5z M215.5,196.5
		c0-2.2-0.5-2.8-1.3-2.8c-0.7,0-1.3,0.7-1.3,2.8c0,2.2,0.5,2.9,1.3,2.9C215,199.4,215.5,198.7,215.5,196.5z"/>
	<path class="st6" d="M223.9,196.6c0-0.6-0.3-1.2-1.1-1.2c-0.6,0-1.1,0.3-1.7,0.6l-0.5-0.9c0.6-0.4,1.5-0.8,2.4-0.8
		c1.5,0,2.2,0.9,2.2,2.5v3.5h-1.1l-0.1-0.6h0c-0.5,0.4-1.1,0.8-1.8,0.8c-1,0-1.8-0.7-1.8-1.7C220.4,197.5,221.5,196.8,223.9,196.6z
		 M222.6,199.4c0.5,0,0.9-0.2,1.3-0.6v-1.3c-1.6,0.2-2.1,0.6-2.1,1.2C221.8,199.2,222.1,199.4,222.6,199.4z"/>
	<path class="st6" d="M229.4,199.2h1.7v-5h-1.4v-0.9c0.8-0.1,1.3-0.3,1.8-0.6h1v6.5h1.5v1.1h-4.6V199.2z"/>
	<path class="st6" d="M235.3,201.8c0.8-0.3,1.2-0.8,1.2-1.5c0,0-0.1,0-0.1,0c-0.5,0-0.9-0.3-0.9-0.9c0-0.5,0.4-0.9,0.9-0.9
		c0.6,0,1,0.5,1,1.4c0,1.2-0.7,2.1-1.9,2.5L235.3,201.8z"/>
	<path class="st6" d="M243.8,198.4h-1v2h-1.3v-2h-3.4v-0.9l3-4.7h1.6v4.6h1V198.4z M241.6,197.3v-1.7c0-0.4,0-1.1,0.1-1.6h0
		c-0.2,0.4-0.4,0.8-0.6,1.2l-1.4,2.1H241.6z"/>
	<path class="st6" d="M245.5,198.8c0.3,0.3,0.8,0.6,1.2,0.6c1,0,1.7-0.7,1.8-2.8c-0.4,0.6-1.1,0.9-1.7,0.9c-1.3,0-2.2-0.8-2.2-2.4
		c0-1.5,1.1-2.5,2.4-2.5c1.5,0,2.8,1.2,2.8,3.7c0,3-1.4,4.2-3,4.2c-0.9,0-1.6-0.4-2-0.9L245.5,198.8z M248.5,195.5
		c-0.1-1.3-0.7-1.9-1.4-1.9c-0.6,0-1.1,0.5-1.1,1.4c0,0.9,0.4,1.4,1.2,1.4C247.5,196.4,248,196.2,248.5,195.5z"/>
</g>
<g class="st5">
	<path class="st6" d="M276.9,228.6h1.7v-5h-1.4v-0.9c0.8-0.1,1.3-0.3,1.8-0.6h1v6.5h1.5v1.1h-4.6V228.6z"/>
	<path class="st6" d="M282.7,231.2c0.8-0.3,1.2-0.8,1.2-1.5c0,0-0.1,0-0.1,0c-0.5,0-0.9-0.3-0.9-0.9c0-0.5,0.4-0.9,0.9-0.9
		c0.6,0,1,0.5,1,1.4c0,1.2-0.7,2.1-1.9,2.5L282.7,231.2z"/>
	<path class="st6" d="M286.4,227.9c0.5,0.4,1,0.8,1.8,0.8c0.9,0,1.5-0.5,1.5-1.5c0-0.9-0.6-1.4-1.4-1.4c-0.5,0-0.8,0.1-1.2,0.4
		l-0.7-0.4l0.2-3.8h4.1v1.2h-2.9l-0.2,1.8c0.3-0.2,0.6-0.3,1-0.3c1.3,0,2.4,0.7,2.4,2.4c0,1.7-1.3,2.6-2.7,2.6c-1.2,0-2-0.5-2.6-1.1
		L286.4,227.9z"/>
	<path class="st6" d="M298.2,226c0-0.6-0.3-1.2-1.1-1.2c-0.6,0-1.1,0.3-1.7,0.6l-0.5-0.9c0.6-0.4,1.5-0.8,2.4-0.8
		c1.5,0,2.2,0.9,2.2,2.5v3.5h-1.1l-0.1-0.6h0c-0.5,0.4-1.1,0.8-1.8,0.8c-1,0-1.8-0.7-1.8-1.7C294.7,226.9,295.8,226.2,298.2,226z
		 M296.9,228.8c0.5,0,0.9-0.2,1.3-0.6v-1.3c-1.6,0.2-2.1,0.6-2.1,1.2C296.1,228.6,296.4,228.8,296.9,228.8z"/>
	<path class="st6" d="M303.7,228.6h1.7v-5H304v-0.9c0.8-0.1,1.3-0.3,1.8-0.6h1v6.5h1.5v1.1h-4.6V228.6z"/>
	<path class="st6" d="M309.5,231.2c0.8-0.3,1.2-0.8,1.2-1.5c0,0-0.1,0-0.1,0c-0.5,0-0.9-0.3-0.9-0.9c0-0.5,0.4-0.9,0.9-0.9
		c0.6,0,1,0.5,1,1.4c0,1.2-0.7,2.1-1.9,2.5L309.5,231.2z"/>
	<path class="st6" d="M313.6,228.2c0.3,0.3,0.8,0.6,1.2,0.6c1,0,1.7-0.7,1.8-2.8c-0.4,0.6-1.1,0.9-1.7,0.9c-1.3,0-2.2-0.8-2.2-2.4
		c0-1.5,1.1-2.5,2.4-2.5c1.5,0,2.8,1.2,2.8,3.7c0,3-1.4,4.2-3,4.2c-0.9,0-1.6-0.4-2-0.9L313.6,228.2z M316.6,224.9
		c-0.1-1.3-0.7-1.9-1.4-1.9c-0.6,0-1.1,0.5-1.1,1.4c0,0.9,0.4,1.4,1.2,1.4C315.6,225.8,316.2,225.6,316.6,224.9z"/>
	<path class="st6" d="M319.7,228.2c0.3,0.3,0.8,0.6,1.2,0.6c1,0,1.7-0.7,1.8-2.8c-0.4,0.6-1.1,0.9-1.7,0.9c-1.3,0-2.2-0.8-2.2-2.4
		c0-1.5,1.1-2.5,2.4-2.5c1.5,0,2.8,1.2,2.8,3.7c0,3-1.4,4.2-3,4.2c-0.9,0-1.6-0.4-2-0.9L319.7,228.2z M322.7,224.9
		c-0.1-1.3-0.7-1.9-1.4-1.9c-0.6,0-1.1,0.5-1.1,1.4c0,0.9,0.4,1.4,1.2,1.4C321.8,225.8,322.3,225.6,322.7,224.9z"/>
</g>
<g class="st5">
	<path class="st6" d="M244.7,92.9c2.1-2.1,3.5-3.4,3.5-4.6c0-0.8-0.4-1.3-1.3-1.3c-0.6,0-1.1,0.4-1.5,0.9l-0.8-0.8
		c0.7-0.7,1.4-1.2,2.4-1.2c1.5,0,2.4,0.9,2.4,2.3c0,1.4-1.3,2.7-2.8,4.3c0.4,0,0.9-0.1,1.3-0.1h1.9v1.2h-5.2V92.9z"/>
	<path class="st6" d="M250.9,95.1c0.8-0.3,1.2-0.8,1.2-1.5c0,0-0.1,0-0.1,0c-0.5,0-0.9-0.3-0.9-0.9c0-0.5,0.4-0.9,0.9-0.9
		c0.6,0,1,0.5,1,1.4c0,1.2-0.7,2.1-1.9,2.5L250.9,95.1z"/>
	<path class="st6" d="M254.1,89.8c0-2.6,1-3.9,2.6-3.9s2.6,1.4,2.6,3.9c0,2.6-1,4-2.6,4S254.1,92.4,254.1,89.8z M258,89.8
		c0-2.2-0.5-2.8-1.3-2.8c-0.7,0-1.3,0.7-1.3,2.8c0,2.2,0.5,2.9,1.3,2.9C257.5,92.7,258,92,258,89.8z"/>
	<path class="st6" d="M266.4,89.9c0-0.6-0.3-1.2-1.1-1.2c-0.6,0-1.1,0.3-1.7,0.6l-0.5-0.9c0.6-0.4,1.5-0.8,2.4-0.8
		c1.5,0,2.2,0.9,2.2,2.5v3.5h-1.1l-0.1-0.6h0c-0.5,0.4-1.1,0.8-1.8,0.8c-1,0-1.8-0.7-1.8-1.7C262.9,90.8,264,90.2,266.4,89.9z
		 M265.1,92.7c0.5,0,0.9-0.2,1.3-0.6v-1.3c-1.6,0.2-2.1,0.6-2.1,1.2C264.2,92.5,264.6,92.7,265.1,92.7z"/>
	<path class="st6" d="M271.5,92.9c2.1-2.1,3.5-3.4,3.5-4.6c0-0.8-0.4-1.3-1.3-1.3c-0.6,0-1.1,0.4-1.5,0.9l-0.8-0.8
		c0.7-0.7,1.4-1.2,2.4-1.2c1.5,0,2.4,0.9,2.4,2.3c0,1.4-1.3,2.7-2.8,4.3c0.4,0,0.9-0.1,1.3-0.1h1.9v1.2h-5.2V92.9z"/>
	<path class="st6" d="M277.7,95.1c0.8-0.3,1.2-0.8,1.2-1.5c0,0-0.1,0-0.1,0c-0.5,0-0.9-0.3-0.9-0.9c0-0.5,0.4-0.9,0.9-0.9
		c0.6,0,1,0.5,1,1.4c0,1.2-0.7,2.1-1.9,2.5L277.7,95.1z"/>
	<path class="st6" d="M286.3,91.7h-1v2H284v-2h-3.4v-0.9l3-4.7h1.6v4.6h1V91.7z M284,90.6v-1.7c0-0.4,0-1.1,0.1-1.6h0
		c-0.2,0.4-0.4,0.8-0.6,1.2l-1.4,2.1H284z"/>
	<path class="st6" d="M287.9,92.1c0.3,0.3,0.8,0.6,1.2,0.6c1,0,1.7-0.7,1.8-2.8c-0.4,0.6-1.1,0.9-1.7,0.9c-1.3,0-2.2-0.8-2.2-2.4
		c0-1.5,1.1-2.5,2.4-2.5c1.5,0,2.8,1.2,2.8,3.7c0,3-1.4,4.2-3,4.2c-0.9,0-1.6-0.4-2-0.9L287.9,92.1z M290.9,88.9
		c-0.1-1.3-0.7-1.9-1.4-1.9c-0.6,0-1.1,0.5-1.1,1.4c0,0.9,0.4,1.4,1.2,1.4C290,89.8,290.5,89.5,290.9,88.9z"/>
</g>
<g class="st5">
	<path class="st6" d="M90,140.4c2.1-2.1,3.5-3.4,3.5-4.6c0-0.8-0.4-1.3-1.3-1.3c-0.6,0-1.1,0.4-1.5,0.9l-0.8-0.8
		c0.7-0.7,1.4-1.2,2.4-1.2c1.5,0,2.4,0.9,2.4,2.3c0,1.4-1.3,2.7-2.8,4.3c0.4,0,0.9-0.1,1.3-0.1h1.9v1.2H90V140.4z"/>
	<path class="st6" d="M96.2,142.6c0.8-0.3,1.2-0.8,1.2-1.5c0,0-0.1,0-0.1,0c-0.5,0-0.9-0.3-0.9-0.9c0-0.5,0.4-0.9,0.9-0.9
		c0.6,0,1,0.5,1,1.4c0,1.2-0.7,2.1-1.9,2.5L96.2,142.6z"/>
	<path class="st6" d="M99.9,139.4c0.5,0.4,1,0.8,1.8,0.8c0.9,0,1.5-0.5,1.5-1.5c0-0.9-0.6-1.4-1.4-1.4c-0.5,0-0.8,0.1-1.2,0.4
		l-0.7-0.4l0.2-3.8h4.1v1.2h-2.9l-0.2,1.8c0.3-0.2,0.6-0.3,1-0.3c1.3,0,2.4,0.7,2.4,2.4c0,1.7-1.3,2.6-2.7,2.6c-1.2,0-2-0.5-2.6-1.1
		L99.9,139.4z"/>
	<path class="st6" d="M111.7,137.4c0-0.6-0.3-1.2-1.1-1.2c-0.6,0-1.1,0.3-1.7,0.6l-0.5-0.9c0.6-0.4,1.5-0.8,2.4-0.8
		c1.5,0,2.2,0.9,2.2,2.5v3.5h-1.1l-0.1-0.6h0c-0.5,0.4-1.1,0.8-1.8,0.8c-1,0-1.8-0.7-1.8-1.7C108.2,138.3,109.3,137.7,111.7,137.4z
		 M110.4,140.2c0.5,0,0.9-0.2,1.3-0.6v-1.3c-1.6,0.2-2.1,0.6-2.1,1.2C109.5,140,109.9,140.2,110.4,140.2z"/>
	<path class="st6" d="M116.8,140.4c2.1-2.1,3.5-3.4,3.5-4.6c0-0.8-0.4-1.3-1.3-1.3c-0.6,0-1.1,0.4-1.5,0.9l-0.8-0.8
		c0.7-0.7,1.4-1.2,2.4-1.2c1.5,0,2.4,0.9,2.4,2.3c0,1.4-1.3,2.7-2.8,4.3c0.4,0,0.9-0.1,1.3-0.1h1.9v1.2h-5.2V140.4z"/>
	<path class="st6" d="M123,142.6c0.8-0.3,1.2-0.8,1.2-1.5c0,0-0.1,0-0.1,0c-0.5,0-0.9-0.3-0.9-0.9c0-0.5,0.4-0.9,0.9-0.9
		c0.6,0,1,0.5,1,1.4c0,1.2-0.7,2.1-1.9,2.5L123,142.6z"/>
	<path class="st6" d="M127.1,139.6c0.3,0.3,0.8,0.6,1.2,0.6c1,0,1.7-0.7,1.8-2.8c-0.4,0.6-1.1,0.9-1.7,0.9c-1.3,0-2.2-0.8-2.2-2.4
		c0-1.5,1.1-2.5,2.4-2.5c1.5,0,2.8,1.2,2.8,3.7c0,3-1.4,4.2-3,4.2c-0.9,0-1.6-0.4-2-0.9L127.1,139.6z M130.1,136.4
		c-0.1-1.3-0.7-1.9-1.4-1.9c-0.6,0-1.1,0.5-1.1,1.4c0,0.9,0.4,1.4,1.2,1.4C129.1,137.3,129.6,137,130.1,136.4z"/>
	<path class="st6" d="M133.2,139.6c0.3,0.3,0.8,0.6,1.2,0.6c1,0,1.7-0.7,1.8-2.8c-0.4,0.6-1.1,0.9-1.7,0.9c-1.3,0-2.2-0.8-2.2-2.4
		c0-1.5,1.1-2.5,2.4-2.5c1.5,0,2.8,1.2,2.8,3.7c0,3-1.4,4.2-3,4.2c-0.9,0-1.6-0.4-2-0.9L133.2,139.6z M136.2,136.4
		c-0.1-1.3-0.7-1.9-1.4-1.9c-0.6,0-1.1,0.5-1.1,1.4c0,0.9,0.4,1.4,1.2,1.4C135.3,137.3,135.8,137,136.2,136.4z"/>
</g>
<g class="st5">
	<path class="st6" d="M153.5,340.7l-10.7,4.2v-2.3l4.6-1.6l3.2-1.2v-0.1l-3.2-1.2l-4.6-1.6v-2.3l10.7,4.2V340.7z"/>
	<path class="st6" d="M161.1,344c0.9,0.9,2.1,1.7,3.6,1.7c1.7,0,2.8-0.9,2.8-2.3c0-1.6-1-2.6-4.5-2.6v-2c3,0,4-1,4-2.4
		c0-1.3-0.9-2-2.3-2c-1.2,0-2.1,0.6-3.1,1.4l-1.4-1.7c1.3-1.2,2.8-1.9,4.6-1.9c2.9,0,4.9,1.4,4.9,4c0,1.7-1,2.9-2.7,3.5v0.1
		c1.8,0.5,3.2,1.8,3.2,3.8c0,2.8-2.4,4.4-5.4,4.4c-2.5,0-4.1-1-5.2-2.2L161.1,344z"/>
</g>
<image style="overflow:visible;" width="1366" height="768" xlink:href="95E3C413.jpg"  transform="matrix(1 0 0 1 719.6393 -164.8901)">
</image>
</svg>
