<?xml version="1.0" encoding="utf-8"?>
<!-- Generator: Adobe Illustrator 21.1.0, SVG Export Plug-In . SVG Version: 6.00 Build 0)  -->
<svg version="1.1" id="Capa_1" xmlns="http://www.w3.org/2000/svg" xmlns:xlink="http://www.w3.org/1999/xlink" x="0px" y="0px"
	 viewBox="0 0 880 330" style="enable-background:new 0 0 880 330;" xml:space="preserve">
<style type="text/css">
	.st0{fill:#FFFFFF;}
	.st1{fill:#FEC901;}
	.st2{fill:#BF453E;}
	.st3{fill:#81384E;}
	.st4{fill:#FD512D;}
	.st5{fill:#FD701E;}
	.st6{fill:#FEAE01;}
	.st7{fill:#FE8F10;}
	.st8{fill:none;stroke:#D2D2D2;stroke-miterlimit:10;}
	.st9{fill:none;}
	.st10{font-family:'SourceSansPro-Semibold';}
	.st11{font-size:11px;}
	.st12{font-size:10px;}
	.st13{font-family:'SourceSansPro-Regular';}
	.st14{fill:#432C5F;}
	.st15{fill:#FFE400;}
	.st16{fill:#FFFF00;}
</style>
<path class="st0" d="M173.9,90.4c-0.1,33.7,0,67.3-0.1,100.9c28.4,0,56.8,0,85.1,0c0-33.7,0.1-67.3,0-101
	C230.6,90.5,202.3,90.4,173.9,90.4"/>
<path class="st0" d="M267.8,91.2c0,35.6,0,71.2,0,106.8c28.4,0,56.7,0,85.1,0c0-35.6,0-71.2,0-106.8
	C324.5,91.2,296.2,91.2,267.8,91.2"/>
<path class="st0" d="M362,93c0,35,0,70,0,105c28.4,0,56.7,0,85.1,0c0-35,0-70,0-105C418.7,93,390.4,93,362,93"/>
<path class="st1" d="M738.1,95.5c0,34.2,0,68.3,0,102.5c28.4,0,56.8,0,85.1,0c0-34.2,0-68.3,0-102.5
	C794.9,95.5,766.5,95.5,738.1,95.5"/>
<path class="st0" d="M455.9,105.7c0,32.8,0,65.6,0,98.3c28.4,0,56.8,0,85.1,0c0-32.8,0-65.6,0-98.4
	C512.6,105.6,484.3,105.6,455.9,105.7"/>
<path class="st0" d="M644.1,106.3c-0.2,28.8-0.1,57.6,0,86.4c28.3-0.1,56.6,0,84.9,0c0.1-28.8,0.2-57.6,0-86.4
	C700.7,106.4,672.4,106.4,644.1,106.3"/>
<path class="st0" d="M586.7,109.6c1,0.3,2.1,0.5,3.2,0.7c-0.9,1.9-2,3.8-1.9,5.9c1.4-2.2,2.4-4.6,3.3-7.1
	C589.8,109.3,588.2,109.4,586.7,109.6"/>
<path class="st0" d="M591.7,110.5c0.7,0,2-0.1,2.7-0.1c-0.7,2-1.8,3.8-2.9,5.5c1.1,0,3.2,0.1,4.2,0.1c-0.4-0.4-1.2-1.3-1.6-1.8
	c0.5-1.1,1.1-2.2,1.6-3.3c-0.5-0.5-1.4-1.6-1.9-2.2C593.1,109.3,592.4,109.9,591.7,110.5"/>
<path class="st0" d="M596,112c0.2,1.7,1.4,3,2.2,4.5c1-1,2.7-1.8,2.9-3.4c0.5-1.9-1.2-3.2-2.2-4.5C597.8,109.6,596.5,110.5,596,112"
	/>
<path class="st0" d="M550.1,116.8c-0.1,24.2-0.1,48.3,0,72.5c28.3,0.3,56.6,0.2,85,0c0.1-24.2,0.2-48.3,0-72.5
	C606.7,116.6,578.4,116.5,550.1,116.8"/>
<path class="st0" d="M679.8,200.8c2.7,0,5.3,0.3,7.9,0.6c0-0.3,0.1-0.8,0.1-1.1l-1.8,0.1c0.6-1.4,2.2-2.7,2-4.4
	c-1.1-1.2-2.8-0.8-4.2-0.9c1.1,0.4,2.2,0.9,3.4,1.3c-0.7,1.4-1.5,2.7-2.2,4.1c-1-1.5-2.1-2.9-3.6-4c0.5-0.5,1.4-1.4,1.9-1.9
	C680.2,195.1,678.5,197.9,679.8,200.8"/>
<path class="st0" d="M688.8,195.4c0.6,0.2,1.8,0.5,2.4,0.7c-1.1,1.5-0.6,2.9,0.9,3.9c-0.9,0.2-2.6,0.5-3.4,0.7
	c1.4,0.5,2.9,0.9,4.2,0.1c0.1-1,0.1-2-0.1-3C693.2,195,690.8,194.6,688.8,195.4"/>
<path class="st0" d="M402.2,88.1C402.8,88.7,402.8,88.7,402.2,88.1z"/>
<path class="st0" d="M598.2,109.6c0.6,0.8,1.2,1.6,1.8,2.5c0,1.3-1.2,2.2-1.8,3.3C597.8,113.5,597.7,111.5,598.2,109.6z"/>
<path class="st0" d="M598.2,195C598.8,195.6,598.8,195.6,598.2,195z"/>
<path class="st0" d="M212.1,197c1.6-0.5,2.1,0.1,1.7,1.7C212.2,199.3,211.7,198.7,212.1,197z"/>
<path class="st0" d="M681,198.4c1.4-0.4,1.9,0.1,1.5,1.5C681,200.2,680.5,199.7,681,198.4z"/>
<path class="st2" d="M267.8,91.2c28.4,0,56.7,0,85.1,0c0,35.6,0,71.2,0,106.8c-28.4,0-56.7,0-85.1,0
	C267.8,162.4,267.8,126.8,267.8,91.2z"/>
<g id="_x23_08306bff">
	<path class="st3" d="M173.9,90.4c28.3,0,56.7,0.1,85,0c0.1,33.7,0,67.3,0,101c-28.4,0-56.8,0-85.1,0
		C173.9,157.7,173.8,124.1,173.9,90.4z"/>
</g>
<g id="_x23_68719eff">
	<path class="st4" d="M362,93c28.4,0,56.7,0,85.1,0c0,35,0,70,0,105c-28.4,0-56.7,0-85.1,0C362,163,362,128,362,93z"/>
</g>
<g id="_x23_878eb3ff">
	<path class="st5" d="M455.9,105.7c28.4-0.1,56.8,0,85.1,0c0,32.8,0,65.6,0,98.4c-28.4,0-56.7,0-85.1,0
		C455.9,171.2,455.9,138.4,455.9,105.7z"/>
</g>
<g id="_x23_8c93b7ff">
	<path class="st6" d="M644.1,106.3c28.3,0.1,56.6,0.1,84.9,0c0.2,28.8,0.1,57.6,0,86.4c-28.3,0-56.6-0.1-84.9,0
		C644,163.9,643.9,135.1,644.1,106.3z"/>
</g>
<g id="_x23_d6dbe9ff">
	<path class="st7" d="M550.1,116.8c28.3-0.2,56.6-0.2,84.9,0c0.3,24.2,0.1,48.3,0,72.5c-28.3,0.2-56.7,0.2-85,0
		C550,165.1,550,140.9,550.1,116.8z"/>
</g>
<line class="st8" x1="75.7" y1="90.4" x2="75.7" y2="262.2"/>
<line class="st8" x1="825.2" y1="262.2" x2="69.3" y2="262.2"/>
<line class="st8" x1="825.5" y1="268.2" x2="825.5" y2="261.7"/>
<line class="st8" x1="780.7" y1="269.2" x2="780.7" y2="262.7"/>
<line class="st8" x1="686.3" y1="269.2" x2="686.3" y2="262.7"/>
<line class="st8" x1="593" y1="269.2" x2="593" y2="262.7"/>
<line class="st8" x1="498.5" y1="269.2" x2="498.5" y2="262.7"/>
<line class="st8" x1="404.3" y1="269.2" x2="404.3" y2="262.7"/>
<line class="st8" x1="310.3" y1="269.2" x2="310.3" y2="262.7"/>
<line class="st8" x1="216.7" y1="269.2" x2="216.7" y2="262.7"/>
<line class="st8" x1="122.3" y1="269.2" x2="122.3" y2="262.7"/>
<line class="st8" x1="68.9" y1="247.9" x2="75.4" y2="247.9"/>
<line class="st8" x1="68.9" y1="233.6" x2="75.4" y2="233.6"/>
<line class="st8" x1="68.9" y1="219.3" x2="75.4" y2="219.3"/>
<line class="st8" x1="68.9" y1="204.9" x2="75.4" y2="204.9"/>
<line class="st8" x1="68.9" y1="190.6" x2="75.4" y2="190.6"/>
<line class="st8" x1="68.9" y1="176.3" x2="75.4" y2="176.3"/>
<line class="st8" x1="68.9" y1="162" x2="75.4" y2="162"/>
<line class="st8" x1="68.9" y1="147.6" x2="75.4" y2="147.6"/>
<line class="st8" x1="68.9" y1="133.3" x2="75.4" y2="133.3"/>
<line class="st8" x1="68.9" y1="119" x2="75.4" y2="119"/>
<line class="st8" x1="68.9" y1="104.7" x2="75.4" y2="104.7"/>
<line class="st8" x1="68.9" y1="90.3" x2="75.4" y2="90.3"/>
<g>
	<rect x="8.9" y="200" class="st9" width="56" height="11"/>
	<text transform="matrix(1 0 0 1 47.9412 207.7789)" class="st10 st11">600</text>
</g>
<g>
	<rect x="8.9" y="229.5" class="st9" width="56" height="11"/>
	<text transform="matrix(1 0 0 1 47.9412 237.2789)" class="st10 st11">560</text>
</g>
<g>
	<rect x="8.9" y="243.4" class="st9" width="56" height="11"/>
	<text transform="matrix(1 0 0 1 47.9413 251.1934)" class="st10 st11">540</text>
</g>
<g>
	<rect x="8.9" y="257.5" class="st9" width="56" height="11"/>
	<text transform="matrix(1 0 0 1 59.2273 265.2723)" class="st10 st11">0</text>
</g>
<g>
	<rect x="94.3" y="273.5" class="st9" width="56" height="11"/>
	<text transform="matrix(1 0 0 1 112.0732 280.5729)" class="st10 st12">2009</text>
</g>
<g>
	<rect x="94.3" y="108.5" class="st9" width="56" height="11"/>
	<text transform="matrix(1 0 0 1 114.8779 115.63)" class="st13 st12">714</text>
</g>
<g>
	<rect x="94.3" y="193.5" class="st9" width="56" height="11"/>
	<text transform="matrix(1 0 0 1 114.8779 200.5737)" class="st13 st12">621</text>
</g>
<g>
	<rect x="188.7" y="78.5" class="st9" width="56" height="11"/>
	<text transform="matrix(1 0 0 1 209.2113 85.6068)" class="st13 st12">756</text>
</g>
<g>
	<rect x="188.3" y="193.5" class="st9" width="56" height="11"/>
	<text transform="matrix(1 0 0 1 208.8779 200.5737)" class="st13 st12">622</text>
</g>
<g>
	<rect x="282.5" y="78.5" class="st9" width="56" height="11"/>
	<text transform="matrix(1 0 0 1 303.054 85.6068)" class="st13 st12">755</text>
</g>
<g>
	<rect x="282.2" y="202.5" class="st9" width="56" height="11"/>
	<text transform="matrix(1 0 0 1 302.7207 209.5737)" class="st13 st12">618</text>
</g>
<g>
	<rect x="375.7" y="83.5" class="st9" width="56" height="11"/>
	<text transform="matrix(1 0 0 1 396.245 90.6068)" class="st13 st12">741</text>
</g>
<g>
	<rect x="376.4" y="202.5" class="st9" width="56" height="11"/>
	<text transform="matrix(1 0 0 1 396.9117 209.5737)" class="st13 st12">618</text>
</g>
<g>
	<rect x="470.2" y="94.5" class="st9" width="56" height="11"/>
	<text transform="matrix(1 0 0 1 490.7644 101.6068)" class="st13 st12">735</text>
</g>
<g>
	<rect x="470.9" y="210.5" class="st9" width="56" height="11"/>
	<text transform="matrix(1 0 0 1 491.431 217.5737)" class="st13 st12">610</text>
</g>
<g>
	<rect x="564.3" y="104.1" class="st9" width="56" height="11"/>
	<text transform="matrix(1 0 0 1 584.8063 111.2001)" class="st13 st12">720</text>
</g>
<g>
	<rect x="564.9" y="194.5" class="st9" width="56" height="11"/>
	<text transform="matrix(1 0 0 1 585.4729 201.5764)" class="st13 st12">624</text>
</g>
<g>
	<rect x="657.8" y="94.5" class="st9" width="56" height="11"/>
	<text transform="matrix(1 0 0 1 678.3663 101.6068)" class="st13 st12">734</text>
</g>
<g>
	<rect x="658.5" y="194.5" class="st9" width="56" height="11"/>
	<text transform="matrix(1 0 0 1 679.033 201.5764)" class="st13 st12">623</text>
</g>
<g>
	<rect x="752.3" y="84.1" class="st9" width="56" height="11"/>
	<text transform="matrix(1 0 0 1 772.8935 91.1838)" class="st13 st12">749</text>
</g>
<g>
	<rect x="753" y="202.5" class="st9" width="56" height="11"/>
	<text transform="matrix(1 0 0 1 773.5602 209.5912)" class="st13 st12">610</text>
</g>
<g>
	<rect x="188.3" y="273.5" class="st9" width="56" height="11"/>
	<text transform="matrix(1 0 0 1 206.0732 280.5729)" class="st10 st12">2010</text>
</g>
<g>
	<rect x="282.3" y="273.5" class="st9" width="56" height="11"/>
	<text transform="matrix(1 0 0 1 300.0732 280.5729)" class="st10 st12">2011</text>
</g>
<g>
	<rect x="376.3" y="273.5" class="st9" width="56" height="11"/>
	<text transform="matrix(1 0 0 1 394.0732 280.5729)" class="st10 st12">2012</text>
</g>
<g>
	<rect x="470.4" y="273.5" class="st9" width="56" height="11"/>
	<text transform="matrix(1 0 0 1 488.1741 280.5729)" class="st10 st12">2013</text>
</g>
<g>
	<rect x="565.4" y="273.5" class="st9" width="56" height="11"/>
	<text transform="matrix(1 0 0 1 583.1751 280.5729)" class="st10 st12">2014</text>
</g>
<g>
	<rect x="658.7" y="273.5" class="st9" width="56" height="11"/>
	<text transform="matrix(1 0 0 1 676.4575 280.5729)" class="st10 st12">2015</text>
</g>
<g>
	<rect x="752.7" y="273.5" class="st9" width="56" height="11"/>
	<text transform="matrix(1 0 0 1 770.4231 280.5729)" class="st10 st12">2016</text>
</g>
<g>
	<rect x="819.7" y="258.8" class="st9" width="56" height="11"/>
	<text transform="matrix(1 0 0 1 839.3624 265.8129)" class="st10 st12">Año</text>
</g>
<g>
	<rect x="8.9" y="214.5" class="st9" width="56" height="11"/>
	<text transform="matrix(1 0 0 1 47.9412 222.2789)" class="st10 st11">580</text>
</g>
<g>
	<rect x="8.9" y="185.5" class="st9" width="56" height="11"/>
	<text transform="matrix(1 0 0 1 47.9412 193.279)" class="st10 st11">620</text>
</g>
<g>
	<rect x="8.9" y="170.8" class="st9" width="56" height="11"/>
	<text transform="matrix(1 0 0 1 47.9412 178.5523)" class="st10 st11">640</text>
</g>
<g>
	<rect x="8.9" y="128" class="st9" width="56" height="11"/>
	<text transform="matrix(1 0 0 1 47.9412 135.7789)" class="st10 st11">700</text>
</g>
<g>
	<rect x="8.9" y="157.5" class="st9" width="56" height="11"/>
	<text transform="matrix(1 0 0 1 47.9412 165.279)" class="st10 st11">660</text>
</g>
<g>
	<rect x="8.9" y="142.5" class="st9" width="56" height="11"/>
	<text transform="matrix(1 0 0 1 47.9412 150.2789)" class="st10 st11">680</text>
</g>
<g>
	<rect x="8.9" y="113.5" class="st9" width="56" height="11"/>
	<text transform="matrix(1 0 0 1 47.9412 121.279)" class="st10 st11">720</text>
</g>
<g>
	<rect x="8.9" y="99.8" class="st9" width="56" height="11"/>
	<text transform="matrix(1 0 0 1 47.9412 107.5523)" class="st10 st11">740</text>
</g>
<g>
	<rect x="19.9" y="76.1" class="st9" width="56" height="11"/>
	<text transform="matrix(1 0 0 1 34.4558 83.8856)" class="st10 st11">puntajes</text>
</g>
<path class="st14" d="M80,123.5c28.3-0.2,56.5-0.2,84.8,0c0.1,24.2,0.4,40.7,0.1,65c-28.2,0.4-56.5,0.2-84.7,0.1
	C79.6,172.9,79.7,132.2,80,123.5z"/>
<g>
	<rect x="-102" y="-386" class="st6" width="40" height="40"/>
	<rect x="-74.7" y="-386" class="st7" width="40" height="40"/>
	<rect x="-47.3" y="-386" class="st5" width="40" height="40"/>
	<rect x="-20" y="-386" class="st4" width="40" height="40"/>
</g>
<g>
	<rect x="6.5" y="-386" class="st4" width="40" height="40"/>
	<rect x="35.3" y="-386" class="st2" width="40" height="40"/>
	<rect x="64.2" y="-386" class="st3" width="40" height="40"/>
	<rect x="93.1" y="-386" class="st14" width="40" height="40"/>
</g>
<g>
	<rect x="-131" y="-384.3" class="st6" width="36.7" height="36.7"/>
	<rect x="-151.2" y="-384.3" class="st1" width="36.7" height="36.7"/>
	<rect x="-171.4" y="-384.3" class="st15" width="36.7" height="36.7"/>
	<rect x="-191.7" y="-384.3" class="st16" width="36.7" height="36.7"/>
</g>
</svg>
